<?xml version="1.0" encoding="UTF-8"?>
<svg width="18px" height="18px" viewBox="0 0 18 18" version="1.1" xmlns="http://www.w3.org/2000/svg" xmlns:xlink="http://www.w3.org/1999/xlink">
    <!-- Generator: Sketch 54.1 (76490) - https://sketchapp.com -->
    <title>facebook</title>
    <desc>Created with Sketch.</desc>
    <g id="Main" stroke="none" stroke-width="1" fill="none" fill-rule="evenodd">
        <g id="UI" transform="translate(-1063.000000, -210.000000)" fill="#A0BBA3">
            <g id="Social" transform="translate(1060.000000, 207.000000)">
                <g id="facebook">
                    <path d="M12.6104494,20.9928539 L12.6104494,14.0251011 L10.2656629,14.0251011 L10.2656629,11.3095955 L12.6104494,11.3095955 L12.6104494,9.30701124 C12.6104494,6.98298876 14.0298202,5.71752809 16.1030562,5.71752809 C17.0960225,5.71752809 17.9496404,5.79148315 18.1983371,5.82451685 L18.1983371,8.25323596 L16.760427,8.25391011 C15.6329663,8.25391011 15.4146742,8.78966292 15.4146742,9.57586517 L15.4146742,11.3095955 L18.1036854,11.3095955 L17.7535281,14.0251011 L15.4147416,14.0251011 L15.4147416,20.9929213 L15.4147416,20.9928539 L12.6104494,20.9928539 L3.99303371,20.9928539 C3.44447191,20.9928539 3,20.5482472 3,19.9998202 L3,3.99303371 C3,3.44453933 3.44447191,3 3.99303371,3 L19.9998202,3 C20.5481124,3 20.9927865,3.44447191 20.9927865,3.99303371 L20.9927865,19.9998876 C20.9927865,20.5482472 20.5481798,20.9929213 19.9998202,20.9929213 L19.9998202,20.9928539 L12.6104494,20.9928539 Z" id="Combined-Shape"></path>
                </g>
            </g>
        </g>
    </g>
</svg>