<?xml version="1.0" encoding="UTF-8"?>
<svg width="18px" height="14px" viewBox="0 0 18 14" version="1.1" xmlns="http://www.w3.org/2000/svg" xmlns:xlink="http://www.w3.org/1999/xlink">
    <!-- Generator: Sketch 54.1 (76490) - https://sketchapp.com -->
    <title>medium@2x</title>
    <desc>Created with Sketch.</desc>
    <g id="Main" stroke="none" stroke-width="1" fill="none" fill-rule="evenodd">
        <g id="UI" transform="translate(-1117.000000, -212.000000)" fill="#A0BBA3">
            <g id="Social" transform="translate(1060.000000, 207.000000)">
                <g id="medium" transform="translate(54.000000, 0.000000)">
                    <path d="M21,7.06317753 L20.2880859,7.06317753 C20.0237813,7.06317753 19.65,7.43779204 19.65,7.67756468 L19.65,16.369478 C19.65,16.609527 20.0237813,16.9368225 20.2880859,16.9368225 L21,16.9368225 L21,19 L14.5500234,19 L14.5500234,16.9368225 L15.9000234,16.9368225 L15.9000234,7.79997237 L15.8338594,7.79997237 L12.6813281,19 L10.2406406,19 L7.12875,7.79997237 L7.05,7.79997237 L7.05,16.9368225 L8.4,16.9368225 L8.4,19 L3,19 L3,16.9368225 L3.69152344,16.9368225 C3.97621875,16.9368225 4.35,16.609527 4.35,16.369478 L4.35,7.6774956 C4.35,7.43772296 3.97621875,7.06310845 3.69152344,7.06310845 L3,7.06310845 L3,5 L9.75239063,5 L11.9693438,13.1052268 L12.0305156,13.1052268 L14.2677891,5 L21,5 L21,7.06317753" id="Path"></path>
                </g>
            </g>
        </g>
    </g>
</svg>