<?xml version="1.0" encoding="UTF-8"?>
<svg width="22px" height="22px" viewBox="0 0 22 22" version="1.1" xmlns="http://www.w3.org/2000/svg" xmlns:xlink="http://www.w3.org/1999/xlink">
    <!-- Generator: Sketch 54.1 (76490) - https://sketchapp.com -->
    <title>Path</title>
    <desc>Created with Sketch.</desc>
    <g id="Main" stroke="none" stroke-width="1" fill="none" fill-rule="evenodd">
        <g id="LeGrandePlaneteVerte_Main04" transform="translate(-1201.000000, -54.000000)" fill="#44A15B" fill-rule="nonzero">
            <g id="Navigation" transform="translate(70.000000, 40.000000)">
                <path d="M1152.54243,31.5433946 L1148.11915,28.0423733 C1147.5865,27.625033 1146.79911,27.7177753 1146.38226,28.274229 L1145.75697,29.1089096 C1145.47907,29.4798788 1144.92327,29.5262499 1144.59905,29.1784663 L1137.81359,22.3850939 C1137.48937,22.0604959 1137.51253,21.5040421 1137.88306,21.2258153 L1138.71677,20.5998049 C1139.27258,20.1824646 1139.36521,19.4173407 1138.94836,18.860887 L1135.47457,14.4556284 C1135.05772,13.9223602 1134.27033,13.8528035 1133.73768,14.2701438 C1133.29767,14.6179274 1132.88081,15.0352677 1132.4408,15.4757935 C1129.82388,18.0957631 1130.37969,22.5705784 1137.39673,29.5958066 C1144.41378,36.6210348 1148.88338,37.1774885 1151.5003,34.5575189 C1151.94031,34.1169931 1152.38032,33.6764672 1152.7277,33.2359414 C1153.16771,32.7258588 1153.05192,31.9607349 1152.54243,31.5433946 Z" id="Path"></path>
            </g>
        </g>
    </g>
</svg>