<?xml version="1.0" encoding="UTF-8"?>
<svg width="20px" height="16px" viewBox="0 0 20 16" version="1.1" xmlns="http://www.w3.org/2000/svg" xmlns:xlink="http://www.w3.org/1999/xlink">
    <!-- Generator: Sketch 54.1 (76490) - https://sketchapp.com -->
    <title>twitter@2x</title>
    <desc>Created with Sketch.</desc>
    <g id="Main" stroke="none" stroke-width="1" fill="none" fill-rule="evenodd">
        <g id="UI" transform="translate(-1170.000000, -211.000000)" fill="#A0BBA3">
            <g id="Social" transform="translate(1060.000000, 207.000000)">
                <g id="twitter" transform="translate(108.000000, 0.000000)">
                    <path d="M15.3633904,4.00355161 L15.3633904,4 L16.3011722,4 L16.6438233,4.06748058 C16.8722633,4.11128968 17.0796573,4.16870144 17.2660054,4.23973363 C17.4523715,4.31076582 17.6327142,4.39364262 17.8070334,4.48834628 C17.9813706,4.58304994 18.139477,4.67954717 18.2813526,4.77780244 C18.4220198,4.87488568 18.5482597,4.97788235 18.6600721,5.08679245 C18.7706583,5.19689234 18.9431921,5.22530522 19.1776375,5.17203108 C19.412083,5.11875694 19.6645627,5.04475916 19.9350766,4.95005549 C20.2055906,4.85535183 20.4731109,4.74880355 20.7376014,4.63041065 C21.00211,4.51201776 21.1632281,4.43684795 21.2209378,4.40488346 C21.2774391,4.37174695 21.3075023,4.3539889 21.3111091,4.35160932 L21.3146979,4.34628191 L21.3327322,4.33740289 L21.3507665,4.32852386 L21.3688007,4.31964484 L21.386835,4.31076582 L21.3904418,4.3054384 L21.3958521,4.30188679 L21.4012804,4.29833518 L21.4048693,4.29300777 L21.4229035,4.28768036 L21.4409378,4.28412875 L21.437349,4.31076582 L21.4319206,4.33740289 L21.4229035,4.36403996 L21.4138864,4.39067703 L21.4048693,4.40843507 L21.3958521,4.42619312 L21.386835,4.45283019 C21.3808296,4.47058824 21.3748242,4.49425971 21.3688007,4.52386238 C21.3627953,4.55346504 21.3056808,4.67184018 21.1974752,4.87902331 C21.0892696,5.08620644 20.9540126,5.2963374 20.7917042,5.50943396 C20.6293959,5.72253052 20.4839315,5.88352497 20.3552931,5.99245283 C20.2254463,6.10255272 20.139477,6.17949834 20.097385,6.22330744 C20.0553111,6.26828857 20.00422,6.30971809 19.9440938,6.34761376 L19.8539225,6.40621532 L19.8358882,6.41509434 L19.8178539,6.42397336 L19.8142651,6.42930078 L19.8088368,6.43285239 L19.8034265,6.436404 L19.7998197,6.44173141 L19.7817854,6.45061043 L19.7637511,6.45948946 L19.7601623,6.46481687 L19.754734,6.46836848 L19.7493237,6.47192009 L19.7457169,6.4772475 L19.742128,6.48257492 L19.7366997,6.48612653 L19.7312894,6.48967814 L19.7276826,6.49500555 L19.8178539,6.49500555 L20.3228133,6.38845727 C20.659459,6.31742508 20.981064,6.23160044 21.2876465,6.13096559 L21.7745717,5.97114317 L21.8286745,5.95338513 L21.8557259,5.9445061 L21.8737601,5.93562708 L21.8917944,5.92674806 L21.9098287,5.91786903 L21.9278629,5.90899001 L21.9639315,5.9036626 L22,5.90011099 L22,5.93562708 L21.9909829,5.93917869 L21.9819657,5.9445061 L21.9783769,5.94983352 L21.9729486,5.95338513 L21.9675383,5.95693674 L21.9639315,5.96226415 L21.9603427,5.96759156 L21.9549143,5.97114317 L21.9495041,5.97469478 L21.9458972,5.9800222 L21.9423084,5.98534961 L21.9368801,5.98890122 L21.9278629,6.00665927 L21.9188458,6.02441731 L21.9134355,6.02796892 C21.911037,6.03152053 21.8346979,6.13213762 21.6844004,6.32985572 C21.5341208,6.52874584 21.4529666,6.62936293 21.4409378,6.63174251 C21.428927,6.63529412 21.412083,6.65305216 21.3904418,6.68501665 C21.370009,6.71815316 21.2425609,6.85016648 21.0081154,7.08102109 C20.77367,7.31187569 20.5440577,7.51726526 20.3192245,7.69722531 C20.0932011,7.87835738 19.978972,8.10091898 19.9765735,8.36492786 C19.9729666,8.62774695 19.9591344,8.9249101 19.9350766,9.2563818 C19.911037,9.58787125 19.8659513,9.94598002 19.7998197,10.3307436 C19.733706,10.7155072 19.6315059,11.1505794 19.4932372,11.63596 C19.3549865,12.1213407 19.1866546,12.5948946 18.9882777,13.0566038 C18.7899008,13.518313 18.5825068,13.9326615 18.3660956,14.299667 C18.1496844,14.6666726 17.9513075,14.9774384 17.7709648,15.2319645 C17.5906222,15.4864906 17.4072858,15.7262242 17.2209197,15.9511654 C17.0345717,16.1761065 16.798936,16.4294606 16.5139946,16.7112098 C16.2278449,16.9917869 16.07156,17.1456959 16.0451037,17.172919 C16.0174572,17.19897 15.8996393,17.2960533 15.6916141,17.4641509 C15.4848332,17.6334384 15.2623986,17.8027259 15.0243463,17.9720311 C14.7875023,18.1401465 14.5698828,18.2804351 14.3715059,18.3928968 C14.1731289,18.5053585 13.9338864,18.6338024 13.6537421,18.7782464 C13.3748242,18.9238624 13.0730388,19.0588235 12.748422,19.1831299 C12.4238052,19.3074362 12.0811542,19.4228635 11.7204689,19.5294118 C11.3597836,19.63596 11.0111271,19.7188368 10.6744815,19.7780244 C10.3378539,19.837212 9.95612263,19.8875383 9.52930568,19.9289678 L8.88908927,19.991121 L8.88908927,20 L7.71686204,20 L7.71686204,19.991121 L7.56357078,19.982242 C7.46138864,19.9763285 7.37722272,19.9703973 7.31109107,19.9644839 C7.24497746,19.9585705 6.99549143,19.9260022 6.56266907,19.8668147 C6.12984671,19.8076271 5.79020739,19.7484218 5.54373309,19.6892342 C5.29727683,19.6300466 4.93056808,19.5175671 4.44364292,19.3518313 C3.95671776,19.1860954 3.54012624,19.018566 3.19386835,18.8492786 C2.84881876,18.6811632 2.63240757,18.5746149 2.54463481,18.5296337 C2.45807033,18.4858246 2.3606853,18.4313785 2.25247971,18.3662597 L2.09017133,18.2685905 L2.08658251,18.263263 L2.08115419,18.2597114 L2.07574391,18.2561598 L2.07213706,18.2508324 L2.0541028,18.2419534 L2.03606853,18.2330744 L2.03247971,18.2277469 L2.0270514,18.2241953 L2.02164112,18.2206437 L2.01803427,18.2153163 L2.01444545,18.2099889 L2.00901713,18.2064373 L2,18.2064373 L2,18.1709212 L2.01803427,18.1744728 L2.03606853,18.1798002 L2.11722272,18.1886792 C2.17132552,18.1945927 2.31861136,18.2034717 2.55906222,18.2153163 C2.79953111,18.2271609 3.05500451,18.2271609 3.32551849,18.2153163 C3.59603246,18.2034717 3.87256988,18.1768346 4.15509468,18.1354051 C4.43763751,18.0939756 4.77127142,18.0229434 5.15599639,17.9223085 C5.5407394,17.8216737 5.894211,17.7021088 6.21642922,17.563596 C6.53743913,17.4239112 6.76586114,17.3197248 6.90173129,17.2510544 C7.03637511,17.1835738 7.24196573,17.0580777 7.51848512,16.8745838 L7.93327322,16.5993341 L7.93688007,16.5940067 L7.94229035,16.590455 L7.94771867,16.5869034 L7.95130748,16.581576 L7.95491434,16.5762486 L7.96032462,16.572697 L7.96575293,16.5691454 L7.96934175,16.563818 L7.98737601,16.5584906 L8.00541028,16.554939 L8.00901713,16.5371809 L8.01442741,16.5194229 L8.01985573,16.5158713 L8.02344454,16.5105438 L7.87917042,16.5016648 C7.78299369,16.4957514 7.68981064,16.4898202 7.59963931,16.4839068 C7.50946799,16.4779933 7.36820559,16.4513563 7.17583408,16.4039956 C6.98348061,16.3566349 6.77608656,16.2856027 6.55365194,16.190899 C6.33123535,16.0961953 6.11482417,15.9837159 5.90441839,15.8534961 C5.69403066,15.7232764 5.54192967,15.6149345 5.44815149,15.5285239 C5.35558161,15.4432675 5.23534716,15.3225305 5.08746619,15.1662597 C4.94079351,15.0088169 4.81334536,14.8472009 4.70513977,14.681465 C4.59693417,14.5157292 4.49354373,14.3245105 4.39496844,14.1078801 L4.24526601,13.7846837 L4.23624887,13.7580466 L4.22723174,13.7314095 L4.22182146,13.7136515 L4.21821461,13.6958935 L4.24526601,13.6994451 L4.2723174,13.7047725 L4.47069432,13.7314095 C4.60295762,13.7491676 4.81035167,13.755081 5.09287647,13.7491676 C5.3754193,13.7432542 5.57078449,13.7314095 5.67899008,13.7136515 C5.78719567,13.6958935 5.85332732,13.6840488 5.877367,13.6781354 L5.91343553,13.6692564 L5.95852119,13.6603774 L6.00360685,13.6514983 L6.00721371,13.6461709 L6.01262399,13.6426193 L6.0180523,13.6390677 L6.02164112,13.6337403 L5.98557259,13.6248613 L5.94950406,13.6159822 L5.91343553,13.6071032 L5.877367,13.5982242 L5.84129847,13.5893452 C5.81725879,13.5834317 5.77518485,13.5715871 5.71505861,13.5538291 C5.65495041,13.536071 5.49264202,13.4709523 5.22813345,13.3584906 C4.96364292,13.2460289 4.75323715,13.136515 4.59693417,13.0299667 C4.44024374,12.9231096 4.2908398,12.8062476 4.1496844,12.6801332 C4.00901713,12.5522752 3.85453562,12.3877114 3.68620379,12.1864595 C3.51788999,11.9852075 3.36761046,11.7513873 3.23534716,11.4850166 C3.10310189,11.2186459 3.00391344,10.9641199 2.93778179,10.7214206 C2.87191606,10.480149 2.82846102,10.233481 2.80795311,9.98446171 L2.7754734,9.61154273 L2.79350766,9.61509434 L2.81154193,9.62042175 L2.82957619,9.62930078 L2.84761046,9.6381798 L2.86564472,9.64705882 L2.88367899,9.65593785 L3.1632101,9.78024417 C3.34957619,9.86312098 3.58100992,9.93415316 3.85752931,9.99334073 C4.13406673,10.0525283 4.2993688,10.0850966 4.3534716,10.09101 L4.43462579,10.099889 L4.59693417,10.099889 L4.59334536,10.0945616 L4.58791704,10.09101 L4.58250676,10.0874584 L4.57889991,10.082131 L4.57531109,10.0768036 L4.56988278,10.0732519 L4.5644725,10.0697003 L4.56086564,10.0643729 L4.54283138,10.0554939 L4.52479711,10.0466149 L4.5212083,10.0412875 L4.51577998,10.0377358 L4.5103697,10.0341842 L4.50676285,10.0288568 L4.48872858,10.0199778 L4.47069432,10.0110988 L4.4671055,10.0057714 C4.46349865,10.0033918 4.41179441,9.96551387 4.31199279,9.89211987 C4.21339946,9.81753607 4.11000902,9.7210566 4.00180343,9.60266371 C3.89359784,9.48427081 3.78539225,9.35996448 3.67718665,9.22974473 C3.56878184,9.09922661 3.47222811,8.95958538 3.38863841,8.81243063 C3.30449053,8.66445283 3.21550947,8.47619978 3.12173129,8.24772475 C3.02916141,8.02042175 2.95882777,7.79134295 2.91073039,7.56048835 C2.86265104,7.32963374 2.83559964,7.10174473 2.82957619,6.87680355 C2.82357078,6.65186238 2.82957619,6.45948946 2.84761046,6.29966704 C2.86564472,6.13984462 2.90171326,5.95929856 2.95581605,5.75804661 C3.00991885,5.55679467 3.08807935,5.34369811 3.1902615,5.11875694 L3.34355275,4.78135405 L3.35256988,4.75471698 L3.36158702,4.72807991 L3.36701533,4.7245283 L3.37060415,4.71920089 L3.374211,4.71387347 L3.37962128,4.71032186 L3.38504959,4.71387347 L3.38863841,4.71920089 L3.39224527,4.7245283 L3.39765555,4.72807991 L3.40308386,4.73163152 L3.40667268,4.73695893 L3.41027953,4.74228635 L3.41568981,4.74583796 L3.42470694,4.763596 L3.43372408,4.78135405 L3.43915239,4.78490566 L3.44274121,4.79023307 L3.68620379,5.05660377 C3.84851217,5.23418424 4.04088368,5.43248835 4.26330027,5.65149834 C4.4857349,5.87050832 4.60896303,5.98415982 4.63300271,5.99245283 C4.65706041,6.00191787 4.6871055,6.02914095 4.72317403,6.07413984 C4.75924256,6.11794895 4.87947701,6.22272142 5.08385933,6.38845727 C5.28825969,6.55419312 5.55576195,6.7465838 5.88638413,6.96559378 C6.21702435,7.18460377 6.58371506,7.40066593 6.9864743,7.61376249 C7.38925158,7.82685905 7.82207394,8.01923196 8.28494139,8.190899 C8.74782687,8.36256604 9.07244364,8.47502775 9.2587917,8.52830189 C9.4451578,8.58157603 9.76375113,8.64964262 10.2146078,8.73251942 C10.6654644,8.81539623 11.0051217,8.86867037 11.2335437,8.89234184 C11.4619838,8.91601332 11.6182867,8.92963374 11.7024346,8.93318535 L11.8286745,8.93673696 L11.8250857,8.91009989 L11.8196573,8.88346282 L11.7835888,8.66148724 C11.7595491,8.51350943 11.7475203,8.3063263 11.7475203,8.0399556 C11.7475203,7.77358491 11.7685663,7.52793785 11.8106402,7.30299667 C11.8527322,7.07805549 11.9158521,6.85016648 12,6.61931188 C12.0841659,6.38845727 12.1665284,6.20316981 12.2470694,6.06348502 C12.3288368,5.92497225 12.4358341,5.76692564 12.5680794,5.58934517 C12.7003427,5.41176471 12.8716682,5.22827081 13.0820559,5.03884573 C13.2924617,4.84942064 13.5329125,4.6807192 13.8034265,4.5327414 C14.0739405,4.3847636 14.3234265,4.27228413 14.5518485,4.19533851 C14.7802885,4.1183929 14.9726601,4.06806659 15.128945,4.04439512 C15.285248,4.02072364 15.3633904,4.00710322 15.3633904,4.00355161 Z" id="Path"></path>
                </g>
            </g>
        </g>
    </g>
</svg>