<?xml version="1.0" encoding="UTF-8"?>
<svg width="99px" height="184px" viewBox="0 0 99 184" version="1.1" xmlns="http://www.w3.org/2000/svg" xmlns:xlink="http://www.w3.org/1999/xlink">
    <!-- Generator: Sketch 54.1 (76490) - https://sketchapp.com -->
    <title>Man</title>
    <desc>Created with Sketch.</desc>
    <defs>
        <path d="M11.013,11.033 C10.63,11.033 10.236,11.015 9.834,10.98 C9.562,11.003 9.285,11.015 9.002,11.015 C8.135,11.015 7.224,10.905 6.3,10.668 C2.233,9.627 -0.5,6.581 0.196,3.863 C0.733,1.765 3.155,0.476 6.103,0.476 C6.974,0.476 7.892,0.589 8.819,0.826 C10.043,1.139 11.143,1.637 12.068,2.25 C15.352,3.694 17.406,6.073 16.879,8.132 C16.411,9.961 14.04,11.033 11.013,11.033 L11.013,11.033 Z" id="path-1"></path>
    </defs>
    <g id="Main" stroke="none" stroke-width="1" fill="none" fill-rule="evenodd">
        <g id="LeGrandePlaneteVerte_Main02" transform="translate(-1001.000000, -325.000000)">
            <g id="Content" transform="translate(-108.000000, 118.000000)">
                <g id="02" transform="translate(997.000000, 146.000000)">
                    <g id="Man" transform="translate(112.000000, 61.000000)">
                        <path d="M49.067,183.894399 C21.968,183.894399 0,181.239399 0,177.963399 C0,174.689399 21.968,172.033399 49.067,172.033399 C76.166,172.033399 98.134,174.689399 98.134,177.963399 C98.134,181.239399 76.166,183.894399 49.067,183.894399" id="Fill-5" fill="#E7EEE8"></path>
                        <path d="M74.559,109.388399 L74.451,109.236399 C71.927,105.707399 69.531,101.835399 66.561,98.7073989 C65.889,97.9993989 60.411,93.1433989 60.476,95.8563989 C60.598,100.978399 63.743,104.105399 65.461,106.996399 C69.425,113.670399 76.728,119.631399 77.153,127.895399 C77.208,128.990399 77.135,130.282399 77.002,131.372399 C76.902,132.194399 75.788,133.582399 76.298,134.408399 C77.136,135.767399 78.882,133.913399 79.142,133.028399 C79.319,132.423399 79.305,131.580399 79.771,131.093399 C80.318,130.522399 80.92,131.251399 81.384,131.531399 C82.205,132.028399 83.015,132.514399 83.788,133.112399 C84.276,133.490399 84.799,133.938399 85.422,134.066399 C86.152,134.216399 86.656,133.576399 86.697,132.917399 C86.751,132.081399 86.097,131.679399 85.474,131.299399 C84.649,130.794399 83.734,130.289399 82.956,129.726399 C84.083,130.310399 85.369,130.780399 86.422,131.486399 C87.075,131.924399 87.751,132.415399 88.407,131.679399 C88.703,131.347399 89.045,130.723399 88.799,130.280399 C88.493,129.731399 87.574,129.397399 87.051,129.137399 C85.958,128.595399 84.834,128.119399 83.715,127.637399 C84.504,127.977399 85.519,128.264399 86.358,128.465399 C87.232,128.674399 88.677,129.295399 89.057,128.031399 C89.349,127.058399 88.403,126.944399 87.658,126.801399 C86.715,126.619399 85.615,126.341399 84.657,126.336399 C85.331,126.086399 86.082,126.103399 86.742,125.847399 C88.402,125.205399 86.995,124.018399 85.714,124.481399 C84.318,124.987399 83.116,125.131399 81.651,125.382399 C81.417,123.962399 81.136,122.643399 80.74,121.251399 C79.53,116.990399 77.107,112.966399 74.559,109.388399" id="Fill-6" fill="#F4C5B5"></path>
                        <path d="M61.149,106.486399 C49.101,86.1913989 59.444,89.6393989 63.022,93.1693989 C64.251,94.3813989 70.305,101.560399 70.059,101.627399 C66.426,102.627399 64.327,105.238399 61.149,106.486399" id="Fill-7" fill="#E05862"></path>
                        <path d="M25.039,109.388399 L25.148,109.236399 C27.672,105.707399 30.068,101.835399 33.038,98.7073989 C33.71,97.9993989 39.188,93.1433989 39.123,95.8563989 C39.001,100.978399 35.855,104.105399 34.138,106.996399 C30.174,113.670399 22.871,119.631399 22.446,127.895399 C22.391,128.990399 22.464,130.282399 22.597,131.372399 C22.697,132.194399 23.811,133.582399 23.301,134.408399 C22.463,135.767399 20.717,133.913399 20.457,133.028399 C20.279,132.423399 20.294,131.580399 19.828,131.093399 C19.281,130.522399 18.679,131.251399 18.215,131.531399 C17.394,132.028399 16.584,132.514399 15.811,133.112399 C15.323,133.490399 14.799,133.938399 14.177,134.066399 C13.447,134.216399 12.943,133.576399 12.901,132.917399 C12.848,132.081399 13.502,131.679399 14.125,131.299399 C14.95,130.794399 15.865,130.289399 16.643,129.726399 C15.516,130.310399 14.229,130.780399 13.177,131.486399 C12.524,131.924399 11.848,132.415399 11.192,131.679399 C10.896,131.347399 10.554,130.723399 10.8,130.280399 C11.106,129.731399 12.025,129.397399 12.548,129.137399 C13.641,128.595399 14.765,128.119399 15.884,127.637399 C15.095,127.977399 14.079,128.264399 13.241,128.465399 C12.367,128.674399 10.922,129.295399 10.542,128.031399 C10.25,127.058399 11.195,126.944399 11.941,126.801399 C12.884,126.619399 13.984,126.341399 14.942,126.336399 C14.268,126.086399 13.517,126.103399 12.856,125.847399 C11.197,125.205399 12.603,124.018399 13.885,124.481399 C15.281,124.987399 16.483,125.131399 17.948,125.382399 C18.182,123.962399 18.463,122.643399 18.859,121.251399 C20.069,116.990399 22.492,112.966399 25.039,109.388399" id="Fill-8" fill="#F4C5B5"></path>
                        <path d="M38.45,106.486399 C50.498,86.1913989 40.155,89.6393989 36.577,93.1693989 C35.348,94.3813989 29.294,101.560399 29.54,101.627399 C33.173,102.627399 35.272,105.238399 38.45,106.486399" id="Fill-9" fill="#E05862"></path>
                        <path d="M70.058,16.2753989 C68.737,13.7993989 66.841,11.7653989 63.682,10.7653989 C58.278,9.05539891 52.908,11.3783989 53.146,17.4353989 C52.245,13.8333989 51.24,10.1303989 49.26,6.95139891 C39.203,-9.19060109 13.24,5.78339891 26.634,21.3803989 C22.908,19.0153989 19.284,15.7253989 14.538,17.6583989 C10.16,19.4403989 9.445,24.4793989 10.557,28.6553989 C11.402,31.8273989 13.048,33.6873989 14.913,36.2503989 C19.687,42.8123989 18.96,47.5753989 17.623,55.1343989 C17.07,58.2613989 16.068,63.4063989 19.083,65.5843989 C21.869,60.2263989 19.582,54.1703989 22.437,48.6623989 C27.561,38.7773989 37.245,35.5093989 47.725,35.2083989 C58.669,34.8943989 71.919,35.2413989 79.897,44.0373989 C81.459,45.7593989 82.135,47.9543989 84.509,48.7913989 C85.286,49.0643989 81.623,40.9203989 81.37,40.4033989 C79.32,36.2103989 76.598,32.3733989 74.584,28.1803989 C72.741,24.3443989 72.056,20.0233989 70.058,16.2753989" id="Fill-39" fill="#EA8743"></path>
                        <path d="M54.795,122.870399 C49.872,122.223399 44.808,121.399399 40.41,122.348399 C35.301,123.450399 35.786,126.880399 35.586,131.444399 C35.34,137.060399 34.674,142.656399 34.676,148.282399 C34.679,153.349399 35.997,158.767399 36.666,163.847399 C37.384,169.296399 46.863,169.136399 47.268,163.505399 C47.557,159.478399 46.959,155.267399 46.834,151.249399 C46.77,149.163399 46.825,147.074399 47.109,145.005399 C47.198,144.345399 48.059,138.805399 48.667,138.795399 C49.163,138.788399 49.654,138.782399 50.152,138.829399 C50.439,145.021399 51.766,151.163399 51.76,157.362399 C51.756,161.979399 50.485,168.487399 57.359,167.706399 C60.403,167.360399 61.733,166.781399 61.948,163.613399 C62.591,154.198399 65.289,144.523399 63.851,135.067399 C63.26,131.183399 62.494,127.391399 62.224,123.460399 C59.861,123.492399 57.347,123.205399 54.795,122.870399" id="Fill-10" fill="#415D5E"></path>
                        <path d="M59.105,97.9253989 C63.244,112.106399 62.652,127.918399 63.829,131.225399 C64,131.707399 64.671,132.587399 64.75,133.003399 C65.302,135.894399 62.294,135.151399 60.048,135.260399 C53.797,135.565399 46.999,137.190399 40.779,136.183399 C39.239,135.933399 35.245,135.320399 34.5,133.747399 C34.111,132.923399 34.685,132.725399 34.756,131.961399 C34.881,130.634399 35.236,129.311399 35.405,127.984399 C36.249,121.384399 36.179,114.668399 37.196,108.071399 C37.89,103.574399 38.953,99.1253989 40.885,95.0783989 C42.866,90.9263989 45.393,88.8943989 49.993,88.8563989 C56.548,88.8003989 58.234,94.9413989 59.105,97.9253989" id="Fill-11" fill="#DC3C4A"></path>
                        <path d="M46.823,166.960399 C46.598,168.320399 44.958,168.846399 43.804,169.114399 C41.832,169.573399 37.832,169.473399 37.592,166.752399 C36.855,167.494399 36.344,168.497399 35.804,169.381399 C35.225,170.329399 34.656,171.285399 34.158,172.279399 C33.595,173.401399 33.025,174.416399 33.151,175.698399 C33.209,176.292399 33.069,177.101399 33.415,177.627399 C33.682,178.033399 34.495,178.378399 34.949,178.523399 C37.276,179.262399 39.71,179.373399 42.134,179.104399 C42.957,179.013399 43.865,179.110399 44.575,178.582399 C45.147,178.158399 45.598,177.658399 45.879,177.036399 C46.829,174.936399 48.23,171.776399 47.612,169.438399 C47.442,168.792399 47.486,167.323399 46.823,166.960399" id="Fill-12" fill="#DC3C49"></path>
                        <path d="M44.569,178.472399 C43.771,180.135399 41.736,179.739399 40.256,179.662399 C38.286,179.561399 36.186,179.886399 34.361,178.937399 C32.286,177.857399 34.051,175.453399 35.472,174.761399 C37.256,173.892399 39.759,173.952399 41.583,174.657399 C42.909,175.170399 45.392,176.762399 44.569,178.472399" id="Fill-13" fill="#FFFFFE"></path>
                        <path d="M33.171,177.111399 C33.171,177.111399 33.823,178.564399 38.218,178.731399 C42.612,178.898399 44.298,178.559399 45.061,177.773399 C46.114,176.687399 47.545,171.714399 47.754,170.041399 C47.754,170.041399 47.87,171.722399 47.697,172.540399 C47.526,173.357399 46.482,179.224399 44.904,179.839399 C43.326,180.455399 40.681,180.738399 38.276,180.513399 C35.869,180.288399 33.576,179.415399 33.267,178.689399 C32.957,177.962399 33.004,177.313399 33.171,177.111399" id="Fill-14" fill="#FFFFFE"></path>
                        <path d="M36.603,169.312399 C39.165,167.725399 43.071,169.545399 44.708,170.671399 C44.967,170.850399 44.339,171.956399 44.026,171.828399 C43.13,171.462399 41.831,171.111399 40.501,171.039399 C41.817,171.166399 43.032,171.443399 44.051,172.228399 C44.205,172.347399 43.816,173.012399 43.638,172.924399 C42.613,172.418399 41.52,172.224399 40.227,172.162399 C38.862,172.096399 37.448,172.409399 36.11,172.348399 C35.536,172.322399 36.32,171.165399 36.51,170.992399 C36.918,170.619399 37.385,170.345399 37.887,170.149399 C37.307,170.218399 36.765,170.379399 36.308,170.679399 C35.707,171.073399 36.124,169.608399 36.603,169.312399" id="Fill-15" fill="#FFFFFE"></path>
                        <path d="M51.934,166.769399 C52.098,168.138399 53.712,168.737399 54.853,169.057399 C56.802,169.603399 60.803,169.682399 61.164,166.974399 C61.868,167.749399 62.333,168.774399 62.833,169.681399 C63.369,170.654399 63.895,171.635399 64.348,172.649399 C64.861,173.795399 65.385,174.835399 65.201,176.110399 C65.116,176.701399 65.221,177.516399 64.851,178.026399 C64.567,178.419399 63.738,178.728399 63.278,178.852399 C60.921,179.487399 58.485,179.488399 56.074,179.111399 C55.257,178.983399 54.345,179.040399 53.658,178.481399 C53.107,178.031399 52.679,177.512399 52.426,176.878399 C51.571,174.737399 50.313,171.518399 51.034,169.210399 C51.234,168.572399 51.255,167.103399 51.934,166.769399" id="Fill-16" fill="#DC3C49"></path>
                        <path d="M53.669,178.371399 C54.394,180.068399 56.444,179.763399 57.926,179.753399 C59.898,179.739399 61.982,180.158399 63.848,179.292399 C65.968,178.306399 64.314,175.825399 62.925,175.070399 C61.182,174.122399 58.677,174.071399 56.824,174.693399 C55.476,175.146399 52.925,176.626399 53.669,178.371399" id="Fill-17" fill="#FFFFFE"></path>
                        <path d="M65.117,177.521399 C65.117,177.521399 64.402,178.943399 60.004,178.914399 C55.607,178.884399 53.937,178.470399 53.21,177.650399 C52.206,176.518399 51,171.487399 50.865,169.806399 C50.865,169.806399 50.674,171.480399 50.81,172.304399 C50.945,173.129399 51.726,179.037399 53.275,179.722399 C54.822,180.407399 57.453,180.809399 59.866,180.691399 C62.279,180.574399 64.611,179.804399 64.952,179.093399 C65.294,178.381399 65.276,177.731399 65.117,177.521399" id="Fill-18" fill="#FFFFFE"></path>
                        <path d="M61.717,169.589399 C61.323,169.222399 60.775,168.980399 60.277,168.893399 C58.812,168.637399 57.028,169.070399 55.673,169.607399 C54.946,169.896399 54.196,170.218399 53.509,170.592399 C53.199,170.762399 53.406,171.915399 53.75,171.800399 C54.734,171.470399 56.095,171.175399 57.387,171.165399 C56.089,171.231399 54.832,171.456399 53.584,172.205399 C53.396,172.318399 53.53,173.012399 53.731,172.932399 C54.958,172.437399 56.345,172.290399 57.646,172.158399 C59.163,172.004399 60.69,171.874399 62.211,172.057399 C62.969,172.148399 62.721,171.531399 62.166,171.400399 C61.817,171.317399 61.591,171.278399 61.352,170.980399 L62.102,170.644399 C62.259,170.425399 62.174,170.201399 62.046,169.988399 C61.957,169.843399 61.846,169.710399 61.717,169.589399" id="Fill-19" fill="#FFFFFE"></path>
                        <path d="M38.573,164.588399 C40.129,165.101399 41.904,165.334399 43.442,165.158399 C44.117,165.081399 44.872,164.928399 45.493,164.649399 C46.041,164.404399 46.427,163.824399 46.95,163.609399 C47.583,163.350399 47.78,163.734399 47.808,164.304399 C47.822,164.625399 47.626,164.897399 47.627,165.203399 C47.63,165.588399 47.883,165.921399 47.872,166.307399 C47.856,166.898399 46.642,168.228399 46.193,168.556399 C44.802,169.574399 42.798,169.871399 41.127,169.586399 C39.348,169.283399 36.807,168.981399 36.523,166.822399 C36.437,166.167399 35.511,164.244399 36.402,163.838399 C36.834,163.641399 37.045,163.966399 37.401,164.130399 C37.772,164.300399 38.164,164.454399 38.573,164.588399" id="Fill-20" fill="#4C7576"></path>
                        <path d="M60.327,165.075399 C58.75,165.517399 56.966,165.670399 55.438,165.427399 C54.766,165.319399 54.02,165.132399 53.411,164.826399 C52.875,164.557399 52.516,163.960399 52.002,163.723399 C51.382,163.435399 51.167,163.810399 51.114,164.378399 C51.085,164.698399 51.27,164.978399 51.254,165.284399 C51.235,165.669399 50.967,165.990399 50.96,166.376399 C50.95,166.967399 52.104,168.350399 52.537,168.698399 C53.882,169.777399 55.87,170.164399 57.552,169.954399 C59.344,169.731399 61.896,169.542399 62.276,167.398399 C62.392,166.748399 63.403,164.868399 62.529,164.422399 C62.108,164.207399 61.881,164.522399 61.519,164.669399 C61.142,164.823399 60.741,164.959399 60.327,165.075399" id="Fill-21" fill="#4C7576"></path>
                        <path d="M12.228,61.5473989 C15.111,57.4893989 19.683,59.5943989 21.872,63.0223989 C23.512,65.5903989 24.132,71.0683989 20.495,72.3173989 C18.224,73.0983989 14.904,71.5803989 13.363,69.9083989 C11.302,67.6713989 10.318,64.2383989 12.228,61.5473989" id="Fill-22" fill="#EEA18F"></path>
                        <path d="M89.804,64.6763989 C87.257,60.3983989 82.53,62.1283989 80.072,65.3693989 C78.232,67.7973989 77.172,73.2073989 80.695,74.7453989 C82.898,75.7063989 86.327,74.4603989 87.998,72.9183989 C90.234,70.8553989 91.491,67.5113989 89.804,64.6763989" id="Fill-23" fill="#EEA18F"></path>
                        <path d="M83.25,34.1183989 C79.76,26.6283989 69.788,25.1733989 62.452,24.1923989 C50.565,22.6033989 39.433,21.3603989 28.15,26.9563989 C14.626,33.6653989 20.374,54.6863989 19.893,66.6243989 C19.447,77.6763989 27.963,81.5243989 35.087,83.2883989 C42.211,85.0513989 46.909,86.3323989 46.437,88.8963989 C45.964,91.4593989 43.758,98.5873989 49.468,98.8173989 L49.639,98.8223989 L49.809,98.8313989 C55.519,99.0613989 54.136,91.6893989 53.409,89.0513989 C52.717,86.5383989 58.025,85.6893989 65.268,84.5053989 C71.946,83.4133989 79.71,79.9203989 81.524,72.6733989 C82.491,69.8183989 82.779,62.7033989 82.779,62.7033989 C83.452,54.4013989 86.624,42.9253989 83.605,34.9593989 C83.495,34.6703989 83.377,34.3913989 83.25,34.1183989" id="Fill-24" fill="#F4C5B5"></path>
                        <path d="M52.319,69.3233989 C51.864,69.5433989 51.37,69.7073989 50.855,69.7103989 C50.287,69.7123989 49.806,69.4703989 49.303,69.2423989 C48.673,68.9573989 47.844,68.5353989 48.391,67.7093989 C48.716,67.2183989 49.339,67.3583989 49.814,67.5043989 C50.339,67.6663989 50.994,67.8693989 51.544,67.7663989 C52.09,67.6633989 52.621,67.3093989 53.182,67.2953989 C53.903,67.2793989 53.969,68.2443989 53.584,68.6703989 C53.263,69.0283989 52.77,69.1013989 52.358,69.3043989 L52.319,69.3233989" id="Fill-25" fill="#CA978A"></path>
                        <g id="Group-28" transform="translate(22.340000, 61.481399)">
                            <mask id="mask-2" fill="white">
                                <use xlink:href="#path-1"></use>
                            </mask>
                            <g id="Clip-27"></g>
                            <polygon id="Fill-26" fill="#EA918A" mask="url(#mask-2)" points="-0.5 11.033 17.406 11.033 17.406 0.476 -0.5 0.476"></polygon>
                        </g>
                        <path d="M72.297,74.1473989 C71.721,74.1473989 71.162,74.1013989 70.63,74.0123989 C70.6,74.0123989 70.569,74.0133989 70.539,74.0133989 C66.994,74.0133989 64.193,72.6843989 63.837,70.6063989 C63.478,68.5103989 65.716,66.3053989 69.106,65.1303989 C70.077,64.5933989 71.214,64.1863989 72.459,63.9733989 C73.105,63.8623989 73.74,63.8093989 74.355,63.8093989 C77.683,63.8093989 80.409,65.3603989 80.81,67.6933989 C81.284,70.4593989 78.315,73.2753989 74.178,73.9853989 C73.537,74.0953989 72.907,74.1473989 72.297,74.1473989" id="Fill-29" fill="#EA918A"></path>
                        <path d="M33.67,65.2193989 C36.414,65.5233989 36.904,60.5493989 34.371,59.8973989 C30.969,59.0203989 30.95,64.9193989 33.67,65.2193989" id="Fill-30" fill="#0A090B"></path>
                        <path d="M68.159,66.6233989 C70.91,66.8623989 71.282,61.8793989 68.736,61.2863989 C65.313,60.4893989 65.434,66.3873989 68.159,66.6233989" id="Fill-31" fill="#0A090B"></path>
                        <path d="M50.815,77.1103989 C49.109,77.0363989 46.429,76.5133989 45.283,75.0743989 C44.263,73.7913989 44.608,72.9263989 46.336,72.8373989 C48.814,72.7103989 50.766,74.4753989 53.427,74.0983989 C54.39,73.9613989 56.374,73.3783989 56.007,75.0493989 C55.637,76.7343989 52.154,77.1503989 50.815,77.1103989" id="Fill-32" fill="#E57B7D"></path>
                        <path d="M53.026,74.1363989 C53.13,74.1933989 53.236,74.2453989 53.338,74.3093989 C53.778,74.7683989 54.209,75.5443989 54.639,76.4123989 C53.404,76.9733989 51.672,77.1363989 50.815,77.1103989 C49.136,77.0383989 46.521,76.5243989 45.347,75.1373989 C46.493,74.1283989 47.884,73.5333989 49.299,73.3893989 C50.482,73.7843989 51.665,74.2253989 53.026,74.1363989" id="Fill-33" fill="#BF565D"></path>
                        <path d="M55.029,75.1063989 C54.003,75.3663989 46.638,74.9803989 45.846,74.0843989 C45.558,73.7583989 45.53,73.3453989 45.61,72.9503989 C45.819,72.8953989 46.052,72.8523989 46.336,72.8373989 C48.814,72.7103989 50.766,74.4753989 53.427,74.0983989 C54.029,74.0123989 55.032,73.7523989 55.609,73.9793989 C55.638,74.4633989 55.539,74.9763989 55.029,75.1063989" id="Fill-34" fill="#FFFFFE"></path>
                        <path d="M36.21,48.4373989 C36.304,43.9753989 30.533,47.1143989 29.58,49.4683989 C30.021,49.2633989 36.229,47.5413989 36.21,48.4373989" id="Fill-35" fill="#EA8743"></path>
                        <path d="M65.655,50.1863989 C64.248,45.9503989 70.688,47.2473989 72.294,49.2153989 C71.813,49.1493989 65.373,49.3363989 65.655,50.1863989" id="Fill-36" fill="#EA8743"></path>
                        <path d="M22.256,43.9133989 C22.559,43.2383989 22.9,42.5553989 23.272,41.8473989 C29.146,30.6523989 43.987,29.8833989 55.403,30.0073989 C61.888,30.0783989 67.039,30.7843989 72.881,33.2093989 C66.166,37.6563989 75.506,43.6973989 79.974,43.6823989 C79.505,48.8703989 79.823,53.6073989 82.052,58.4673989 C80.348,59.9783989 78.268,66.0563989 81.717,63.3643989 C81.718,63.2023989 81.714,63.1983989 81.705,63.3523989 C81.45,64.1093989 81.625,64.9403989 81.474,65.7003989 C87.912,63.9693989 86.762,43.6943989 85.988,39.1103989 C82.341,17.4943989 54.296,16.9053989 37.485,20.3383989 C28.795,22.1133989 21.613,27.0923989 19.325,36.0543989 C18.301,40.0673989 18.349,44.3513989 18.372,48.4523989 C18.385,50.6833989 17.09,63.9803989 21.075,64.5163989 C23.66,64.8643989 22.548,60.7343989 21.266,59.8803989 C25.177,58.5003989 21.703,54.9243989 21.178,52.4403989 C20.481,49.1383989 21.053,46.6013989 22.256,43.9133989" id="Fill-37" fill="#EA8743"></path>
                        <path d="M85.068,37.5563989 C80.91,35.9663989 78.745,32.2683989 78.182,28.0513989 C77.973,26.4833989 77.521,19.6033989 80.934,21.4093989 C83.048,22.5273989 82.306,27.0053989 83.337,28.7403989 C85.744,26.4393989 88.026,29.7013989 86.266,31.8033989 C91.149,33.6253989 91.01,39.8303989 85.068,37.5563989" id="Fill-38" fill="#EA8743"></path>
                    </g>
                </g>
            </g>
        </g>
    </g>
</svg>