<?xml version="1.0" encoding="UTF-8"?>
<svg width="104px" height="168px" viewBox="0 0 104 168" version="1.1" xmlns="http://www.w3.org/2000/svg" xmlns:xlink="http://www.w3.org/1999/xlink">
    <!-- Generator: Sketch 54.1 (76490) - https://sketchapp.com -->
    <title>Girl</title>
    <desc>Created with Sketch.</desc>
    <g id="Main" stroke="none" stroke-width="1" fill="none" fill-rule="evenodd">
        <g id="LeGrandePlaneteVerte_Main02" transform="translate(-580.000000, -341.000000)">
            <g id="Content" transform="translate(-108.000000, 118.000000)">
                <g id="01" transform="translate(581.000000, 146.000000)">
                    <g id="Girl" transform="translate(107.000000, 77.000000)">
                        <path d="M52.0483753,167.571534 C24.9483753,167.571534 2.98137527,164.916534 2.98137527,161.641534 C2.98137527,158.365534 24.9483753,155.710534 52.0483753,155.710534 C79.1473753,155.710534 101.115375,158.365534 101.115375,161.641534 C101.115375,164.916534 79.1473753,167.571534 52.0483753,167.571534" id="Fill-183" fill="#E7EEE8"></path>
                        <path d="M94.6403753,75.5895343 C93.5173753,70.7265343 92.3003753,65.8185343 90.8293753,61.0505343 C89.5523753,56.9115343 90.1733753,54.2725343 90.9413753,49.9725343 C92.7113753,40.0445343 92.0533753,29.8395343 88.4323753,20.4255343 C85.0933753,11.7425343 82.6573753,8.3975343 74.1913753,4.1545343 C55.5093753,-5.2094657 23.4163753,1.4305343 15.2343753,22.3075343 C11.5843753,31.6225343 14.9073753,41.6605343 15.8683753,51.1895343 C16.8043753,60.4795343 16.3473753,70.3835343 14.0063753,79.4435343 C12.1433753,86.6515343 10.3423753,94.5615343 17.7933753,99.3195343 C21.0053753,101.370534 24.2023753,102.409534 27.5053753,99.7875343 C29.9293753,106.724534 38.0023753,102.223534 41.3503753,98.5375343 C43.6563753,100.722534 46.5773753,103.575534 49.8153753,103.997534 C51.7973753,104.255534 53.2473753,103.471534 54.5563753,102.687534 C55.6983753,102.003534 56.7333753,101.319534 57.9213753,101.328534 C60.5403753,101.346534 62.2533753,104.311534 65.6143753,103.835534 C68.2693753,103.459534 71.3953753,100.351534 73.4003753,98.7905343 C77.4083753,104.010534 84.5293753,101.050534 87.6203753,96.4995343 C98.3503753,98.8775343 97.3703753,87.4065343 94.6403753,75.5895343" id="Fill-184" fill="#00A395"></path>
                        <path d="M87.3893753,92.5705343 C91.9563753,89.6505343 87.2253753,84.1615343 87.0253753,80.5245343 C84.0323753,85.7285343 81.2683753,90.7065343 84.1773753,96.6365343 C77.5973753,95.4505343 76.7583753,86.1285343 76.5723753,80.6735343 C74.0593753,82.4725343 71.9753753,87.6835343 73.9963753,90.8795343 C70.1703753,86.0795343 67.6973753,82.4245343 68.4283753,75.8405343 C69.1543753,69.9385343 70.5543753,64.9505343 70.6003753,58.8155343 C74.8723753,64.9825343 78.0173753,69.7775343 80.2343753,77.0655343 C83.0153753,69.8155343 79.8843753,63.2025343 80.6203753,55.9365343 C82.6463753,58.4515343 84.4353753,62.3275343 85.3183753,65.7425343 C85.3413753,62.7895343 85.3643753,59.6075343 85.8393753,56.8845343 C85.5383753,58.6115343 99.8723753,97.9765343 87.3893753,92.5705343" id="Fill-185" fill="#00A49D"></path>
                        <path d="M23.5273753,94.3635343 C16.9083753,95.4805343 17.2973753,85.8495343 18.0213753,81.8325343 C19.5373753,73.4255343 24.6473753,66.0785343 24.7133753,57.3355343 C25.1233753,63.2465343 26.8953753,69.3945343 27.0763753,75.5315343 C30.4823753,75.7835343 31.6533753,71.2485343 33.4873753,68.9895343 C34.1243753,74.9025343 26.0123753,96.2005343 38.0523753,96.5175343 C33.6673753,105.573534 25.8343753,89.6095343 25.1803753,85.9695343 C23.1213753,87.7715343 22.8633753,91.8595343 24.6643753,94.1455343 C20.7933753,95.2525343 17.4143753,91.3645343 17.2143753,87.7275343 L23.5273753,94.3635343" id="Fill-186" fill="#00A49D"></path>
                        <path d="M11.2923753,47.7935343 C14.2883753,43.4395343 19.1753753,45.6025343 21.5533753,49.2065343 C23.3343753,51.9075343 24.0793753,57.7125343 20.2393753,59.0955343 C17.8403753,59.9595343 14.2933753,58.4015343 12.6303753,56.6505343 C10.4063753,54.3095343 9.30737527,50.6795343 11.2923753,47.7935343" id="Fill-187" fill="#F2B69C"></path>
                        <path d="M93.6923753,49.8895343 C90.9223753,45.3885343 85.9303753,47.2995343 83.3733753,50.7785343 C81.4573753,53.3855343 80.4173753,59.1455343 84.1823753,60.7215343 C86.5353753,61.7065343 90.1563753,60.3315343 91.9063753,58.6665343 C94.2463753,56.4415343 95.5283753,52.8725343 93.6923753,49.8895343" id="Fill-188" fill="#F2B69C"></path>
                        <path d="M86.2533753,17.5555343 C82.4283753,9.6585343 71.8213753,8.2715343 64.0173753,7.3465343 C51.3743753,5.8475343 39.5363753,4.7045343 27.6493753,10.8225343 C13.3983753,18.1575343 19.8323753,40.3815343 19.5093753,53.0615343 C19.2113753,64.8005343 28.3123753,68.7515343 35.9023753,70.5105343 C43.4923753,72.2695343 48.5003753,73.5555343 48.0393753,76.2845343 C47.5783753,79.0135343 45.3483753,86.6155343 51.4133753,86.7695343 L51.5943753,86.7715343 L51.7753753,86.7785343 C57.8413753,86.9325343 56.2563753,79.1285343 55.4433753,76.3395343 C54.6693753,73.6825343 60.2893753,72.6975343 67.9593753,71.3265343 C75.0313753,70.0615343 83.2173753,66.2305343 85.0283753,58.5095343 C86.0103753,55.4635343 86.2033753,47.9065343 86.2033753,47.9065343 C86.7883753,39.0825343 89.9723753,26.8505343 86.6423753,18.4415343 C86.5213753,18.1375343 86.3913753,17.8415343 86.2533753,17.5555343" id="Fill-189" fill="#F5C7B6"></path>
                        <path d="M53.7013753,54.9885343 C53.2213753,55.2295343 52.7003753,55.4115343 52.1533753,55.4225343 C51.5493753,55.4355343 51.0363753,55.1855343 50.4983753,54.9515343 C49.8243753,54.6585343 48.9383753,54.2235343 49.5063753,53.3385343 C49.8423753,52.8115343 50.5073753,52.9515343 51.0123753,53.0985343 C51.5733753,53.2615343 52.2723753,53.4675343 52.8543753,53.3485343 C53.4313753,53.2305343 53.9903753,52.8465343 54.5853753,52.8235343 C55.3493753,52.7945343 55.4353753,53.8185343 55.0343753,54.2765343 C54.6983753,54.6615343 54.1763753,54.7465343 53.7413753,54.9685343 L53.7013753,54.9885343" id="Fill-190" fill="#D79D89"></path>
                        <path d="M31.5933753,59.1155343 C30.7223753,59.1155343 29.8083753,59.0115343 28.8823753,58.7895343 C24.5483753,57.7485343 21.5993753,54.5575343 22.2953753,51.6605343 C22.8413753,49.3865343 25.4713753,47.9715343 28.6733753,47.9715343 C29.5493753,47.9715343 30.4693753,48.0775343 31.4013753,48.3015343 C32.7053753,48.6145343 33.8803753,49.1245343 34.8723753,49.7615343 C38.3813753,51.2425343 40.5993753,53.7345343 40.0723753,55.9295343 C39.5943753,57.9195343 36.9973753,59.1025343 33.6863753,59.1025343 C33.3443753,59.1025343 32.9943753,59.0905343 32.6383753,59.0645343 C32.2983753,59.0985343 31.9493753,59.1155343 31.5933753,59.1155343" id="Fill-191" fill="#ED9F97"></path>
                        <path d="M75.0903753,60.2215343 C74.5373753,60.2215343 74.0003753,60.1815343 73.4863753,60.1035343 C73.3793753,60.1055343 73.2743753,60.1065343 73.1693753,60.1065343 C69.5093753,60.1065343 66.6243753,58.7515343 66.2203753,56.5945343 C65.8063753,54.3755343 68.1473753,51.9985343 71.7273753,50.6985343 C72.7513753,50.1135343 73.9503753,49.6635343 75.2683753,49.4165343 C76.0103753,49.2785343 76.7423753,49.2115343 77.4473753,49.2115343 C80.9043753,49.2115343 83.7373753,50.8035343 84.1923753,53.2345343 C84.7393753,56.1625343 81.6323753,59.1995343 77.2513753,60.0195343 C76.5143753,60.1565343 75.7903753,60.2215343 75.0903753,60.2215343" id="Fill-192" fill="#ED9F97"></path>
                        <path d="M33.0873753,51.3075343 C35.9523753,51.9275343 37.0123753,46.7285343 34.4083753,45.7635343 C30.9113753,44.4655343 30.2483753,50.6935343 33.0873753,51.3075343" id="Fill-193" fill="#0A090B"></path>
                        <path d="M70.6843753,52.2955343 C73.6023753,52.5685343 74.0343753,47.2815343 71.3343753,46.6335343 C67.7073753,45.7625343 67.7923753,52.0245343 70.6843753,52.2955343" id="Fill-194" fill="#0A090B"></path>
                        <path d="M43.1383753,56.0625343 C44.9053753,62.5395343 53.1843753,62.3615343 58.2213753,60.2855343 C58.7233753,60.0795343 58.5323753,58.4215343 57.9803753,58.6845343 C54.8053753,60.1935343 52.4683753,60.8185343 49.0413753,59.7335343 C46.6883753,58.9885343 44.6773753,57.8575343 43.3513753,55.6885343 C43.1723753,55.3955343 43.1043753,55.9395343 43.1383753,56.0625343" id="Fill-195" fill="#BB5A6C"></path>
                        <path d="M29.8023753,35.5735343 C39.3453753,31.4005343 49.1803753,33.0645343 59.3363753,30.3615343 C65.9673753,28.5975343 72.0123753,28.0505343 75.2153753,20.7575343 C73.0563753,25.6725343 77.5383753,31.8505343 80.0063753,35.6485343 C83.7823753,41.4585343 83.3203753,45.1955343 84.5153753,51.6815343 C84.8263753,51.0115343 85.5223753,50.2165343 85.8493753,49.4495343 C85.7533753,50.2605343 85.8273753,51.2445343 85.6993753,52.0425343 C88.8343753,41.7455343 91.2553753,33.7645343 89.2383753,22.8115343 C85.0243753,-0.0774656965 55.2453753,-0.260465696 37.4533753,3.6495343 C19.2163753,7.6575343 9.27537527,28.9685343 17.9653753,45.5595343 C20.6123753,42.9675343 22.6503753,39.6575343 26.0643753,37.5375343 C27.3053753,36.7675343 28.5513753,36.1205343 29.8023753,35.5735343" id="Fill-196" fill="#00A395"></path>
                        <path d="M47.5243753,75.7905343 C52.5593753,75.2605343 56.2513753,75.8825343 56.2513753,75.8825343 L57.1343753,76.8485343 L56.4733753,80.2925343 L54.2373753,82.3775343 L48.5433753,82.2255343 C48.5433753,82.2255343 46.8153753,78.7685343 46.8153753,78.5145343 C46.8153753,78.2595343 47.5243753,75.7905343 47.5243753,75.7905343" id="Fill-197" fill="#F5C7B6"></path>
                        <path d="M49.4413753,123.019534 C48.4513753,120.145534 45.5463753,117.191534 42.5523753,119.227534 C38.6833753,121.856534 39.3683753,131.829534 39.5363753,136.000534 C39.6673753,139.268534 40.2733753,142.620534 40.7113753,145.874534 C41.0553753,148.433534 40.3103753,152.759534 41.8363753,154.973534 C43.0593753,156.747534 46.5243753,157.343534 48.2003753,155.873534 C50.2273753,154.096534 49.6913753,151.311534 49.5073753,148.988534 C49.1543753,144.556534 48.7943753,140.056534 49.1293753,135.301534 C49.4173753,131.210534 50.8703753,127.170534 49.4413753,123.019534" id="Fill-198" fill="#F5C7B6"></path>
                        <path d="M54.9223753,135.901534 C54.8953753,133.104534 54.3793753,130.396534 54.0813753,127.577534 C53.8053753,124.960534 54.4463753,122.734534 56.3793753,120.778534 C57.8703753,119.268534 60.7523753,117.946534 62.7923753,119.378534 C65.1473753,121.032534 65.1093753,124.754534 65.0713753,127.304534 C65.0243753,130.480534 65.2433753,133.477534 65.0683753,136.650534 C64.8503753,140.618534 64.1523753,144.387534 63.9043753,148.367534 C63.7893753,150.225534 64.4293753,153.186534 63.3263753,154.816534 C62.0413753,156.718534 58.3033753,157.480534 56.5953753,155.936534 C55.0913753,154.579534 55.5623753,152.512534 55.4833753,150.649534 C55.2793753,145.788534 54.9683753,140.719534 54.9223753,135.901534" id="Fill-199" fill="#F5C7B6"></path>
                        <path d="M41.3923753,150.707534 L41.5833753,150.860534 C42.2523753,151.366534 42.7403753,151.519534 43.5943753,151.615534 C45.0203753,151.776534 46.5143753,151.477534 47.8183753,150.893534 C48.4833753,150.595534 50.6683753,148.823534 50.2953753,150.751534 C50.1793753,151.346534 49.7733753,151.841534 49.6173753,152.422534 C49.4483753,153.053534 49.6333753,153.331534 49.0063753,153.752534 C48.0763753,154.375534 46.9763753,155.010534 45.8743753,155.225534 C44.5103753,155.491534 42.0433753,155.404534 40.9923753,154.311534 C40.3523753,153.644534 40.6813753,152.703534 40.5423753,151.938534 C40.4483753,151.423534 39.4113753,150.813534 39.9323753,150.256534 C40.3143753,149.850534 40.9863753,150.378534 41.3923753,150.707534" id="Fill-200" fill="#FFFFFE"></path>
                        <path d="M49.7763753,151.919534 C49.5703753,153.283534 47.9393753,153.833534 46.7893753,154.119534 C44.8243753,154.606534 40.8233753,154.566534 40.5433753,151.849534 C39.8163753,152.602534 39.3203753,153.613534 38.7943753,154.505534 C38.2293753,155.461534 37.6753753,156.425534 37.1913753,157.426534 C36.6453753,158.557534 36.0903753,159.580534 36.2353753,160.860534 C36.3023753,161.453534 36.1743753,162.264534 36.5283753,162.786534 C36.8003753,163.187534 37.6193753,163.520534 38.0763753,163.658534 C40.4123753,164.363534 42.8483753,164.437534 45.2683753,164.132534 C46.0893753,164.029534 46.9993753,164.112534 47.7023753,163.574534 C48.2663753,163.141534 48.7103753,162.635534 48.9823753,162.009534 C49.9003753,159.895534 51.2543753,156.715534 50.6013753,154.386534 C50.4223753,153.742534 50.4443753,152.273534 49.7763753,151.919534" id="Fill-201" fill="#ED9A3A"></path>
                        <path d="M36.2783753,162.003534 C36.2783753,162.003534 36.9523753,163.376534 41.3483753,163.475534 C45.7453753,163.572534 47.4253753,163.227534 48.1763753,162.469534 C49.2143753,161.420534 50.5683753,156.671534 50.7523753,155.076534 C50.7523753,155.076534 50.8933753,156.673534 50.7333753,157.454534 C50.5733753,158.234534 49.6193753,163.830534 48.0513753,164.436534 C46.4833753,165.044534 43.8423753,165.350534 41.4333753,165.169534 C39.0253753,164.988534 36.7183753,164.189534 36.3973753,163.502534 C36.0763753,162.816534 36.1133753,162.197534 36.2783753,162.003534" id="Fill-202" fill="#FFFFFE"></path>
                        <path d="M63.3673753,150.873534 L63.1743753,151.022534 C62.4983753,151.518534 62.0073753,151.663534 61.1523753,151.747534 C59.7233753,151.886534 58.2343753,151.565534 56.9393753,150.961534 C56.2783753,150.653534 54.1213753,148.849534 54.4653753,150.783534 C54.5713753,151.379534 54.9703753,151.880534 55.1173753,152.463534 C55.2763753,153.097534 55.0883753,153.372534 55.7093753,153.802534 C56.6303753,154.439534 57.7183753,155.091534 58.8183753,155.322534 C60.1773753,155.608534 62.6463753,155.559534 63.7133753,154.481534 C64.3633753,153.824534 64.0483753,152.878534 64.1993753,152.115534 C64.3003753,151.602534 65.3463753,151.008534 64.8343753,150.442534 C64.4583753,150.031534 63.7783753,150.549534 63.3673753,150.873534" id="Fill-203" fill="#FFFFFE"></path>
                        <path d="M54.9663753,152.047534 C55.1513753,153.414534 56.7743753,153.989534 57.9193753,154.291534 C59.8773753,154.809534 63.8783753,154.828534 64.1993753,152.115534 C64.9153753,152.879534 65.3943753,153.897534 65.9083753,154.797534 C66.4593753,155.762534 66.9983753,156.735534 67.4663753,157.743534 C67.9963753,158.881534 68.5363753,159.913534 68.3713753,161.190534 C68.2953753,161.783534 68.4123753,162.595534 68.0493753,163.111534 C67.7713753,163.508534 66.9483753,163.830534 66.4893753,163.960534 C64.1413753,164.630534 61.7063753,164.668534 59.2903753,164.327534 C58.4703753,164.211534 57.5593753,164.281534 56.8653753,163.732534 C56.3063753,163.291534 55.8713753,162.778534 55.6083753,162.148534 C54.7223753,160.020534 53.4163753,156.820534 54.1033753,154.501534 C54.2933753,153.861534 54.2923753,152.392534 54.9663753,152.047534" id="Fill-204" fill="#ED9A3A"></path>
                        <path d="M68.3113753,162.243534 C68.3113753,162.243534 67.6173753,163.606534 63.2193753,163.638534 C58.8223753,163.670534 57.1463753,163.300534 56.4073753,162.530534 C55.3853753,161.467534 54.1033753,156.697534 53.9443753,155.100534 C53.9443753,155.100534 53.7773753,156.695534 53.9253753,157.477534 C54.0743753,158.260534 54.9443753,163.870534 56.5033753,164.500534 C58.0613753,165.130534 60.6983753,165.476534 63.1093753,165.331534 C65.5203753,165.186534 67.8393753,164.422534 68.1703753,163.741534 C68.5013753,163.059534 68.4723753,162.440534 68.3113753,162.243534" id="Fill-205" fill="#FFFFFE"></path>
                        <path d="M39.7823753,155.590534 C39.4523753,155.749534 39.5293753,157.136534 39.8873753,157.045534 C40.9123753,156.785534 42.3133753,156.615534 43.6123753,156.772534 C42.3003753,156.681534 41.0133753,156.782534 39.6743753,157.501534 C39.4713753,157.611534 39.5283753,158.447534 39.7393753,158.378534 C40.9533753,157.979534 42.0843753,157.954534 43.3433753,158.115534 C44.6733753,158.285534 45.8703753,158.900534 47.1733753,159.072534 C47.7303753,159.144534 47.5293753,157.671534 47.4303753,157.438534 C47.2173753,156.935534 46.9033753,156.534534 46.5173753,156.218534 C47.0383753,156.402534 47.4773753,156.686534 47.7703753,157.113534 C48.1563753,157.675534 48.4493753,155.913534 48.1333753,155.485534 C46.4443753,153.195534 41.8703753,154.587534 39.7823753,155.590534" id="Fill-206" fill="#FFFFFE"></path>
                        <path d="M64.9623753,157.689534 C63.6873753,156.981534 62.4513753,156.841534 61.1933753,156.893534 C62.4703753,156.777534 63.8263753,156.966534 64.8143753,157.232534 C65.1613753,157.326534 65.1983753,155.938534 64.8683753,155.774534 C62.7813753,154.732534 58.2423753,153.291534 56.5143753,155.558534 C56.1943753,155.979534 56.5283753,157.745534 56.9333753,157.172534 C57.2163753,156.772534 57.6273753,156.502534 58.1133753,156.326534 C57.7303753,156.636534 57.4143753,157.029534 57.1953753,157.525534 C57.0843753,157.778534 56.9573753,159.213534 57.5083753,159.149534 C58.6303753,159.019534 59.6713753,158.495534 60.8013753,158.322534 C62.2123753,158.106534 63.5103753,158.078534 64.8773753,158.552534 C65.1673753,158.652534 65.1753753,157.808534 64.9623753,157.689534" id="Fill-207" fill="#FFFFFE"></path>
                        <path d="M44.7283753,77.0925343 C46.2883753,79.7175343 46.1603753,83.6725343 44.8353753,86.3175343 C44.3253753,87.3255343 43.3213753,89.1835343 42.0003753,89.2565343 C39.5703753,89.3915343 40.4643753,85.6375343 40.8343753,83.6145343 C41.2053753,81.5925343 43.7993753,75.5285343 44.7283753,77.0925343" id="Fill-208" fill="#F5C7B6"></path>
                        <path d="M59.0503753,77.1715343 C57.4523753,79.7725343 57.3473753,84.1185343 58.6323753,86.7825343 C59.1273753,87.7975343 60.0993753,89.7535343 61.4233753,89.7645343 C63.8343753,89.7825343 63.0133753,86.1675343 62.6733753,84.1405343 C62.3333753,82.1125343 60.0033753,75.6215343 59.0503753,77.1715343" id="Fill-209" fill="#F5C7B6"></path>
                        <path d="M62.6953753,7.0075343 C54.2713753,4.2695343 44.2563753,5.9375343 36.2563753,9.2865343 C32.3413753,10.9245343 29.0283753,13.0875343 25.9223753,15.9575343 C24.1963753,17.5525343 22.4303753,19.2225343 21.0423753,21.1265343 C19.8533753,22.7585343 19.2903753,25.9785343 18.0173753,27.2695343 C21.3153753,23.9255343 27.6353753,21.1035343 32.3293753,21.1295343 C26.4913753,24.9785343 19.1263753,28.7545343 16.8263753,35.9465343 C19.6053753,33.0245343 23.9683753,30.4675343 27.9423753,29.7255343 C25.2103753,32.7155343 22.3153753,35.1855343 20.5973753,39.0925343 C24.7393753,35.9535343 28.8493753,33.6315343 33.7183753,31.7785343 C44.2303753,27.7775343 57.7273753,30.2915343 66.2013753,21.5645343 C60.2793753,23.3385343 54.6253753,19.8875343 48.7113753,20.7515343 C49.7273753,20.6035343 52.6393753,17.5005343 53.9263753,16.8665343 C56.0223753,15.8335343 58.3243753,15.2575343 60.4313753,14.2645343 C56.8883753,13.0325343 51.2123753,11.6725343 47.6583753,13.6655343 C51.5863753,9.9265343 57.4953753,6.9145343 62.6953753,7.0075343" id="Fill-210" fill="#00A49D"></path>
                        <path d="M19.6013753,48.0165343 C19.6013753,48.0165343 7.03337527,25.7495343 26.9303753,12.4675343 C46.8273753,-0.813465696 68.4423753,3.8705343 75.8723753,8.7085343 C83.3023753,13.5475343 91.7173753,23.3935343 87.2813753,49.0305343 C87.2813753,49.0305343 98.5743753,25.6975343 81.4663753,10.2355343 C64.3563753,-5.2264657 39.1623753,0.109534304 24.5143753,9.7345343 C9.86637527,19.3595343 11.6713753,38.5945343 19.6013753,48.0165343" id="Fill-211" fill="#EE9F39"></path>
                        <path d="M79.1883753,84.3615343 L79.0133753,84.2975343 C74.9393753,82.8055343 63.6663753,77.8445343 59.4493753,76.9345343 C59.4493753,76.9345343 57.3443753,83.1745343 60.3923753,84.5955343 C67.4283753,87.8745343 86.7533753,91.6015343 91.7603753,98.1885343 C92.4243753,99.0615343 93.0913753,100.169534 93.5963753,101.144534 C93.9773753,101.880534 93.8393753,103.654534 94.7263753,104.050534 C96.1833753,104.699534 96.5823753,102.184534 96.2983753,101.307534 C96.1033753,100.706534 95.6163753,100.019534 95.7263753,99.3545343 C95.8563753,98.5745343 96.7643753,98.8365343 97.3053753,98.8065343 C98.2643753,98.7545343 99.2073753,98.6995343 100.182375,98.7585343 C100.799375,98.7945343 101.484375,98.8705343 102.070375,98.6245343 C102.757375,98.3375343 102.813375,97.5245343 102.476375,96.9565343 C102.049375,96.2365343 101.282375,96.2725343 100.553375,96.3095343 C99.5883753,96.3585343 98.5473753,96.4565343 97.5873753,96.4295343 C98.8473753,96.2775343 100.174375,95.9395343 101.442375,95.9305343 C102.229375,95.9245343 103.064375,95.9485343 103.191375,94.9715343 C103.249375,94.5295343 103.178375,93.8215343 102.725375,93.5945343 C102.164375,93.3125343 101.216375,93.5555343 100.637375,93.6355343 C99.4303753,93.8035343 98.2333753,94.0435343 97.0373753,94.2765343 C97.8803753,94.1125343 98.8813753,93.7775343 99.6863753,93.4705343 C100.526375,93.1505343 102.070375,92.8495343 101.671375,91.5915343 C101.364375,90.6225343 100.519375,91.0615343 99.8233753,91.3635343 C98.9413753,91.7445343 97.8773753,92.1355343 97.0823753,92.6705343 C97.4983753,92.0845343 98.1283753,91.6755343 98.5293753,91.0915343 C99.5373753,89.6255343 97.7073753,89.4375343 96.9103753,90.5425343 C96.0413753,91.7485343 95.1303753,92.5435343 94.0603753,93.5775343 C93.0673753,92.5365343 92.0913753,91.6045343 90.9803753,90.6775343 C87.5803753,87.8405343 83.3093753,85.8825343 79.1883753,84.3615343" id="Fill-212" fill="#F5C7B6"></path>
                        <path d="M24.1723753,84.1265343 L24.3483753,84.0645343 C28.4443753,82.6335343 39.7903753,77.8425343 44.0213753,76.9965343 C44.0213753,76.9965343 46.0313753,83.2675343 42.9623753,84.6415343 C35.8783753,87.8155343 16.5003753,91.2515343 11.3943753,97.7635343 C10.7173753,98.6255343 10.0333753,99.7245343 9.51437527,100.691534 C9.12237527,101.421534 9.23437527,103.197534 8.34137527,103.579534 C6.87437527,104.207534 6.51437527,101.686534 6.81137527,100.813534 C7.01437527,100.215534 7.51137527,99.5355343 7.41137527,98.8695343 C7.29337527,98.0875343 6.38137527,98.3355343 5.84137527,98.2985343 C4.88237527,98.2315343 3.94137527,98.1625343 2.96437527,98.2065343 C2.34837527,98.2345343 1.66137527,98.2985343 1.07937527,98.0445343 C0.397375272,97.7475343 0.352375272,96.9345343 0.698375272,96.3705343 C1.13537527,95.6565343 1.90337527,95.7055343 2.63037527,95.7525343 C3.59537527,95.8155343 4.63437527,95.9295343 5.59437527,95.9175343 C4.33737527,95.7465343 3.01437527,95.3885343 1.74737527,95.3595343 C0.961375272,95.3425343 0.125375272,95.3535343 0.0133752716,94.3745343 C-0.0376247284,93.9325343 0.0433752716,93.2255343 0.499375272,93.0045343 C1.06537527,92.7315343 2.00937527,92.9885343 2.58637527,93.0775343 C3.79137527,93.2635343 4.98537527,93.5215343 6.17737527,93.7715343 C5.33637527,93.5955343 4.34137527,93.2465343 3.54037527,92.9275343 C2.70537527,92.5945343 1.16637527,92.2705343 1.58337527,91.0185343 C1.90537527,90.0545343 2.74337527,90.5055343 3.43537527,90.8175343 C4.31137527,91.2115343 5.36937527,91.6185343 6.15637527,92.1655343 C5.74937527,91.5745343 5.12537527,91.1555343 4.73337527,90.5655343 C3.74737527,89.0845343 5.57937527,88.9245343 6.36037527,90.0415343 C7.21137527,91.2585343 8.11037527,92.0685343 9.16337527,93.1175343 C10.1723753,92.0925343 11.1613753,91.1745343 12.2873753,90.2645343 C15.7293753,87.4785343 20.0283753,85.5845343 24.1723753,84.1265343" id="Fill-213" fill="#F5C7B6"></path>
                        <path d="M67.8923753,117.289534 C67.7363753,116.639534 67.5533753,115.993534 67.3223753,115.355534 C66.2533753,112.406534 65.6363753,108.989534 65.3453753,105.874534 C64.9643753,101.785534 64.2503753,97.7545343 63.7963753,93.6575343 C63.6943753,92.7415343 63.0403753,87.7785343 63.1013753,87.2225343 C62.4793753,87.6115343 61.3633753,87.8155343 60.7053753,87.1325343 C58.5523753,84.8995343 58.9543753,79.7355343 59.5963753,76.9725343 C58.6143753,76.6365343 57.2923753,75.7245343 56.2513753,75.8825343 C56.3523753,76.7495343 56.8903753,77.8725343 56.4713753,78.7255343 C56.2003753,79.2765343 55.6643753,79.6665343 55.1323753,79.9395343 C53.3693753,80.8435343 51.5933753,81.0895343 49.6463753,80.5915343 C47.3623753,80.0065343 47.1363753,78.0095343 47.5243753,75.7905343 C46.3613753,75.6855343 44.9453753,76.3945343 43.9793753,76.9905343 C46.1783753,79.6145343 45.3533753,85.3515343 42.8293753,87.4895343 C42.0733753,88.1295343 41.2813753,88.2825343 40.3703753,87.8505343 C40.6873753,88.0005343 39.7523753,97.8295343 39.7253753,98.7085343 C39.6023753,102.706534 39.3403753,106.706534 38.6033753,110.642534 C37.5543753,116.247534 38.1853753,122.439534 36.1033753,127.798534 C35.3653753,129.696534 34.5723753,131.206534 37.2003753,132.144534 C39.9173753,133.115534 43.2613753,131.778534 46.0473753,131.603534 C49.4063753,131.391534 52.7673753,131.257534 55.9373753,132.594534 C60.5973753,134.559534 65.1973753,131.794534 69.5633753,130.088534 C70.1473753,129.860534 70.7323753,129.635534 71.3173753,129.411534 C70.9603753,127.244534 69.9163753,125.341534 69.2473753,123.290534 C68.6033753,121.312534 68.3703753,119.280534 67.8923753,117.289534" id="Fill-214" fill="#213134"></path>
                        <path d="M37.8903753,32.3015343 C36.9173753,31.0425343 35.2683753,30.4005343 33.7233753,30.9375343 C32.3183753,31.4255343 31.2203753,32.7135343 31.2953753,34.2535343 C31.3073753,34.4915343 31.5613753,35.1685343 31.7993753,34.6675343 C32.4043753,33.3955343 32.8413753,32.5325343 34.3433753,32.2245343 C35.5533753,31.9755343 36.7573753,32.3435343 37.7473753,33.0275343 C38.0123753,33.2105343 37.9903753,32.4325343 37.8903753,32.3015343" id="Fill-215" fill="#0A090B"></path>
                        <path d="M68.2093753,33.7975343 C69.2263753,33.1795343 70.2443753,32.9835343 71.4223753,33.1255343 C72.9433753,33.3085343 73.5273753,34.3615343 74.0213753,35.6395343 C74.1963753,36.0925343 74.5073753,35.8975343 74.5503753,35.4885343 C74.9313753,31.8655343 70.1903753,30.5305343 68.0423753,33.0775343 C67.9263753,33.2135343 67.9323753,33.9655343 68.2093753,33.7975343" id="Fill-216" fill="#0A090B"></path>
                    </g>
                </g>
            </g>
        </g>
    </g>
</svg>