<?xml version="1.0" encoding="UTF-8"?>
<svg width="2172px" height="420px" viewBox="0 0 2172 420" version="1.1" xmlns="http://www.w3.org/2000/svg" xmlns:xlink="http://www.w3.org/1999/xlink">
    <!-- Generator: Sketch 54.1 (76490) - https://sketchapp.com -->
    <title>Illustration</title>
    <desc>Created with Sketch.</desc>
    <defs>
        <rect id="path-1" x="0" y="0" width="2172" height="420"></rect>
    </defs>
    <g id="Page-1" stroke="none" stroke-width="1" fill="none" fill-rule="evenodd">
        <g id="Illustration">
            <mask id="mask-2" fill="white">
                <use xlink:href="#path-1"></use>
            </mask>
            <g id="Rectangle"></g>
            <path d="M146.582119,259 L153,264 C149.37947,262.743126 145.707947,261.56088 142,260.472899 C143.522517,259.958366 145.052318,259.494894 146.582119,259 Z M2120.56479,342.636263 C2032.96166,247.898139 1900.50549,211.20478 1775.26624,209.302216 C1689.31017,207.992133 1603.94601,219.926399 1518.72156,229.4613 C1434.06329,238.92996 1349.81678,243.393809 1264.65115,239.526121 C1094.72431,231.805465 926.4335,200.955958 756.109597,200.013876 C669.69029,199.539155 584.730545,211.351981 498.85168,219.013757 C415.623556,226.440013 330.730907,213.953128 249.454074,223.326726 C96.7693162,240.935749 18.8485774,333.998006 0,420 L2172,420 C2159.43027,391.848699 2142.01756,365.837326 2120.56479,342.636263 Z" id="Fill-3" fill="#84B197" mask="url(#mask-2)"></path>
            <path d="M1949,420 C1943.46456,417.139515 1937.591,414.343684 1932.019,411.623435 C1837.96555,365.707993 1736.92223,335.347339 1634.8614,312.956816 C1527.60241,289.424555 1418.45956,274.240557 1308.90748,266.663242 C1078.90933,250.752351 846.636515,268.656693 621.287206,316.730788 C506.46693,341.224898 393.736976,374.214116 281.198727,407.350182 C266.934753,411.550233 252.263773,415.782679 238,420 L1949,420 Z" id="Fill-4" fill="#9BCEB2" mask="url(#mask-2)"></path>
            <path d="M137.043888,545.519965 C199.23375,518.887707 261.585824,491.879412 326.415317,472.218583 C391.362782,452.524573 458.43375,441.696924 525.541584,432.469274 C661.401492,413.789089 797.792275,397.114435 934.761861,389.357753 C1067.51025,381.837016 1201.12499,382.994619 1333.11025,400.251762 C1465.8955,417.608444 1593.78859,456.53932 1724.0485,486.091394 C1792.05956,501.519965 1861.08075,514.16144 1930.82453,517.977108 C1985.71486,520.97803 2053.16923,525.154988 2096.94435,485.497845 C2097.68905,484.823191 2096.58306,483.720887 2095.84573,484.395541 C2049.68905,526.614896 1975.04204,520.314435 1917.14343,516.450841 C1850.85034,512.026877 1785.43467,499.883099 1720.78951,484.937477 C1593.99135,455.617661 1469.65956,417.331947 1340.36555,399.731947 C1077.57476,363.960518 811.329602,392.130103 550.087206,427.230564 C479.26693,436.745772 408.218082,446.836094 339.377529,466.52273 C269.556331,486.48955 202.924073,515.529182 136.608865,544.771578 C136.096423,544.996463 136.538819,545.73379 137.043888,545.519965" id="Fill-11" fill="#84B197" mask="url(#mask-2)"></path>
            <path d="M1503.51762,342.714435 C1548.31025,364.373421 1593.29458,386.10614 1640.53513,401.991854 C1678.7508,414.839781 1730.20887,432.697845 1770.72131,420.001071 C1795.0826,412.369735 1809.67799,390.437937 1780.4614,378.238859 C1734.95357,359.237937 1679.53974,356.963283 1631.25218,362.378951 C1630.41163,362.471117 1629.94711,363.584481 1630.79504,364.071117 C1667.03467,385.070195 1708.06693,392.063744 1749.22822,384.358675 C1750.21255,384.174343 1749.79596,382.673882 1748.81532,382.858214 C1724.70103,387.370656 1700.36555,387.178951 1676.47983,381.180795 C1666.37845,378.644389 1646.52592,374.913513 1639.69089,367.024113 C1636.11486,362.89508 1636.45771,364.159596 1644.71578,362.87296 C1650.22361,362.013974 1656.05587,362.157753 1661.60794,362.010288 C1686.31946,361.36144 1711.08628,363.462822 1735.33329,368.281255 C1747.46232,370.696002 1759.61716,373.623191 1771.35172,377.549458 C1775.74988,379.020426 1782.09458,380.273882 1785.71854,383.219504 C1806.74343,400.321808 1783.8531,412.885864 1772.63098,417.037016 C1732.70472,431.798306 1679.29274,413.147615 1640.96278,400.447154 C1593.75172,384.804758 1548.76002,363.363283 1503.95264,341.969735 C1503.45495,341.730103 1503.01624,342.471117 1503.51762,342.714435" id="Fill-13" fill="#84B197" mask="url(#mask-2)"></path>
            <path d="M1263.26324,360.524573 C1263.3591,361.33932 1263.01624,362.345772 1262.97569,363.182638 C1262.94251,363.849919 1262.94251,364.509827 1262.99412,365.177108 C1263.11578,366.692315 1263.34435,368.104297 1264.00426,369.483099 C1264.29919,370.109827 1265.0402,370.423191 1265.68905,370.452684 C1266.06509,370.46743 1266.34896,370.356831 1266.67707,370.18356 C1267.28168,369.870195 1267.63928,369.162361 1267.64297,368.498767 C1267.65403,366.943007 1267.18951,365.442546 1266.59596,364.015818 C1266.37108,363.470195 1266.10933,362.92826 1265.82546,362.412131 C1265.46785,361.75591 1264.77476,361.062822 1264.53882,360.351301 C1264.32131,359.702454 1263.17476,359.757753 1263.26324,360.524573" id="Fill-17" fill="#84B197" mask="url(#mask-2)"></path>
            <path d="M1273.61163,355.37803 C1274.41532,358.507983 1274.56278,362.010288 1274.28997,365.225034 C1274.08352,367.628721 1272.42453,370.729182 1273.99504,372.860057 C1274.36002,373.357753 1274.92407,373.682177 1275.55817,373.497845 C1278.76186,372.565126 1278.73237,367.993698 1278.59228,365.225034 C1278.39688,361.250841 1276.97016,358.09508 1274.6402,354.946693 C1274.27891,354.456371 1273.44573,354.721808 1273.61163,355.37803" id="Fill-18" fill="#84B197" mask="url(#mask-2)"></path>
            <path d="M1288.27707,357.789089 C1289.11393,360.417661 1287.92315,364.428721 1286.97937,366.9725 C1286.07615,369.409366 1284.61624,371.507062 1283.64297,373.899689 C1282.20149,377.435172 1287.74251,380.598306 1290.12039,377.671117 C1292.42085,374.839781 1293.35357,371.197384 1293.19504,367.573421 C1293.12499,365.995541 1292.9296,364.535633 1292.49827,363.024113 C1291.86416,360.812131 1290.59965,359.554988 1289.69274,357.398306 C1289.34251,356.557753 1287.98214,356.860057 1288.27707,357.789089" id="Fill-19" fill="#84B197" mask="url(#mask-2)"></path>
            <path d="M374.271538,411.691394 C387.598727,412.347615 401.316699,409.3725 411.985824,401.022269 C412.671538,400.487707 411.801492,399.503375 411.097344,399.868352 C399.248496,406.002914 387.783059,410.378951 374.271538,410.825034 C373.711169,410.843467 373.714856,411.661901 374.271538,411.691394" id="Fill-20" fill="#84B197" mask="url(#mask-2)"></path>
            <path d="M456.686285,385.221348 C456.771077,383.901532 457.021768,383.031486 456.081676,382.028721 C455.705639,381.630564 454.990432,381.630564 454.614395,382.028721 C453.674303,383.031486 453.924994,383.901532 454.009787,385.221348 C454.120386,386.943007 456.575685,386.946693 456.686285,385.221348" id="Fill-21" fill="#84B197" mask="url(#mask-2)"></path>
            <path d="M714.651261,338.589089 C707.163704,328.826877 692.560939,322.426877 681.725916,331.617661 C673.965547,338.198306 672.4614,350.979873 679.716699,358.375265 C699.230063,378.260979 784.760017,376.318122 778.83928,335.731947 C778.636515,334.338398 776.350801,334.404758 776.089049,335.731947 C770.78398,362.976186 741.63375,366.334712 718.249418,365.435172 C708.501953,365.062822 693.150801,364.609366 684.623612,358.699689 C672.262321,346.990933 675.587667,337.158675 694.592275,329.195541 C702.780294,329.995541 709.150801,333.3725 713.703796,339.32273 C714.157252,339.820426 715.075225,339.142085 714.651261,338.589089" id="Fill-22" fill="#84B197" mask="url(#mask-2)"></path>
            <path d="M1425.35357,325.75591 C1422.81347,329.645311 1419.81255,334.124573 1418.66601,338.673882 C1418.47062,339.444389 1419.45863,340.082177 1420.03744,339.473882 C1423.26324,336.074804 1425.44204,331.156831 1427.36647,326.931947 C1427.98214,325.582638 1426.18675,324.476647 1425.35357,325.75591" id="Fill-25" fill="#84B197" mask="url(#mask-2)"></path>
            <path d="M1439.9932,333.862822 C1440.30656,335.348536 1439.1084,336.13379 1438.07983,336.915357 C1436.83744,337.859136 1437.47154,340.270195 1439.24112,339.67296 C1441.85495,338.784481 1442.54804,335.768813 1441.74066,333.38356 C1441.36831,332.273882 1439.74988,332.719965 1439.9932,333.862822" id="Fill-26" fill="#84B197" mask="url(#mask-2)"></path>
            <path d="M1793.23559,311.886785 C1791.48075,304.491394 1787.09366,296.719965 1782.23098,290.920887 C1781.40887,289.940242 1779.79781,290.990933 1780.13698,292.141163 C1782.27522,299.374343 1786.38951,307.326417 1791.57292,312.856371 C1792.27707,313.604758 1793.45679,312.815818 1793.23559,311.886785" id="Fill-36" fill="#9BCEB2" mask="url(#mask-2)"></path>
            <path d="M1791.3296,310.342085 C1791.03098,306.839781 1786.94988,304.288629 1784.54988,302.080334 C1781.12131,298.924573 1777.57108,295.990011 1773.97661,293.033329 C1772.64942,291.945772 1770.4743,293.309827 1771.46601,294.9725 C1773.97661,299.175265 1776.83375,302.850841 1780.57937,306.050841 C1783.14527,308.244389 1787.03836,312.060057 1790.6955,311.175265 C1791.03836,311.090472 1791.36278,310.707062 1791.3296,310.342085" id="Fill-37" fill="#9BCEB2" mask="url(#mask-2)"></path>
            <path d="M1791.62822,310.098767 C1788.89274,308.428721 1785.47154,307.934712 1782.41163,307.083099 C1779.09366,306.157753 1775.88997,305.225034 1772.63098,304.074804 C1770.68813,303.389089 1769.66324,305.936555 1770.78398,307.252684 C1775.45126,312.749458 1784.49089,317.527338 1791.62822,314.146693 C1793.27983,313.365126 1793.02177,310.95038 1791.62822,310.098767" id="Fill-38" fill="#9BCEB2" mask="url(#mask-2)"></path>
            <path d="M1793.10656,315.374343 C1795.9932,308.425034 1799.81255,301.3172 1801.56739,293.995541 C1801.92868,292.491394 1800.05218,291.860979 1799.20057,292.996463 C1794.54435,299.190011 1792.77476,307.643467 1791.91578,315.212131 C1791.83467,315.953145 1792.87062,315.942085 1793.10656,315.374343" id="Fill-39" fill="#9BCEB2" mask="url(#mask-2)"></path>
            <path d="M1795.3849,312.797384 C1797.86601,310.847154 1799.46601,307.610288 1801.36831,305.125495 C1803.39228,302.474804 1805.42361,299.779873 1807.67246,297.313513 C1808.82269,296.052684 1807.34804,293.907062 1805.7849,294.87296 C1802.58122,296.852684 1799.75725,299.083099 1797.5084,302.146693 C1795.53237,304.837937 1793.23928,308.535633 1793.46785,312.001071 C1793.5379,313.037016 1794.61808,313.398306 1795.3849,312.797384" id="Fill-40" fill="#9BCEB2" mask="url(#mask-2)"></path>
            <path d="M1794.93145,315.661901 C1794.88721,315.514435 1794.84665,315.370656 1794.8061,315.223191 C1794.58122,315.621348 1794.35264,316.023191 1794.12776,316.421348 C1801.92868,314.485864 1809.42361,312.096924 1815.47707,306.482177 C1817.13974,304.937477 1815.33329,302.721808 1813.46048,303.016739 C1807.45495,303.960518 1800.88168,306.898767 1796.09642,310.673882 C1794.65495,311.813053 1790.74343,314.92826 1793.78859,316.53932 C1794.37476,316.852684 1795.11946,316.336555 1794.93145,315.661901" id="Fill-41" fill="#9BCEB2" mask="url(#mask-2)"></path>
            <path d="M1796.60518,313.040702 C1798.63283,312.12273 1800.4614,310.216739 1802.07246,308.716278 C1803.72776,307.171578 1805.47154,305.848076 1806.31946,303.698767 C1806.65495,302.854527 1805.65218,301.925495 1804.83006,302.213053 C1802.65863,302.965126 1801.24297,304.705219 1799.64665,306.286785 C1798.07615,307.842546 1796.12592,309.571578 1795.12684,311.562361 C1794.62177,312.5725 1795.62453,313.486785 1796.60518,313.040702" id="Fill-42" fill="#9BCEB2" mask="url(#mask-2)"></path>
            <path d="M1910.14988,277.30614 C1901.82177,291.518122 1925.7849,307.518122 1937.82546,307.820426 C1953.33145,308.207523 1960.53145,287.492315 1955.54711,274.861901 C1955.1084,273.759596 1953.38306,273.512592 1953.04757,274.861901 C1950.81716,283.7725 1954.56647,294.061901 1946.34527,301.029642 C1936.06693,309.741163 1904.47615,293.177108 1912.53513,278.699689 C1913.40149,277.143928 1911.04942,275.765126 1910.14988,277.30614" id="Fill-43" fill="#9BCEB2" mask="url(#mask-2)"></path>
            <path d="M1938.54066,286.002914 C1938.68444,285.118122 1938.72868,284.480334 1938.5038,283.606601 C1938.00979,281.704297 1935.52131,281.088629 1934.15357,282.460057 C1932.78214,283.827799 1933.39781,286.316278 1935.30011,286.810288 C1936.17384,287.035172 1936.81163,286.990933 1937.69642,286.847154 C1938.06877,286.788168 1938.48168,286.375265 1938.54066,286.002914" id="Fill-44" fill="#9BCEB2" mask="url(#mask-2)"></path>
            <path d="M1963.55449,365.873882 C1961.16186,372.369735 1962.38951,379.857292 1967.45863,384.694159 C1968.85218,386.028721 1971.68721,384.719965 1970.92407,382.677569 C1968.9591,377.427799 1967.90472,372.170656 1968.64573,366.563283 C1969.05126,363.481255 1964.48721,363.337477 1963.55449,365.873882" id="Fill-45" fill="#9BCEB2" mask="url(#mask-2)"></path>
            <path d="M1574.70287,237.75591 C1574.72868,239.709827 1574.66601,241.626877 1575.29274,243.503375 C1575.55449,244.281255 1576.61624,244.284942 1576.87799,243.503375 C1577.50472,241.630564 1577.44204,239.70614 1577.46785,237.75591 C1577.48997,235.975265 1574.68075,235.975265 1574.70287,237.75591" id="Fill-46" fill="#9BCEB2" mask="url(#mask-2)"></path>
            <path d="M1591.77569,233.770656 C1594.24942,235.34485 1596.7932,237.435172 1599.83098,237.556831 C1600.74158,237.590011 1601.44573,236.450841 1600.91486,235.669274 C1599.18951,233.151301 1596.13698,232.12273 1593.47522,230.861901 C1591.53605,229.936555 1589.92499,232.587246 1591.77569,233.770656" id="Fill-47" fill="#9BCEB2" mask="url(#mask-2)"></path>
            <path d="M929.423612,230.795541 C930.127759,232.742085 930.695501,234.721808 931.945271,236.391854 C932.479833,237.103375 933.714856,236.93379 933.718543,235.912592 C933.722229,233.833329 933.025455,231.938398 932.424533,229.969735 C931.838358,228.045311 928.745271,228.92273 929.423612,230.795541" id="Fill-48" fill="#9BCEB2" mask="url(#mask-2)"></path>
            <path d="M895.901031,235.897845 C894.223612,235.897845 892.653105,235.687707 891.359096,236.90061 C890.894579,237.335633 890.894579,238.176186 891.359096,238.611209 C892.653105,239.824113 894.223612,239.613974 895.901031,239.613974 C898.289971,239.613974 898.297344,235.897845 895.901031,235.897845" id="Fill-49" fill="#9BCEB2" mask="url(#mask-2)"></path>
            <path d="M601.921308,224.50614 C674.374764,218.297845 752.494579,282.957753 821.836515,241.025956 C822.124073,240.852684 821.869695,240.425034 821.574764,240.579873 C749.493658,278.260979 676.111169,215.009366 601.921308,223.816739 C601.489971,223.868352 601.475225,224.546693 601.921308,224.50614" id="Fill-50" fill="#9BCEB2" mask="url(#mask-2)"></path>
            <path d="M269.722229,323.097845 C270.286285,322.434251 270.85034,321.76697 271.414395,321.103375 C271.882598,320.55038 271.171077,319.838859 270.618082,320.307062 C269.954487,320.871117 269.287206,321.435172 268.623612,321.999228 C267.856791,322.648076 269.073381,323.864666 269.722229,323.097845" id="Fill-51" fill="#9BCEB2" mask="url(#mask-2)"></path>
            <path d="M277.619003,287.938398 C279.152644,290.028721 281.305639,292.395541 283.609787,293.626877 C284.269695,293.980795 284.959096,293.276647 284.616238,292.624113 C283.403335,290.305219 281.054948,288.137477 278.979372,286.581716 C278.194119,285.995541 277.043888,287.156831 277.619003,287.938398" id="Fill-52" fill="#9BCEB2" mask="url(#mask-2)"></path>
            <path d="M327.289049,288.001071 C329.869695,292.052684 330.728681,297.549458 329.475225,302.190933 C329.187667,303.252684 330.761861,303.978951 331.292736,302.957753 C334.223612,297.265587 333.434672,291.34485 329.121308,286.589089 C328.236515,285.612131 326.577529,286.88402 327.289049,288.001071" id="Fill-53" fill="#9BCEB2" mask="url(#mask-2)"></path>
            <path d="M206.190432,337.719043 C212.38398,340.49508 217.434672,344.513513 222.555409,348.893237 C223.174764,349.424113 224.332367,348.708905 223.775685,347.949458 C219.620847,342.286785 213.375685,338.507983 206.854026,336.141163 C205.943427,335.809366 205.294579,337.320887 206.190432,337.719043" id="Fill-54" fill="#9BCEB2" mask="url(#mask-2)"></path>
            <path d="M417.18398,241.442546 C417.018082,244.47296 416.42822,248.015818 417.563704,250.913513 C417.917621,251.809366 419.045732,251.809366 419.399649,250.913513 C420.535132,248.012131 419.945271,244.469274 419.779372,241.442546 C419.68352,239.776186 417.279833,239.7725 417.18398,241.442546" id="Fill-55" fill="#9BCEB2" mask="url(#mask-2)"></path>
            <path d="M444.756331,249.195541 C445.290893,250.902454 445.814395,252.95591 447.687206,253.545772 C448.273381,253.726417 448.830063,253.324573 449.018082,252.790011 C449.619003,251.072039 448.324994,249.435172 447.362782,248.096924 C446.47799,246.865587 444.240202,247.543928 444.756331,249.195541" id="Fill-56" fill="#9BCEB2" mask="url(#mask-2)"></path>
            <path d="M219.030985,238.061901 C220.616238,239.964205 222.452183,241.3172 224.782137,242.187246 C225.696423,242.530103 226.208865,241.291394 225.663243,240.672039 C224.026377,238.813974 222.068773,237.634251 219.742506,236.834251 C218.990432,236.576186 218.599649,237.549458 219.030985,238.061901" id="Fill-57" fill="#9BCEB2" mask="url(#mask-2)"></path>
            <path d="M266.88352,254.607523 C268.723151,257.143928 270.566469,259.591854 272.616238,261.962361 C272.870616,262.260979 273.371999,261.873882 273.158174,261.545772 C271.451261,258.913513 269.619003,256.458214 267.694579,253.980795 C267.340662,253.519965 266.536976,254.131947 266.88352,254.607523" id="Fill-58" fill="#9BCEB2" mask="url(#mask-2)"></path>
            <path d="M269.397805,248.366048 C269.998727,248.937477 270.286285,250.002914 270.857713,250.655449 C271.642967,251.554988 272.442967,252.406601 273.150801,253.3725 C274.470616,255.167891 275.790432,256.952223 277.132367,258.729182 C277.873381,259.70614 279.491814,259.178951 279.185824,257.862822 C278.618082,255.389089 277.534211,253.206601 275.864165,251.27849 C275.001492,250.286785 274.054026,249.309827 273.029142,248.480334 C272.148036,247.765126 271.17845,247.787246 270.286285,247.212131 C269.585824,246.758675 268.793197,247.794619 269.397805,248.366048" id="Fill-59" fill="#9BCEB2" mask="url(#mask-2)"></path>
            <path d="M278.142506,251.049919 C282.699188,254.404758 286.190432,258.913513 288.568312,264.037937 C289.014395,264.996463 290.286285,264.255449 290.149879,263.370656 C289.139741,256.97803 284.771077,251.908905 278.739741,249.630564 C277.851261,249.29508 277.489971,250.570656 278.142506,251.049919" id="Fill-60" fill="#9BCEB2" mask="url(#mask-2)"></path>
            <path d="M477.689049,179.175265 C477.689049,206.013974 494.216238,227.768813 514.603335,227.768813 C534.986745,227.768813 551.513934,206.013974 551.513934,179.175265 C551.513934,152.340242 534.78398,133.472039 514.603335,130.581716 C486.179372,126.515357 477.689049,152.340242 477.689049,179.175265" id="Fill-63" fill="#1ECAC3" mask="url(#mask-2)"></path>
            <polyline id="Fill-64" fill="#0A090B" mask="url(#mask-2)" points="495.414395 194.12826 512.653105 203.7725 513.928681 173.202914 510.120386 164.480334 514.0614 170.043467 514.603335 157.125495 515.561861 187.466509 532.697344 182.607523 515.687206 191.503375 517.987667 264.329182 510.120386 264.329182 512.516699 206.994619 495.414395 194.12826"></polyline>
            <path d="M1455.80887,191.89508 C1455.80887,217.587246 1471.62822,238.413053 1491.14527,238.413053 C1510.66232,238.413053 1526.48168,217.587246 1526.48168,191.89508 C1526.48168,166.202914 1510.46324,148.142085 1491.14527,145.377108 C1463.9379,141.48402 1455.80887,166.202914 1455.80887,191.89508" id="Fill-65" fill="#EB8F3B" mask="url(#mask-2)"></path>
            <polyline id="Fill-66" fill="#0A090B" mask="url(#mask-2)" points="1472.77845 206.206601 1489.27983 215.441624 1490.50011 186.177108 1486.85771 177.826877 1490.62914 183.154066 1491.14527 170.789089 1492.06324 199.832407 1508.46509 195.179873 1492.1849 203.696002 1494.38582 273.410288 1486.85771 273.410288 1489.1508 218.523652 1472.77845 206.206601"></polyline>
            <path d="M1859.45126,159.079412 C1859.45126,207.293237 1829.76278,246.375265 1793.13974,246.375265 C1756.5167,246.375265 1726.82453,207.293237 1726.82453,159.079412 C1726.82453,110.869274 1744.98122,5.37618625 1781.30933,0.734711597 C1859.45126,-9.24869854 1859.45126,110.869274 1859.45126,159.079412" id="Fill-67" fill="#44A15B" mask="url(#mask-2)"></path>
            <polyline id="Fill-68" fill="#0A090B" mask="url(#mask-2)" points="1827.60979 158.378951 1796.64204 179.496002 1794.34527 112.579873 1801.18767 93.4830987 1794.10933 105.66743 1793.13974 77.3872462 1791.41808 143.801993 1760.63467 133.166048 1791.18951 152.638859 1787.05679 312.052684 1801.18767 312.052684 1796.88168 186.54485 1827.60979 158.378951"></polyline>
            <path d="M1303.42914,265.859136 C1303.42914,292.148536 1319.62085,313.460979 1339.58767,313.460979 C1359.55817,313.460979 1375.74988,292.148536 1375.74988,265.859136 C1375.74988,239.569735 1365.85126,182.047154 1346.03928,179.518122 C1303.42914,174.07296 1303.42914,239.569735 1303.42914,265.859136" id="Fill-69" fill="#9013FE" mask="url(#mask-2)"></path>
            <polyline id="Fill-70" fill="#0A090B" mask="url(#mask-2)" points="1320.7932 265.479412 1337.68168 276.992776 1338.93145 240.502454 1335.20057 230.091394 1339.06048 236.734712 1339.58767 221.313513 1340.52776 257.527338 1357.31301 251.72826 1340.6531 262.345772 1342.90564 349.27296 1335.20057 349.27296 1337.54896 280.837937 1320.7932 265.479412"></polyline>
            <path d="M730.82822,131.260057 C730.82822,157.549458 747.016238,178.861901 766.986745,178.861901 C786.957252,178.861901 803.148957,157.549458 803.148957,131.260057 C803.148957,104.970656 793.25034,47.4480757 773.438358,44.9190434 C730.82822,39.4738821 730.82822,104.970656 730.82822,131.260057" id="Fill-71" fill="#EA8743" mask="url(#mask-2)"></path>
            <polyline id="Fill-72" fill="#0A090B" mask="url(#mask-2)" points="748.192275 130.880334 765.077068 142.393698 766.330524 105.903375 762.599649 95.4923153 766.459556 102.135633 766.986745 86.7144351 767.576607 109.379873 767.576607 109.38356 767.926838 122.92826 784.712091 117.129182 768.052183 127.746693 770.304718 214.673882 762.599649 214.673882 764.948036 146.238859 748.192275 130.880334"></polyline>
            <path d="M434.890893,159.953145 C434.890893,181.029642 421.910248,198.113513 405.902874,198.113513 C389.891814,198.113513 376.911169,181.029642 376.911169,159.953145 C376.911169,138.87296 384.848496,92.7568314 400.730524,90.7291816 C434.890893,86.3642047 434.890893,138.87296 434.890893,159.953145" id="Fill-73" fill="#4A90E2" mask="url(#mask-2)"></path>
            <polyline id="Fill-74" fill="#0A090B" mask="url(#mask-2)" points="420.970155 159.647154 407.432828 168.87849 406.430063 139.621348 409.419925 131.274804 406.326838 136.601993 405.902874 124.237016 405.430985 142.408444 405.430985 142.412131 405.147114 153.27296 391.690893 148.624113 405.047575 157.136555 403.241123 226.825034 409.419925 226.825034 407.539741 171.956831 420.970155 159.647154"></polyline>
        </g>
    </g>
</svg>