<?xml version="1.0" encoding="UTF-8"?>
<svg width="36px" height="36px" viewBox="0 0 36 36" version="1.1" xmlns="http://www.w3.org/2000/svg" xmlns:xlink="http://www.w3.org/1999/xlink">
    <!-- Generator: Sketch 54.1 (76490) - https://sketchapp.com -->
    <title>Group</title>
    <desc>Created with Sketch.</desc>
    <g id="Main" stroke="none" stroke-width="1" fill="none" fill-rule="evenodd">
        <g id="LeGrandePlaneteVerte_Main04" transform="translate(-70.000000, -48.000000)">
            <g id="Navigation" transform="translate(70.000000, 40.000000)">
                <g id="Group" transform="translate(0.000000, 8.000000)">
                    <path d="M35.8759141,17.809562 C35.8759141,27.601187 27.8551141,35.538437 17.9604193,35.538437 C8.06572461,35.538437 0.0449246086,27.601187 0.0449246086,17.809562 C0.0449246086,8.01793704 8.06572461,0.0803120369 17.9604193,0.0803120369 C27.8551141,0.0803120369 35.8759141,8.01793704 35.8759141,17.809562" id="Fill-410" fill="#44A15B"></path>
                    <path d="M19.1241667,35.637437 C17.5219772,35.808812 19.6687141,32.437562 19.337893,30.963062 C18.9263562,29.129312 17.6223983,27.684062 17.5500193,25.634312 C17.4886299,23.905937 18.2059772,22.945937 18.7751562,21.439937 C19.2492193,20.183312 19.2674088,19.038437 18.8009246,17.674937 C19.1556193,17.431562 19.517893,17.377937 19.9692193,17.487812 C21.0689246,20.187437 19.7956615,24.857687 23.8485036,25.950437 C25.6405457,26.433812 27.337472,25.883312 28.9654299,27.110312 C29.9889667,27.883187 30.4164193,29.295812 30.6714509,30.097187 C28.7823983,32.017562 25.9448404,34.908437 19.1241667,35.637437" id="Fill-411" fill="#4DCC6B"></path>
                    <path d="M23.4187772,16.543187 C22.3626509,17.008562 22.8162509,18.488312 23.3501878,19.169687 C24.1990299,20.252312 25.695872,20.591687 27.0199141,20.572937 C29.7650088,20.533187 29.0616825,17.997812 30.1394088,16.290812 C30.5130509,15.699437 30.9670299,15.074687 31.6919562,14.891312 C32.1679141,14.771312 32.4653878,15.063437 32.8500193,15.075437 C33.6780193,15.101687 35.0066088,13.963562 35.502272,14.241062 C35.6007983,13.118312 33.1963772,7.77456204 32.0133036,6.82318704 C31.2349457,6.19656204 30.7521667,6.76431204 29.8889246,7.21993704 C27.7948615,8.32543704 25.9255141,9.81493704 24.7557036,11.896562 C24.2858088,12.734687 24.1425667,13.767062 23.8193246,14.677187 C23.629472,15.213812 23.5915772,15.757937 23.485472,16.288562 C23.470693,16.361687 23.4180193,16.551062 23.4187772,16.543187" id="Fill-412" fill="#4DCC6B"></path>
                    <path d="M25.1543562,1.65306204 C20.058272,-1.48981296 7.52231408,-0.786687963 2.35271408,9.38068704 C2.70020882,9.33231204 2.98517724,9.12006204 3.32092461,8.99556204 C4.1496825,8.68768704 5.10387198,8.52531204 5.98454566,8.48293704 C8.54585092,8.35956204 10.7789878,9.55206204 13.0151562,10.659812 C13.9822299,11.139437 14.9709036,11.609687 15.8777246,12.190937 C16.6060615,12.658187 17.0805036,13.250312 17.7167562,13.794437 C19.2147351,15.076187 20.9321246,13.894937 21.7938509,12.401312 C22.5343141,11.117312 22.1580193,9.69643704 22.1898509,8.31006204 C22.2163772,7.16143704 23.0261878,6.39268704 23.9993246,5.87818704 C24.6643772,5.52681204 25.5105667,5.34343704 25.861472,4.63806204 C26.2082088,3.94093704 25.8584404,3.56968704 25.5336825,3.00043704 C25.2790299,2.55418704 25.1543562,1.65306204 25.1638299,1.70706204" id="Fill-413" fill="#4DCC6B"></path>
                    <path d="M0.0259772402,17.182562 C0.921050924,17.288687 1.41330356,17.202062 2.29738777,16.924562 C4.00947198,16.387937 6.06867198,16.417937 7.71595619,17.133437 C9.54778777,17.928437 11.1810509,18.963812 11.1423983,21.133187 C11.1139772,22.680812 10.2639983,24.032687 10.1082509,25.556312 C9.97599829,26.860562 9.91006145,28.121312 10.2522509,29.395937 C10.4481667,30.126062 10.6524193,30.838562 10.7566299,31.570187 C10.8831983,32.459312 10.4989457,33.220937 9.84867198,33.680312 C1.31856671,28.820687 -0.232085918,20.635562 0.0259772402,17.182562" id="Fill-414" fill="#4DCC6B"></path>
                </g>
            </g>
        </g>
    </g>
</svg>