<?xml version="1.0" encoding="UTF-8"?>
<svg width="877px" height="666px" viewBox="0 0 877 666" version="1.1" xmlns="http://www.w3.org/2000/svg" xmlns:xlink="http://www.w3.org/1999/xlink">
    <!-- Generator: Sketch 54.1 (76490) - https://sketchapp.com -->
    <title>Combined Shape</title>
    <desc>Created with Sketch.</desc>
    <defs>
        <path d="M1302.17727,200.570742 C1340.54032,211.655836 1371.1879,242.930779 1378.66688,284.199874 C1389.27011,342.694779 1349.3902,398.915345 1289.623,409.767459 C1281.3551,411.272591 1273.15002,411.738553 1265.09644,411.418666 C1271.53154,478.801987 1224.27612,541.272364 1155.01792,553.8441 C1119.7588,560.25293 1085.34032,552.451761 1057.65441,534.71561 C1041.85764,560.694855 1015.22669,580.219044 982.570805,586.147119 C945.772653,592.831459 910.046094,580.709044 885.510297,556.793345 C875.640551,562.911874 864.505216,567.366251 852.344477,569.574025 C801.525078,578.797119 752.994824,545.961572 743.97681,496.2201 C742.629928,488.788742 742.349096,481.429496 742.827618,474.195987 C690.748173,463.889345 647.947249,423.631685 638.084893,369.215798 C626.452561,305.046138 664.584662,243.285798 725.297826,221.668478 C719.213761,211.208364 714.724154,199.646213 712.447942,187.087421 C701.733854,127.95644 742.022076,71.1330813 802.448865,60.1644775 C837.550944,53.7907794 871.642399,64.3692322 896.22069,85.8830058 C905.75972,44.2829303 939.803138,10.0938737 985.244246,1.84338318 C1039.07519,-7.92888097 1090.63547,22.0498737 1108.83224,70.5062511 C1124.55325,57.6904398 1143.66826,48.4802888 1165.14263,44.5806285 C1231.67011,32.5044398 1295.17866,75.4894586 1306.98097,140.596591 C1310.74632,161.372591 1308.74355,181.873081 1302.17727,200.570742 Z M855.513069,11.1607794 C855.513069,11.1607794 675.171267,13.7420624 675.705216,146.018025 C675.705216,146.018025 649.105678,-10.0164659 855.513069,11.1607794 Z M1367.33755,432.758628 C1367.33755,432.758628 1478.89967,290.935987 1375.89182,208.050176 C1375.89182,208.050176 1513.75787,285.631044 1367.33755,432.758628 Z" id="path-1"></path>
        <filter x="-9.4%" y="-7.7%" width="118.8%" height="125.5%" filterUnits="objectBoundingBox" id="filter-2">
            <feOffset dx="0" dy="30" in="SourceAlpha" result="shadowOffsetOuter1"></feOffset>
            <feGaussianBlur stdDeviation="20" in="shadowOffsetOuter1" result="shadowBlurOuter1"></feGaussianBlur>
            <feColorMatrix values="0 0 0 0 0.906452009   0 0 0 0 0.952898551   0 0 0 0 0.9141931  0 0 0 1 0" type="matrix" in="shadowBlurOuter1"></feColorMatrix>
        </filter>
    </defs>
    <g id="Main" stroke="none" stroke-width="1" fill="none" fill-rule="evenodd">
        <g id="LeGrandePlaneteVerte_Main01" transform="translate(-488.000000, -204.000000)">
            <g id="Content" transform="translate(-108.000000, 118.000000)">
                <g id="Cloud" transform="translate(0.000000, 95.000000)">
                    <g id="Combined-Shape">
                        <use fill="black" fill-opacity="1" filter="url(#filter-2)" xlink:href="#path-1"></use>
                        <use fill="#FFFFFE" fill-rule="evenodd" xlink:href="#path-1"></use>
                    </g>
                </g>
            </g>
        </g>
    </g>
</svg>