<?xml version="1.0" encoding="UTF-8"?>
<svg width="999px" height="565px" viewBox="0 0 999 565" version="1.1" xmlns="http://www.w3.org/2000/svg" xmlns:xlink="http://www.w3.org/1999/xlink">
    <!-- Generator: Sketch 54.1 (76490) - https://sketchapp.com -->
    <title>Group 2</title>
    <desc>Created with Sketch.</desc>
    <g id="Main" stroke="none" stroke-width="1" fill="none" fill-rule="evenodd">
        <g id="LeGrandePlaneteVerte_Main01" transform="translate(-360.000000, -232.000000)">
            <g id="Content" transform="translate(-108.000000, 118.000000)">
                <g id="Group-2" transform="translate(468.000000, 114.000000)">
                    <g id="01" transform="translate(0.000000, 487.000000)">
                        <path d="M26.8752375,50.5924421 L30.5571685,44.8048421 L30.5555134,44.8032 L64.886272,1.42108547e-14 C55.4410306,4.58968421 29.5086168,36.3455368 26.0112375,42.1536632 C25.2813065,43.3663579 25.6272375,44.4534316 26.7933065,45.3631579 C27.2724789,45.7367368 27.384203,45.8623579 27.6432375,46.0175368 L25.5196513,49.5973263 L26.8752375,50.5924421" id="Fill-46" fill="#9D9D9C"></path>
                        <path d="M29.2901341,48.1104 L26.9232375,46.7490947 C26.6153754,46.5717474 26.2214444,46.6793053 26.0468237,46.9872 L19.1853065,59.1100421 L24.2261341,57.1288421 L29.5069616,49.0020632 C29.7047548,48.6982737 29.6054444,48.2918526 29.2901341,48.1104" id="Fill-48" fill="#44A15B"></path>
                        <path d="M20.7709616,44.5478526 L26.5979961,40.8843158 L26.5996513,40.8859579 L71.9091685,6.95431579 C67.3011685,16.3340211 34.7389616,42.0510316 28.9334444,45.6012632 C27.9486168,46.2030947 26.8694444,45.7318105 26.0675134,44.9041895 C25.6901341,44.5150105 25.5378582,44.0338737 25.3814444,43.7768842 L21.7764789,45.8910947 L20.7709616,44.5478526" id="Fill-49" fill="#C6C6C6"></path>
                        <path d="M2.61040993,42.1356 C1.59661682,44.1406105 1.73730648,46.5298737 2.98034096,48.4035158 C4.22337544,50.2771579 6.3800651,51.3502737 8.63689268,51.2189053 C10.8937203,51.0875368 12.9088927,49.7722105 13.9226858,47.7672 C14.9364789,45.7621895 14.7957892,43.3729263 13.5527548,41.4992842 C12.3097203,39.6256421 10.1530306,38.5525263 7.89620303,38.6838947 C5.63937544,38.8152632 3.62420303,40.1305895 2.61040993,42.1356 Z M7.78282372,36.7642737 C10.7315134,36.5926737 13.5477892,37.9950316 15.1715134,40.4425895 C16.7952375,42.8893263 16.9797892,46.0109684 15.6548237,48.6293053 C14.3306858,51.2484632 11.6981341,52.9669263 8.75027199,53.1385263 C5.80158234,53.3101263 2.98530648,51.9077684 1.36158234,49.4602105 C-0.262141799,47.0126526 -0.446693523,43.8918316 0.878271994,41.2734947 C2.20240993,38.6543368 4.83496165,36.9358737 7.78282372,36.7642737 L7.78282372,36.7642737 Z" id="Fill-50" fill="#44A15B"></path>
                        <path d="M23.2677892,42.1470947 L24.6448927,44.4928421 C24.8244789,44.7982737 24.7168927,45.1899158 24.4073754,45.3631579 L12.1996513,52.1934947 L14.188341,47.1883579 L22.3698582,41.9344421 C22.6752375,41.7373895 23.0848927,41.8342737 23.2677892,42.1470947" id="Fill-51" fill="#44A15B"></path>
                        <path d="M67.5676513,10.2056842 C58.1058582,21.4770947 32.6724789,41.4508421 27.6068237,44.5478526 C27.0291685,44.9009053 26.4208927,44.8779158 25.8531685,44.6381684 C25.9168927,44.7284842 25.9847548,44.8196211 26.0675134,44.9041895 C26.8694444,45.7318105 27.9486168,46.2030947 28.9334444,45.6012632 C34.7389616,42.0510316 67.3011685,16.3340211 71.9091685,6.95431579 L67.5676513,10.2056842" id="Fill-52" fill="#EDEDED"></path>
                        <path d="M29.0964789,42.5157474 L27.3370306,44.2645895 C27.8310996,44.5774105 28.4939961,44.5207579 28.9251685,44.0921684 C29.356341,43.6635789 29.4126168,43.0059158 29.0964789,42.5157474" id="Fill-53" fill="#878787"></path>
                        <path d="M28.7414444,42.1536632 C28.2440651,41.8153895 27.5596513,41.8638316 27.1177203,42.3022737 C26.6766168,42.7415368 26.6286168,43.4205474 26.9712375,43.9131789 L28.7414444,42.1536632" id="Fill-54" fill="#878787"></path>
                        <path d="M29.3381341,68.6038737 C27.5886168,69.4815789 25.5494444,69.5004632 23.8189616,68.6802316 C23.5400651,68.5562526 23.2810306,68.4133895 23.0211685,68.2508211 C21.7516513,67.4305895 20.8578582,66.1998316 20.4440651,64.8163579 C20.2230996,64.1201053 20.136203,63.3860842 20.1750996,62.6413895 C20.3000651,60.3999158 21.6266858,58.3965474 23.6360651,57.3948632 C25.6553754,56.3841474 28.0785479,56.5179789 29.9538582,57.7479158 C31.848203,58.9786737 32.9439272,61.1158737 32.8090306,63.3474947 C32.6840651,65.5897895 31.3574444,67.5923368 29.3381341,68.6038737 Z M34.7513754,63.4624421 C34.9152375,60.5337474 33.4917892,57.7479158 31.0206168,56.1361895 C28.5593754,54.5334947 25.4054444,54.3618947 22.7712375,55.6780421 C20.136203,56.9941895 18.4057203,59.6084211 18.2426858,62.5371158 C18.1458582,64.2917053 18.6175823,66.0183789 19.550272,67.4593263 C20.1651685,68.3936842 20.9828237,69.2237684 21.9635134,69.8535158 C22.694272,70.3305474 23.4920651,70.6836 24.2997892,70.9118526 C24.5886168,70.9882105 24.8766168,71.0456842 25.1654444,71.0842737 L25.2134444,71.0933053 C26.8959272,71.37 28.636341,71.1130105 30.2128927,70.3305474 C32.8570306,69.0045474 34.5784099,66.3812842 34.7513754,63.4624421 L34.7513754,63.4624421 Z" id="Fill-47" fill="#44A15B"></path>
                        <path d="M20.7138582,77.5229684 C17.6559272,74.4702947 18.4537203,70.7788421 19.550272,67.4593263 C19.848203,66.534 20.1750996,65.6562947 20.4440651,64.8163579 C20.8578582,66.1998316 21.7516513,67.4305895 23.0211685,68.2508211 C23.2810306,68.4133895 23.5400651,68.5562526 23.8189616,68.6802316 C24.1748237,69.4906105 23.6269616,69.3288632 25.2134444,71.0933053 L25.1654444,71.0842737 C24.8476513,70.9980632 24.5786858,70.9405895 24.2997892,70.9118526 C20.7899961,70.4446737 20.5599272,74.2412211 22.1753754,76.0918737 C23.5400651,77.6370947 21.7806168,78.5821263 20.7138582,77.5229684" id="Fill-44" fill="#44A15B"></path>
                    </g>
                    <g id="02" transform="translate(962.000000, 37.000000) scale(-1, -1) translate(-962.000000, -37.000000) translate(925.000000, 0.000000)">
                        <polyline id="Fill-55" fill="#878787" points="62.8093524 27.912 45.4733524 10.577 49.9513524 6.098 67.2873524 23.434 62.8093524 27.912"></polyline>
                        <path d="M42.0303524,49.598 C32.5553524,57.928 22.3093524,65.501 11.9363524,72.735 C8.47935236,76.192 -2.80664764,64.906 0.650352359,61.45 C7.88435236,51.076 15.4573524,40.83 23.7873524,31.355 C30.3563524,23.881 37.3853524,16.881 45.0713524,10.679 L62.7063524,28.314 C56.5053524,36.001 49.5043524,43.029 42.0303524,49.598" id="Fill-56" fill="#4A90E2"></path>
                        <path d="M42.0303524,49.598 C32.5553524,57.928 22.3093524,65.501 11.9363524,72.735 L0.650352359,61.45 C7.88435236,51.076 15.4573524,40.83 23.7873524,31.355 C28.8713524,28.293 35.5393524,28.937 39.9093524,33.307 L40.0793524,33.476 C44.4493524,37.846 45.0923524,44.514 42.0303524,49.598" id="Fill-57" fill="#7DB4F5"></path>
                        <polyline id="Fill-58" fill="#3C3C3B" points="61.7483524 28.973 44.4123524 11.637 48.8913524 7.159 66.2263524 24.495 61.7483524 28.973"></polyline>
                        <polyline id="Fill-59" fill="#575756" points="41.1603524 16.127 39.9223524 14.89 54.8133524 0 56.0503524 1.237 41.1603524 16.127"></polyline>
                        <polyline id="Fill-60" fill="#575756" points="43.6363524 18.604 42.3993524 17.366 57.2893524 2.476 58.5273524 3.714 43.6363524 18.604"></polyline>
                        <polyline id="Fill-61" fill="#575756" points="46.1133524 21.08 44.8763524 19.843 59.7663524 4.953 61.0033524 6.19 46.1133524 21.08"></polyline>
                        <polyline id="Fill-62" fill="#575756" points="48.5893524 23.557 47.3523524 22.319 62.2423524 7.429 63.4803524 8.667 48.5893524 23.557"></polyline>
                        <polyline id="Fill-63" fill="#575756" points="51.0663524 26.033 49.8293524 24.796 64.7193524 9.906 65.9563524 11.143 51.0663524 26.033"></polyline>
                        <polyline id="Fill-64" fill="#575756" points="53.5423524 28.51 52.3053524 27.272 67.1953524 12.382 68.4333524 13.62 53.5423524 28.51"></polyline>
                        <polyline id="Fill-65" fill="#575756" points="56.0193524 30.986 54.7823524 29.749 69.6723524 14.859 70.9093524 16.096 56.0193524 30.986"></polyline>
                        <polyline id="Fill-66" fill="#575756" points="58.4963524 33.463 57.2583524 32.225 72.1483524 17.335 73.3863524 18.573 58.4963524 33.463"></polyline>
                        <path d="M52.7313524,33.037 C52.1773524,33.591 51.2803524,33.591 50.7273524,33.037 L40.3483524,22.658 C39.7953524,22.105 39.7953524,21.208 40.3483524,20.655 C40.9013524,20.101 41.7983524,20.101 42.3513524,20.655 L52.7313524,31.034 C53.2843524,31.587 53.2843524,32.484 52.7313524,33.037" id="Fill-67" fill="#3C3C3B"></path>
                        <path d="M29.3293524,48.134 C28.2033524,49.26 26.3783524,49.26 25.2523524,48.134 C24.1263524,47.008 24.1263524,45.182 25.2523524,44.056 L33.0633524,36.245 C34.1893524,35.119 36.0153524,35.119 37.1413524,36.245 C38.2673524,37.371 38.2673524,39.196 37.1413524,40.322 L29.3293524,48.134" id="Fill-68" fill="#9D9D9C"></path>
                        <path d="M29.7603524,43.626 C29.0253524,42.891 29.0253524,41.696 29.7593524,40.962 L33.6653524,37.056 C34.3993524,36.322 35.5943524,36.322 36.3293524,37.057 C37.0633524,37.791 37.0633524,38.986 36.3293524,39.721 L32.4233524,43.626 C31.6893524,44.36 30.4943524,44.36 29.7603524,43.626" id="Fill-69" fill="#878787"></path>
                        <path d="M25.9593524,47.426 C25.2243524,46.692 25.2243524,45.497 25.9593524,44.763 L29.8643524,40.857 C30.5983524,40.123 31.7933524,40.123 32.5283524,40.857 C33.2633524,41.592 33.2633524,42.787 32.5283524,43.521 L28.6233524,47.427 C27.8883524,48.161 26.6943524,48.161 25.9593524,47.426" id="Fill-70" fill="#575756"></path>
                    </g>
                    <g id="03" transform="translate(36.000000, 37.000000) scale(-1, 1) translate(-36.000000, -37.000000) translate(1.000000, 2.000000)">
                        <path d="M56.2916502,0.198720325 L56.2824396,0.207930851 C56.0208607,0.469509798 56.0162554,0.890430851 56.271387,1.15753611 L63.5698081,8.79398348 C63.8369133,9.07398348 63.8617817,9.48016769 63.6324396,9.71043085 C63.4030975,9.93977296 62.9959923,9.91490454 62.7159923,9.64779927 L55.0353344,2.3070098 C54.7930975,2.07582559 54.4108607,2.0795098 54.1732291,2.31622032 L54.1649396,2.32543085 C53.9282291,2.56214138 53.9236238,2.94529927 54.1557291,3.18753611 L61.4965186,10.868194 C61.7636238,11.147273 61.7884923,11.5543782 61.5582291,11.7837203 C61.328887,12.0139835 60.9217817,11.9891151 60.6427028,11.7220098 L52.9620449,4.38122032 C52.7198081,4.14911506 52.3366502,4.15372032 52.0999396,4.39043085 L52.0907291,4.39964138 C51.8540186,4.6363519 51.8494133,5.01858875 52.0815186,5.26082559 L59.4223081,12.9424045 C59.6894133,13.2214835 59.7142817,13.6285887 59.4849396,13.8579309 C59.2546765,14.087273 58.8484923,14.0633256 58.5684923,13.7962203 L50.8878344,6.4545098 C50.6455975,6.22332559 50.2624396,6.22793085 50.0257291,6.46464138 L50.0174396,6.47293085 C49.7798081,6.70964138 49.7761238,7.09279927 50.0073081,7.33503611 L57.3480975,15.015694 C57.6152028,15.295694 57.6400712,15.7018782 57.4107291,15.9321414 C57.181387,16.1614835 56.7742817,16.1366151 56.4942817,15.8695098 L48.8136238,8.52872032 C48.571387,8.29753611 48.1891502,8.30122032 47.9515186,8.5388519 L47.9432291,8.54714138 C47.7065186,8.7838519 47.7019133,9.1670098 47.9330975,9.40924664 L55.2748081,17.0899045 C55.5419133,17.3689835 55.5667817,17.7760887 55.3365186,18.0054309 C55.1071765,18.235694 54.7000712,18.2108256 54.4209923,17.9437203 L46.7403344,10.6029309 C46.4980975,10.3708256 46.1149396,10.3754309 45.8782291,10.6121414 L45.8690186,10.6213519 C45.6323081,10.8580624 45.6277028,11.2402993 45.8598081,11.4825361 L53.2005975,19.1641151 C53.4677028,19.443194 53.4925712,19.8502993 53.2623081,20.0796414 C53.032966,20.3099045 52.6258607,20.2850361 52.3467817,20.0179309 L44.6661238,12.6762203 C44.423887,12.4450361 44.0407291,12.4496414 43.8040186,12.6863519 L43.7957291,12.6946414 C43.5580975,12.932273 43.5544133,13.3145098 43.7855975,13.5567466 L51.126387,21.2374045 C51.3934923,21.5174045 51.4183607,21.9245098 51.1890186,22.1538519 C50.9587554,22.383194 50.5525712,22.3583256 50.2725712,22.0912203 L42.5919133,14.7504309 C42.3496765,14.5192466 41.9674396,14.5229309 41.7298081,14.7605624 L41.7215186,14.7688519 C41.4848081,15.0055624 41.4802028,15.3887203 41.711387,15.6309572 L49.0530975,23.3116151 C49.3202028,23.590694 49.3441502,23.9977993 49.1148081,24.2280624 C48.885466,24.4574045 48.4783607,24.4325361 48.1992817,24.1654309 L40.5177028,16.8246414 C40.275466,16.5925361 39.8932291,16.5971414 39.6565186,16.8338519 L39.6473081,16.8430624 C39.4105975,17.079773 39.4059923,17.4629309 39.6380975,17.7051677 L46.978887,25.3858256 C47.2459923,25.6649045 47.2708607,26.0720098 47.0405975,26.3013519 C46.8112554,26.5316151 46.4041502,26.5067466 46.1250712,26.2396414 L38.4444133,18.8979309 C38.2021765,18.6667466 37.8190186,18.6713519 37.5823081,18.9080624 L37.5740186,18.9163519 C37.336387,19.1539835 37.3327028,19.5362203 37.563887,19.7784572 L44.9046765,27.4591151 C45.1717817,27.7391151 45.1966502,28.1462203 44.9673081,28.3755624 C44.7370449,28.6049045 44.3308607,28.5800361 44.0508607,28.3129309 L36.3702028,20.9721414 C36.127966,20.7409572 35.7448081,20.7446414 35.5080975,20.982273 L35.4998081,20.9905624 C35.2630975,21.227273 35.2584923,21.6104309 35.4896765,21.8526677 L42.831387,29.5333256 C43.0984923,29.8133256 43.1224396,30.2195098 42.8930975,30.449773 C42.6637554,30.6791151 42.2566502,30.6542466 41.9775712,30.3871414 L34.2959923,23.0463519 C34.0537554,22.8142466 33.6715186,22.8188519 33.4348081,23.0555624 L33.4255975,23.064773 C33.188887,23.3014835 33.1842817,23.6846414 33.416387,23.9268782 L40.7571765,31.6075361 C41.0242817,31.8866151 41.0491502,32.2937203 40.818887,32.5230624 C40.5895449,32.7533256 40.1824396,32.7284572 39.9033607,32.4613519 L32.2227028,25.1205624 C31.980466,24.8884572 31.5973081,24.8930624 31.3605975,25.129773 L31.351387,25.1380624 C31.1146765,25.375694 31.1109923,25.7579309 31.3421765,26.0001677 L38.682966,33.6817466 C38.9500712,33.9608256 38.9749396,34.3679309 38.7455975,34.597273 C38.5153344,34.8266151 38.1091502,34.8017466 37.8291502,34.5346414 L30.1484923,27.1938519 C29.9062554,26.9626677 29.5230975,26.967273 29.286387,27.2039835 L29.2780975,27.212273 C29.041387,27.4489835 29.0367817,27.8321414 29.267966,28.0743782 L36.6087554,35.7550361 C36.8758607,36.0350361 36.9007291,36.4412203 36.671387,36.6714835 C36.4420449,36.9008256 36.0349396,36.8759572 35.7558607,36.6088519 L28.0742817,29.2680624 C27.8320449,29.0368782 27.4498081,29.0405624 27.2121765,29.277273 L27.203887,29.2864835 C26.9671765,29.523194 26.9625712,29.9063519 27.1946765,30.1485887 L34.535466,37.8292466 C34.8025712,38.1083256 34.8274396,38.5154309 34.5971765,38.744773 C34.3678344,38.9750361 33.9607291,38.9501677 33.6816502,38.6830624 L26.0009923,31.342273 C25.7587554,31.1101677 25.3755975,31.114773 25.138887,31.3514835 L25.1296765,31.360694 C24.892966,31.5974045 24.8883607,31.9796414 25.120466,32.2218782 L32.4612554,39.9034572 C32.7283607,40.1825361 32.7532291,40.5896414 32.523887,40.8189835 C32.2936238,41.0483256 31.8874396,41.0243782 31.6074396,40.757273 L23.9267817,33.4155624 C23.6845449,33.1843782 23.301387,33.1889835 23.0646765,33.425694 L23.056387,33.4339835 C22.8187554,33.670694 22.8150712,34.0538519 23.0462554,34.2960887 L30.3870449,41.9767466 C30.6541502,42.2567466 30.6790186,42.6629309 30.4496765,42.893194 C30.2203344,43.1225361 29.8132291,43.0976677 29.5332291,42.8305624 L21.8525712,35.489773 C21.6103344,35.2585887 21.2280975,35.262273 20.990466,35.4999045 L20.9821765,35.508194 C20.745466,35.7449045 20.7408607,36.1280624 20.9720449,36.3702993 L28.3137554,44.0509572 C28.5808607,44.3300361 28.6057291,44.7371414 28.375466,44.9664835 C28.1461238,45.1967466 27.7390186,45.1718782 27.4599396,44.904773 L19.7792817,37.5639835 C19.5370449,37.3318782 19.153887,37.3364835 18.9171765,37.573194 L18.907966,37.5824045 C18.6712554,37.8191151 18.6666502,38.2013519 18.8987554,38.4435887 L26.2395449,46.1251677 C26.5066502,46.4042466 26.5315186,46.8113519 26.3021765,47.040694 C26.0719133,47.2700361 25.6648081,47.2460887 25.3857291,46.9789835 L17.7050712,39.637273 C17.4628344,39.4060887 17.0796765,39.410694 16.842966,39.6474045 L16.8346765,39.655694 C16.5970449,39.8933256 16.5933607,40.2755624 16.8245449,40.5177993 L24.1653344,48.1984572 C24.4324396,48.4784572 24.4573081,48.8846414 24.227966,49.1149045 C23.9977028,49.3442466 23.5915186,49.3193782 23.3115186,49.052273 L15.6308607,41.7114835 C15.3886238,41.4802993 15.006387,41.4839835 14.7687554,41.7216151 L14.760466,41.7299045 C14.5237554,41.9666151 14.5191502,42.349773 14.7503344,42.5920098 L22.0920449,50.2726677 C22.3591502,50.5517466 22.3830975,50.9588519 22.1537554,51.1891151 C21.9244133,51.4184572 21.5173081,51.3935887 21.2382291,51.1264835 L13.5566502,43.785694 C13.3144133,43.5535887 12.9321765,43.558194 12.695466,43.7949045 L12.6862554,43.8041151 C12.4495449,44.0408256 12.4449396,44.4239835 12.6770449,44.6662203 L20.0178344,52.3468782 C20.2849396,52.6259572 20.3098081,53.0330624 20.0795449,53.2624045 C19.8502028,53.4926677 19.4430975,53.4677993 19.1640186,53.200694 L11.4833607,45.8589835 C11.2411238,45.6277993 10.857966,45.6324045 10.6212554,45.8691151 L10.612966,45.8774045 C10.3753344,46.1150361 10.3716502,46.497273 10.6028344,46.7395098 L17.9436238,54.4201677 C18.2107291,54.7001677 18.2355975,55.107273 18.0062554,55.3366151 C17.7759923,55.5659572 17.3698081,55.5410887 17.0898081,55.2739835 L9.40915017,47.933194 C9.16691332,47.7020098 8.78375543,47.705694 8.5470449,47.9433256 L8.53875543,47.9516151 C8.3020449,48.1883256 8.29743964,48.5714835 8.52862385,48.8137203 L15.8703344,56.4943782 C16.1374396,56.7743782 16.161387,57.1805624 15.9320449,57.4108256 C15.7027028,57.6401677 15.2955975,57.6152993 15.0165186,57.348194 L7.33493964,50.0074045 C7.0927028,49.7752993 6.71046595,49.7799045 6.47375543,50.0166151 L6.4645449,50.0258256 C6.22783438,50.2625361 6.22322911,50.645694 6.45533438,50.8879309 L13.7961238,58.5685887 C14.0632291,58.8476677 14.0880975,59.254773 13.8578344,59.4841151 C13.6284923,59.7143782 13.221387,59.6895098 12.9423081,59.4224045 L5.26165017,52.080694 C5.01941332,51.8495098 4.63625543,51.8541151 4.3995449,52.0908256 L4.39125543,52.0991151 C4.15362385,52.3367466 4.14993964,52.7189835 4.38112385,52.9612203 L11.7219133,60.6418782 C11.9890186,60.9218782 12.013887,61.3289835 11.7845449,61.5583256 C11.5542817,61.7876677 11.1480975,61.7627993 10.8680975,61.495694 L3.18743964,54.1549045 C2.9452028,53.9237203 2.5620449,53.9283256 2.32533438,54.1650361 L2.3170449,54.1733256 C2.08033438,54.4100361 2.07572911,54.793194 2.30691332,55.0354309 L9.64862385,62.7160887 C9.91480806,62.9960887 9.93967648,63.402273 9.71033438,63.6325361 C9.48099227,63.8618782 9.07388701,63.8370098 8.79480806,63.5699045 L1.15743964,56.2714835 C0.891255428,56.0163519 0.469413323,56.0209572 0.208755428,56.2816151 L0.199544902,56.2908256 C-0.0509814138,56.5413519 -0.0675603612,56.9410887 0.160860691,57.2100361 L9.2645449,67.953194 C10.6350712,69.5714835 13.237966,69.5788519 15.1933607,67.9909572 C34.6082291,52.2216151 52.2049396,34.6212203 67.9899396,15.1934572 C69.5787554,13.2380624 69.571387,10.6351677 67.9530975,9.26372032 L57.2108607,0.160957167 C56.9409923,-0.0674638859 56.5412554,-0.0508849386 56.2916502,0.198720325" id="Fill-94" fill="#9013FE"></path>
                        <path d="M11.3608607,64.5379309 C10.8994133,64.9993782 10.8690186,65.7380624 11.2908607,66.2363519 C11.6473081,66.657273 12.6503344,66.6342466 13.518887,65.9287203 C23.1052028,58.1430624 32.3737554,49.7863519 41.0666502,41.0934572 C49.761387,32.3987203 58.126387,23.1209572 65.9286238,13.5189835 C66.6341502,12.6495098 66.6571765,11.6464835 66.2362554,11.2900361 C65.737966,10.868194 65.0002028,10.8985887 64.5387554,11.3600361 L11.3608607,64.5379309" id="Fill-95" fill="#AE52FF"></path>
                    </g>
                    <g id="04" transform="translate(920.000000, 485.000000)">
                        <g id="Group-4" transform="translate(42.000000, 41.500000) rotate(-45.000000) translate(-42.000000, -41.500000) translate(19.000000, 6.000000)">
                            <path d="M7.34658327,70.4284938 C4.20158327,66.1764938 1.73258327,60.6884938 0.509583267,54.4074938 C-2.39541673,39.6374938 7.40858327,24.9944938 22.5635833,24.9814938 C37.7195833,24.9944938 47.5215833,39.6374938 44.6185833,54.4074938 C43.3955833,60.6884938 40.9275833,66.1764938 37.7815833,70.4284938 L7.34658327,70.4284938" id="Fill-155" fill="#FFD2A1"></path>
                            <polygon id="Fill-156" fill="#FFD2A1" points="15.6345833 29.1394938 29.4905833 29.1394938 29.4905833 24.0444938 15.6345833 24.0444938"></polygon>
                            <polygon id="Fill-157" fill="#F56C40" points="15.6345833 24.0444938 29.4905833 24.0444938 29.4905833 14.6304938 15.6345833 14.6304938"></polygon>
                            <polygon id="Fill-158" fill="#FFD2A1" points="18.3615833 14.6304938 26.7665833 14.6304938 26.7665833 12.6254938 18.3615833 12.6254938"></polygon>
                            <polygon id="Fill-159" fill="#F56C40" points="21.2745833 12.6254938 23.8535833 12.6254938 23.8535833 6.59349383 21.2745833 6.59349383"></polygon>
                            <polygon id="Fill-160" fill="#FFD2A1" points="20.1995833 6.59349383 24.9285833 6.59349383 24.9285833 2.61149383 20.1995833 2.61149383"></polygon>
                            <path d="M5.53058327,3.78049383 C5.56458327,3.96049383 10.5415833,2.45049383 17.1925833,3.34749383 C23.8435833,4.24449383 28.6015833,1.54349383 28.3645833,0.258493834 C28.2075833,-0.584506166 23.2305833,0.924493834 16.7015833,0.690493834 C10.1715833,0.456493834 5.41458327,3.15549383 5.53058327,3.78049383" id="Fill-161" fill="#FFD2A1"></path>
                            <path d="M36.2495833,37.9834938 C39.0165833,42.0674938 40.1885833,47.3904938 39.1365833,52.7394938 C38.2175833,57.4614938 36.3625833,61.5844938 33.9985833,64.7784938 L11.1305833,64.7784938 C8.76658327,61.5844938 6.90958327,57.4614938 5.99058327,52.7394938 C4.94058327,47.3904938 6.11058327,42.0674938 8.87558327,37.9834938 L36.2495833,37.9834938" id="Fill-162" fill="#F56C40"></path>
                        </g>
                    </g>
                </g>
            </g>
        </g>
    </g>
</svg>