<?xml version="1.0" encoding="UTF-8"?>
<svg width="326px" height="417px" viewBox="0 0 326 417" version="1.1" xmlns="http://www.w3.org/2000/svg" xmlns:xlink="http://www.w3.org/1999/xlink">
    <!-- Generator: Sketch 54.1 (76490) - https://sketchapp.com -->
    <title>Group 2</title>
    <desc>Created with Sketch.</desc>
    <g id="Main" stroke="none" stroke-width="1" fill="none" fill-rule="evenodd">
        <g id="LeGrandePlaneteVerte_Main02" transform="translate(-889.000000, -427.000000)">
            <g id="Content" transform="translate(-108.000000, 118.000000)">
                <g id="02" transform="translate(997.000000, 146.000000)">
                    <g id="Group-2" transform="translate(0.000000, 163.000000)">
                        <path d="M46.7662067,49.3736739 C6.8683392,87.3807132 -7.6545413,324.266676 52.2078562,381.423307 C112.071672,438.579938 259.008967,424.971149 299.825592,354.205729 C340.642216,283.441727 329.757499,125.582042 294.383942,62.982463 C259.008967,0.382883931 103.909197,-5.06006445 46.7662067,49.3736739" id="Fill-89" fill="#E8F4EA"></path>
                        <path d="M34.7662067,37.3736641 C-5.1316608,75.3821117 -19.6545413,312.268013 40.2078562,369.423211 C100.071672,426.579826 247.008967,412.971041 287.825592,342.207058 C328.642216,271.441656 317.757499,113.582012 282.383942,50.9824497 C247.008967,-11.617113 91.9091973,-17.06006 34.7662067,37.3736641" id="Fill-109" fill="#FFFFFE"></path>
                    </g>
                </g>
            </g>
        </g>
    </g>
</svg>