<?xml version="1.0" encoding="UTF-8"?>
<svg width="1145px" height="385px" viewBox="0 0 1145 385" version="1.1" xmlns="http://www.w3.org/2000/svg" xmlns:xlink="http://www.w3.org/1999/xlink">
    <!-- Generator: Sketch 54.1 (76490) - https://sketchapp.com -->
    <title>Group 2</title>
    <desc>Created with Sketch.</desc>
    <g id="Main" stroke="none" stroke-width="1" fill="none" fill-rule="evenodd">
        <g id="LeGrandePlaneteVerte_Main02" transform="translate(-270.000000, -402.000000)">
            <g id="Content" transform="translate(-108.000000, 118.000000)">
                <g id="Group-2" transform="translate(366.000000, 273.000000)">
                    <g id="002" transform="translate(1067.000000, 269.000000)">
                        <g id="Group-4" transform="translate(50.000000, 59.000000) rotate(-330.000000) translate(-50.000000, -59.000000) translate(24.000000, 6.000000)">
                            <path d="M33.0612631,105.772055 L33.9422631,104.778055 C28.0402631,100.332055 24.7932631,93.1850547 25.4692631,86.1240547 C25.6662631,84.0800547 26.1812631,82.0200547 26.6812631,80.0270547 C27.0222631,78.6630547 27.3762631,77.2530547 27.6302631,75.8430547 C28.4192631,71.4610547 27.9352631,67.8860547 26.1932631,65.2150547 L25.0072631,65.8850547 C26.5772631,68.2890547 27.0012631,71.5750547 26.2672631,75.6480547 C26.0202631,77.0190547 25.6722631,78.4090547 25.3352631,79.7530547 C24.8252631,81.7880547 24.2972631,83.8940547 24.0932631,86.0270547 C23.3782631,93.5000547 26.8132631,101.066055 33.0612631,105.772055" id="Fill-105" fill="#2E2F2C"></path>
                            <path d="M26.1422631,58.2180547 C27.9452631,61.5270547 29.7482631,64.8360547 31.5502631,68.1450547 C27.9632631,68.4440547 24.3412631,68.8970547 20.7542631,69.1960547 C22.2192631,65.6830547 24.6762631,61.7310547 26.1422631,58.2180547" id="Fill-107" fill="#1ECAC3"></path>
                            <path d="M51.6902631,23.6490547 C50.6602631,16.2850547 46.8382631,9.15105465 40.4982631,4.64505465 C34.1572631,0.140054653 25.2202631,-1.41394535 17.7562631,1.43905465 C11.8702631,3.68805465 7.34526306,8.38505465 4.46526306,13.6410547 C-0.446736936,22.6080547 -0.897736936,33.5250547 3.26526306,42.7110547 C6.72726306,50.3510547 16.9472631,62.5180547 27.4622631,60.9290547 C36.7712631,59.5230547 45.3922631,48.8000547 48.8202631,41.4400547 C51.4222631,35.8540547 52.5312631,29.6610547 51.6902631,23.6490547" id="Fill-108" fill="#1ECAC3"></path>
                            <path d="M38.7762631,12.8490547 C34.9162631,12.8490547 34.9092631,18.8490547 38.7762631,18.8490547 C42.6372631,18.8490547 42.6432631,12.8490547 38.7762631,12.8490547" id="Fill-109" fill="#F4F4F1"></path>
                        </g>
                    </g>
                    <g id="002" transform="translate(57.500000, 69.000000) scale(-1, 1) translate(-57.500000, -69.000000) ">
                        <g id="Group-4" transform="translate(57.420984, 68.668453) rotate(-330.000000) translate(-57.420984, -68.668453) translate(26.920984, 7.168453)">
                            <path d="M38.3129175,122.906576 L39.333861,121.751553 C32.494351,116.585324 28.7315775,108.280548 29.5149575,100.075702 C29.7432502,97.700585 30.340056,95.3068758 30.9194791,92.9910202 C31.3146456,91.4060593 31.7248772,89.7676466 32.0192241,88.129234 C32.9335537,83.0373728 32.3726722,78.8832415 30.3539622,75.7795534 L28.9795706,76.5580899 C30.7989591,79.3515254 31.2903099,83.1698402 30.4397168,87.902645 C30.1534818,89.4957398 29.7502033,91.1109126 29.3596722,92.6726336 C28.7686606,95.037293 28.1567899,97.484454 27.9203852,99.9629889 C27.0918102,108.646576 31.0724468,117.438228 38.3129175,122.906576" id="Fill-105" fill="#2E2F2C"></path>
                            <path d="M30.294861,67.6490759 C32.3842606,71.4941166 34.4736602,75.3391574 36.561901,79.1841981 C32.4051199,79.5316346 28.2077791,80.0580182 24.0509979,80.4054546 C25.7487075,76.323367 28.5959925,71.7311636 30.294861,67.6490759" id="Fill-107" fill="#EA8743"></path>
                            <path d="M59.9010625,27.4800782 C58.707451,18.9231486 54.278341,10.6334778 46.9312564,5.39752928 C39.5830129,0.162742776 29.2264049,-1.64299712 20.5767772,1.672174 C13.7558087,4.28550027 8.51202985,9.74338978 5.17455293,15.8508344 C-0.51769938,26.2704416 -1.040339,38.9559387 3.78393754,49.6300228 C7.79586293,58.5076629 19.6392706,72.6456535 31.8245379,70.7992438 C42.6122368,69.1654791 52.6026495,56.705409 56.5751741,48.1531274 C59.5904918,41.6622245 60.8756522,34.4659908 59.9010625,27.4800782" id="Fill-108" fill="#EA8743"></path>
                            <path d="M44.9357233,14.9305345 C40.4625772,14.9305345 40.4544652,21.9025032 44.9357233,21.9025032 C49.4100283,21.9025032 49.4169814,14.9305345 44.9357233,14.9305345" id="Fill-109" fill="#F4F4F1"></path>
                        </g>
                    </g>
                    <g id="element" transform="translate(84.000000, 354.000000)" fill="#9013FE">
                        <path d="M19.5317793,19.5995635 C22.9857793,15.9725635 22.9977793,22.2225635 21.2437793,24.2885635 C20.2497793,25.4595635 18.8687793,26.0065635 17.3667793,26.1505635 C17.0547793,23.8175635 17.8587793,21.3575635 19.5317793,19.5995635 Z M37.3047793,32.4705635 C31.5667793,34.9105635 24.4587793,35.0435635 19.7637793,30.5935635 C24.3867793,29.1225635 27.7547793,25.1405635 27.0927793,19.0265635 C26.6357793,14.8035635 22.6277793,12.6895635 18.8537793,14.5865635 C14.4787793,16.7845635 12.4937793,20.9555635 12.5257793,25.4935635 C11.4867793,25.1485635 10.5257793,24.7115635 9.73777929,24.2505635 C4.18077929,21.0015635 4.60777929,14.9505635 6.79177929,9.67056347 C7.28777929,8.47056347 5.40077929,7.39556347 4.59777929,8.39356347 C-1.55922071,16.0385635 0.205779291,26.3095635 9.74277929,30.1085635 C11.0477793,30.6295635 12.3917793,30.9655635 13.7267793,31.1255635 C17.9637793,39.8985635 32.8357793,42.0615635 39.4357793,35.2315635 C40.9207793,33.6945635 39.0567793,31.7255635 37.3047793,32.4705635 L37.3047793,32.4705635 Z" id="Fill-95" transform="translate(20.487944, 23.631731) rotate(-75.000000) translate(-20.487944, -23.631731) "></path>
                    </g>
                    <g id="element" transform="translate(1047.000000, 12.000000)" fill="#4A90E2">
                        <g id="Fill-117" transform="translate(32.000000, 31.500000) rotate(-315.000000) translate(-32.000000, -31.500000) translate(20.000000, -1.000000)">
                            <path d="M6.6497161,46.6325626 C6.11566525,46.0887948 4.15389644,43.991875 5.5601201,44.0058599 C7.12672436,44.0214901 8.45441114,45.1147842 9.54152702,46.0912628 C10.3128419,46.7831065 10.8940149,47.6361884 11.337955,48.5912782 C9.64734514,48.7056258 8.01377785,48.0178953 6.6497161,46.6325626 Z M13.2526017,21.4588298 C10.4145265,17.6458743 7.48551394,13.7481865 5.80978474,9.26806657 C3.95135394,4.29765079 8.083221,3.05545816 12.3266931,2.29451235 C13.6750475,2.05347762 13.2269739,0.157282921 12.022466,0.0610335585 C5.51134456,-0.462168103 0.14190147,2.35374273 1.12237253,9.46303323 C2.12433789,16.7261582 8.66108716,23.5935913 13.0500592,29.0872088 C15.0473763,31.5872242 17.1265371,34.0535113 18.8469083,36.7558973 C20.9996458,40.1344967 18.1227155,44.7544661 14.9010497,47.1376661 C14.6315441,46.4145619 14.31905,45.7062653 13.9544735,45.0168895 C11.8397644,41.0196617 5.24101232,37.3926238 1.28192642,40.9053142 C-3.09877858,44.7923077 4.88387615,51.7313109 8.23120103,52.8369446 C9.66801275,53.3107876 11.0965574,53.3593236 12.47798,53.110885 C12.8648775,56.774942 12.396963,60.822351 12.3589346,63.718881 C12.3390937,65.2053989 14.5637544,65.4974376 14.9473451,64.0676821 C15.9906457,60.1708169 16.5379238,55.8823731 16.0220604,51.7905412 C19.0444906,50.0588754 21.5444438,47.0628055 22.890318,44.2296191 C27.1395771,35.2858322 18.1582638,28.0514998 13.2526017,21.4588298 L13.2526017,21.4588298 Z" id="Fill-116"></path>
                        </g>
                    </g>
                </g>
            </g>
        </g>
    </g>
</svg>