<?xml version="1.0" encoding="UTF-8"?>
<svg width="1892px" height="818px" viewBox="0 0 1892 818" version="1.1" xmlns="http://www.w3.org/2000/svg" xmlns:xlink="http://www.w3.org/1999/xlink">
    <!-- Generator: Sketch 54.1 (76490) - https://sketchapp.com -->
    <title>Symbols</title>
    <desc>Created with Sketch.</desc>
    <g id="Page-1" stroke="none" stroke-width="1" fill="none" fill-rule="evenodd">
        <g id="Symbols">
            <g transform="translate(14.000000, 0.000000)" fill="#E8F4EA" fill-rule="nonzero">
                <path d="M61.9419764,204.31105 L157.129646,204.31105 C164.828688,204.31105 170.427906,205.184166 173.927471,206.930423 C177.427035,208.67668 179.760043,211.412442 180.926564,215.13779 C182.093085,218.863138 182.676337,223.810792 182.676337,229.9809 C182.676337,236.151009 182.093085,241.098663 180.926564,244.824011 C179.760043,248.549359 177.776986,251.110498 174.977335,252.507503 C170.544553,254.835846 164.478733,256 156.779692,256 L30.7960109,256 C14.4647113,256 4.89937937,251.576215 2.09972801,242.728513 C0.699902339,239.003165 0,233.06598 0,224.91678 L0,30.73397 C0,25.3787818 0.174975585,21.3624509 0.524932004,18.6848568 C0.874888422,16.0072626 1.98306713,12.9222548 3.84950136,9.42974079 C7.11576127,3.1432155 16.2144917,0 31.1459655,0 C47.4772651,0 57.1592475,4.30736939 60.1922031,12.9222374 C61.3587245,16.88042 61.9419764,22.9340202 61.9419764,31.0832196 L61.9419764,204.31105 Z M325.107888,91.5034106 C326.507713,78.4646915 335.723094,71.9454297 352.754306,71.9454297 C361.853173,71.9454297 368.618896,72.6439221 373.051677,74.0409277 C377.484459,75.4379263 380.575694,77.8826565 382.325476,81.3751705 C384.075258,84.8676846 385.125112,87.9526924 385.475068,90.6302865 C385.825024,93.3078806 386,97.3242115 386,102.6794 L386,224.91678 C386,230.271969 385.825024,234.288299 385.475068,236.965894 C385.125112,239.643488 384.133583,242.728495 382.500453,246.22101 C379.234193,252.274701 371.243642,255.301501 358.528558,255.301501 C345.813475,255.301501 337.297997,253.729893 332.981868,250.58663 C328.665738,247.443368 326.157752,242.84496 325.457842,236.791269 C316.825584,249.131485 302.419261,255.301501 282.238441,255.301501 C262.05762,255.301501 243.335233,246.104685 226.070716,227.710778 C208.8062,209.31687 200.174071,187.954646 200.174071,163.623465 C200.174071,139.292284 208.864525,117.988268 226.245694,99.7107776 C243.626862,81.4332874 262.699201,72.2946794 283.463282,72.2946794 C291.395627,72.2946794 298.627952,73.6916641 305.160471,76.4856753 C311.692991,79.2796865 316.242356,81.8990328 318.808704,84.3437926 C321.375051,86.7885525 323.474758,89.1750679 325.107888,91.5034106 Z M261.416138,164.14734 C261.416138,171.830871 264.449048,178.757586 270.514959,184.927694 C276.58087,191.097803 283.929845,194.18281 292.562103,194.18281 C301.194362,194.18281 308.368361,191.039595 314.084316,184.75307 C319.80027,178.466544 322.658205,171.539829 322.658205,163.972715 C322.658205,156.405601 319.916921,149.36247 314.43427,142.843111 C308.95162,136.323751 301.602645,133.06412 292.387126,133.06412 C283.171607,133.06412 275.705982,136.323751 269.990027,142.843111 C264.274072,149.36247 261.416138,156.463809 261.416138,164.14734 Z" id="La"></path>
                <path d="M1621.00265,622.15873 L1682.62599,622.15873 C1695.23083,622.624341 1702.93367,625.883568 1705.73475,631.936508 C1708.06898,636.35981 1709.23607,642.878264 1709.23607,651.492063 L1709.23607,728.31746 C1709.23607,735.767233 1705.9682,742.867691 1699.43236,749.619048 C1679.82484,769.873117 1650.41399,780 1611.19894,780 C1576.41892,780 1546.19111,766.904893 1520.51459,740.714286 C1494.83807,714.523679 1482,682.92082 1482,645.904762 C1482,608.888704 1495.07149,577.984251 1521.21485,553.190476 C1547.35822,528.396701 1578.16958,516 1613.64987,516 C1641.19377,516 1667.22004,525.079274 1691.72944,543.238095 C1698.03186,547.894203 1701.18302,553.074046 1701.18302,558.777778 C1701.18302,564.48151 1698.4987,571.058164 1693.12997,578.507937 C1684.02648,590.846623 1675.74009,597.015873 1668.27056,597.015873 C1663.83552,597.015873 1656.71623,593.814847 1646.91247,587.412698 C1637.1087,581.01055 1625.43773,577.809524 1611.8992,577.809524 C1594.15906,577.809524 1578.40325,584.036975 1564.6313,596.492063 C1550.85935,608.947152 1543.97347,625.243286 1543.97347,645.380952 C1543.97347,665.518619 1550.97606,682.629559 1564.98143,696.714286 C1578.98681,710.799012 1594.85933,717.84127 1612.59947,717.84127 C1625.43773,717.84127 1636.99199,715.746053 1647.2626,711.555556 L1647.2626,673.492063 L1619.60212,673.492063 C1612.36601,673.492063 1607.23078,672.560856 1604.19629,670.698413 C1601.16179,668.83597 1599.17772,666.100547 1598.24403,662.492063 C1597.31034,658.88358 1596.8435,653.99474 1596.8435,647.825397 C1596.8435,641.656054 1597.3687,636.709013 1598.4191,632.984127 C1599.4695,629.259241 1601.39521,626.69842 1604.19629,625.301587 C1608.3979,623.206339 1613.99996,622.15873 1621.00265,622.15873 Z M1862.59416,594.571429 C1867.0292,595.968261 1870.70556,598.35448 1873.62334,601.730159 C1876.54113,605.105837 1878,610.518481 1878,617.968254 C1878,625.418027 1875.78252,633.566093 1871.34748,642.412698 C1866.91244,651.259303 1860.49341,655.68254 1852.09019,655.68254 C1847.88857,655.68254 1843.86209,654.751332 1840.01061,652.888889 C1836.15913,651.026446 1831.08226,650.095238 1824.77984,650.095238 C1818.47742,650.095238 1812.58358,652.306856 1807.09814,656.730159 C1801.6127,661.153461 1798.87003,666.507905 1798.87003,672.793651 L1798.87003,746.126984 C1798.87003,751.481508 1798.69496,755.497341 1798.34483,758.174603 C1797.99469,760.851865 1796.88595,763.93649 1795.01857,767.428571 C1791.51722,773.481512 1782.41387,776.507937 1767.70822,776.507937 C1756.50392,776.507937 1748.45095,774.52912 1743.54907,770.571429 C1739.8143,767.312153 1737.71353,762.306912 1737.24668,755.555556 L1737.24668,622.857143 C1737.24668,617.502619 1737.42175,613.486786 1737.77188,610.809524 C1738.12202,608.132262 1739.11405,605.164037 1740.74801,601.904762 C1744.01593,595.619016 1753.11929,592.47619 1768.05836,592.47619 C1782.06373,592.47619 1790.81696,595.153412 1794.3183,600.507937 C1796.88595,604.232823 1798.16976,608.074054 1798.16976,612.031746 C1799.33688,610.402108 1801.02917,608.423292 1803.24668,606.095238 C1805.4642,603.767184 1810.19095,600.624358 1817.42706,596.666667 C1824.66317,592.708975 1831.02385,590.730159 1836.50928,590.730159 C1841.99472,590.730159 1846.60476,591.021161 1850.33952,591.603175 C1854.07429,592.185188 1858.15913,593.174596 1862.59416,594.571429 Z" id="Gr"></path>
            </g>
            <g id="Pattern" transform="translate(365.000000, 41.000000)" fill="#C8DFCC">
                <path d="M10,449 C10,451.761548 7.76134392,454 5.0004565,454 C2.23774308,454 0,451.761548 0,449 C0,446.238452 2.23774308,444 5.0004565,444 C7.76134392,444 10,446.238452 10,449" id="Fill-290"></path>
                <polyline id="Fill-276" points="1174.5 351 1176.50694 357.111118 1183 357.111118 1177.74653 360.887819 1179.75455 367 1174.5 363.223299 1169.24653 367 1171.25347 360.887819 1166 357.111118 1172.49306 357.111118 1174.5 351"></polyline>
                <polyline id="Fill-276-Copy" points="304.5 0 306.506944 6.11111849 313 6.11111849 307.746528 9.88781945 309.754545 16 304.5 12.223299 299.246528 16 301.253472 9.88781945 296 6.11111849 302.493056 6.11111849 304.5 0"></polyline>
                <path d="M940,771.500502 C940,774.536474 937.537478,777 934.499498,777 C931.462522,777 929,774.536474 929,771.500502 C929,768.462522 931.462522,766 934.499498,766 C937.537478,766 940,768.462522 940,771.500502" id="Fill-278"></path>
            </g>
            <g id="Cloud" transform="translate(0.000000, 116.000000)" fill="#FFFFFE">
                <path d="M1832.34886,45.0609236 C1810.57975,30.0944672 1787.03053,40.2754451 1771.18422,60.2677465 C1758.53776,28.1223693 1738.21022,-0.432078083 1711.07346,0.00495191396 C1689.87225,0.347292078 1673.90035,24.3730161 1675.38196,52.6634246 C1661.06277,49.3183242 1646.05737,48.2949456 1634.11895,58.6561984 C1623.2253,68.112435 1615.94284,87.0467596 1618.52018,106.188673 C1622.42261,135.156478 1644.06976,147.001812 1666.0591,149.993647 C1666.24658,150.5891 1666.64156,151.098968 1667.20581,151.115357 C1706.78335,152.368176 1746.37181,155.268963 1785.9348,155.640438 C1810.34131,155.869879 1847.69098,161.061431 1857.86931,123.01797 C1865.3447,95.0771858 1852.27232,58.759993 1832.34886,45.0609236" id="Fill-77"></path>
                <path d="M264.897503,466.799018 C238.942652,454.743224 209.645996,464.717834 189.324917,482.900258 C175.328839,455.426559 151.764703,431.442284 118.528565,433.07917 C92.5581219,434.3575 71.8992244,456.065724 72.4059521,480.691761 C55.0290908,478.4313 36.7089364,478.231236 21.6162475,487.829103 C7.84624781,496.585143 -1.94529001,513.447665 0.328488011,530.034775 C3.76644038,555.138887 29.7160945,564.476931 56.4947031,566.072245 C56.6973942,566.584097 57.157347,567.010207 57.8459769,566.999814 C106.23717,566.261916 154.563399,566.966037 202.975381,565.461661 C232.838532,564.534092 278.321888,567.340182 292.538848,533.664504 C302.980037,508.929341 288.653936,477.836305 264.897503,466.799018" id="Fill-75"></path>
            </g>
        </g>
    </g>
</svg>