<svg width="99" height="184" viewBox="0 0 99 184" xmlns="http://www.w3.org/2000/svg" xmlns:xlink="http://www.w3.org/1999/xlink">
    <title>
        Man
    </title>
    <defs>
        <path d="M11.013 11.033c-.383 0-.777-.018-1.179-.053a9.864 9.864 0 0 1-.832.035c-.867 0-1.778-.11-2.702-.347C2.233 9.627-.5 6.581.196 3.863.733 1.765 3.155.476 6.103.476c.871 0 1.789.113 2.716.35 1.224.313 2.324.811 3.249 1.424 3.284 1.444 5.338 3.823 4.811 5.882-.468 1.829-2.839 2.901-5.866 2.901z" id="a"/>
    </defs>
    <g fill="none" fill-rule="evenodd">
        <path d="M49.067 183.894C21.968 183.894 0 181.24 0 177.964s21.968-5.93 49.067-5.93 49.067 2.655 49.067 5.93-21.968 5.93-49.067 5.93" fill="#E7EEE8"/>
        <path d="M74.559 109.388l-.108-.152c-2.524-3.529-4.92-7.4-7.89-10.529-.672-.708-6.15-5.564-6.085-2.85.122 5.121 3.267 8.248 4.985 11.14 3.964 6.673 11.267 12.634 11.692 20.898.055 1.095-.018 2.387-.151 3.477-.1.822-1.214 2.21-.704 3.036.838 1.36 2.584-.495 2.844-1.38.177-.605.163-1.448.629-1.935.547-.57 1.149.158 1.613.438.821.497 1.631.983 2.404 1.581.488.378 1.011.826 1.634.954.73.15 1.234-.49 1.275-1.149.054-.836-.6-1.238-1.223-1.618-.825-.505-1.74-1.01-2.518-1.573 1.127.584 2.413 1.054 3.466 1.76.653.438 1.329.93 1.985.193.296-.332.638-.956.392-1.399-.306-.549-1.225-.883-1.748-1.143-1.093-.542-2.217-1.018-3.336-1.5.789.34 1.804.627 2.643.828.874.21 2.319.83 2.699-.434.292-.973-.654-1.087-1.399-1.23-.943-.182-2.043-.46-3.001-.465.674-.25 1.425-.233 2.085-.489 1.66-.642.253-1.829-1.028-1.366-1.396.506-2.598.65-4.063.901a36.352 36.352 0 0 0-.911-4.13c-1.21-4.262-3.633-8.286-6.181-11.864" fill="#F4C5B5"/>
        <path d="M61.149 106.486C49.101 86.191 59.444 89.64 63.022 93.17c1.229 1.212 7.283 8.391 7.037 8.458-3.633 1-5.732 3.611-8.91 4.86" fill="#E05862"/>
        <path d="M25.039 109.388l.109-.152c2.524-3.529 4.92-7.4 7.89-10.529.672-.708 6.15-5.564 6.085-2.85-.122 5.121-3.268 8.248-4.985 11.14-3.964 6.673-11.267 12.634-11.692 20.898-.055 1.095.018 2.387.151 3.477.1.822 1.214 2.21.704 3.036-.838 1.36-2.584-.495-2.844-1.38-.178-.605-.163-1.448-.629-1.935-.547-.57-1.149.158-1.613.438-.821.497-1.631.983-2.404 1.581-.488.378-1.012.826-1.634.954-.73.15-1.234-.49-1.276-1.149-.053-.836.601-1.238 1.224-1.618.825-.505 1.74-1.01 2.518-1.573-1.127.584-2.414 1.054-3.466 1.76-.653.438-1.329.93-1.985.193-.296-.332-.638-.956-.392-1.399.306-.549 1.225-.883 1.748-1.143 1.093-.542 2.217-1.018 3.336-1.5-.789.34-1.805.627-2.643.828-.874.21-2.319.83-2.699-.434-.292-.973.653-1.087 1.399-1.23.943-.182 2.043-.46 3.001-.465-.674-.25-1.425-.233-2.086-.489-1.659-.642-.253-1.829 1.029-1.366 1.396.506 2.598.65 4.063.901.234-1.42.515-2.739.911-4.13 1.21-4.262 3.633-8.286 6.18-11.864" fill="#F4C5B5"/>
        <path d="M38.45 106.486c12.048-20.295 1.705-16.847-1.873-13.317-1.229 1.212-7.283 8.391-7.037 8.458 3.633 1 5.732 3.611 8.91 4.86" fill="#E05862"/>
        <path d="M70.058 16.275c-1.321-2.476-3.217-4.51-6.376-5.51-5.404-1.71-10.774.613-10.536 6.67-.901-3.602-1.906-7.305-3.886-10.484C39.203-9.19 13.24 5.783 26.634 21.381c-3.726-2.366-7.35-5.656-12.096-3.723-4.378 1.782-5.093 6.821-3.981 10.997.845 3.172 2.491 5.032 4.356 7.595 4.774 6.562 4.047 11.325 2.71 18.884-.553 3.127-1.555 8.272 1.46 10.45 2.786-5.358.499-11.414 3.354-16.922 5.124-9.885 14.808-13.153 25.288-13.454 10.944-.314 24.194.033 32.172 8.83 1.562 1.721 2.238 3.916 4.612 4.753.777.273-2.886-7.87-3.139-8.388-2.05-4.193-4.772-8.03-6.786-12.223-1.843-3.836-2.528-8.157-4.526-11.905" fill="#EA8743"/>
        <path d="M54.795 122.87c-4.923-.647-9.987-1.47-14.385-.522-5.109 1.102-4.624 4.532-4.824 9.096-.246 5.616-.912 11.212-.91 16.838.003 5.067 1.321 10.485 1.99 15.565.718 5.45 10.197 5.29 10.602-.342.289-4.027-.309-8.238-.434-12.256-.064-2.086-.009-4.175.275-6.244.089-.66.95-6.2 1.558-6.21.496-.007.987-.013 1.485.034.287 6.192 1.614 12.334 1.608 18.533-.004 4.617-1.275 11.125 5.599 10.344 3.044-.346 4.374-.925 4.589-4.093.643-9.415 3.341-19.09 1.903-28.546-.591-3.884-1.357-7.676-1.627-11.607-2.363.032-4.877-.255-7.429-.59" fill="#415D5E"/>
        <path d="M59.105 97.925c4.139 14.181 3.547 29.993 4.724 33.3.171.482.842 1.362.921 1.778.552 2.891-2.456 2.148-4.702 2.257-6.251.305-13.049 1.93-19.269.923-1.54-.25-5.534-.863-6.279-2.436-.389-.824.185-1.022.256-1.786.125-1.327.48-2.65.649-3.977.844-6.6.774-13.316 1.791-19.913.694-4.497 1.757-8.946 3.689-12.993 1.981-4.152 4.508-6.184 9.108-6.222 6.555-.056 8.241 6.085 9.112 9.07" fill="#DC3C4A"/>
        <path d="M46.823 166.96c-.225 1.36-1.865 1.886-3.019 2.154-1.972.46-5.972.36-6.212-2.362-.737.742-1.248 1.745-1.788 2.63-.579.947-1.148 1.903-1.646 2.897-.563 1.122-1.133 2.137-1.007 3.42.058.593-.082 1.402.264 1.928.267.406 1.08.751 1.534.896 2.327.74 4.761.85 7.185.581.823-.09 1.731.006 2.441-.522.572-.424 1.023-.924 1.304-1.546.95-2.1 2.351-5.26 1.733-7.598-.17-.646-.126-2.115-.789-2.478" fill="#DC3C49"/>
        <path d="M44.569 178.472c-.798 1.663-2.833 1.267-4.313 1.19-1.97-.1-4.07.224-5.895-.725-2.075-1.08-.31-3.484 1.111-4.176 1.784-.869 4.287-.809 6.111-.104 1.326.513 3.809 2.105 2.986 3.815" fill="#FFFFFE"/>
        <path d="M33.171 177.111s.652 1.453 5.047 1.62c4.394.167 6.08-.172 6.843-.958 1.053-1.086 2.484-6.059 2.693-7.732 0 0 .116 1.681-.057 2.5-.171.816-1.215 6.683-2.793 7.298-1.578.616-4.223.9-6.628.674-2.407-.225-4.7-1.098-5.009-1.824-.31-.727-.263-1.376-.096-1.578" fill="#FFFFFE"/>
        <path d="M36.603 169.312c2.562-1.587 6.468.233 8.105 1.36.259.178-.369 1.284-.682 1.156a11.404 11.404 0 0 0-3.525-.789c1.316.127 2.531.404 3.55 1.19.154.118-.235.783-.413.695-1.025-.506-2.118-.7-3.411-.762-1.365-.066-2.779.247-4.117.186-.574-.026.21-1.183.4-1.356a4.381 4.381 0 0 1 1.377-.843c-.58.07-1.122.23-1.579.53-.601.394-.184-1.07.295-1.367" fill="#FFFFFE"/>
        <path d="M51.934 166.77c.164 1.368 1.778 1.967 2.919 2.287 1.949.546 5.95.625 6.311-2.083.704.775 1.169 1.8 1.669 2.707.536.973 1.062 1.954 1.515 2.968.513 1.146 1.037 2.186.853 3.461-.085.591.02 1.406-.35 1.916-.284.393-1.113.702-1.573.826-2.357.635-4.793.636-7.204.26-.817-.129-1.729-.072-2.416-.63-.551-.45-.979-.97-1.232-1.604-.855-2.14-2.113-5.36-1.392-7.668.2-.638.221-2.107.9-2.44" fill="#DC3C49"/>
        <path d="M53.669 178.371c.725 1.697 2.775 1.392 4.257 1.382 1.972-.014 4.056.405 5.922-.46 2.12-.987.466-3.468-.923-4.223-1.743-.948-4.248-.999-6.101-.377-1.348.453-3.899 1.933-3.155 3.678" fill="#FFFFFE"/>
        <path d="M65.117 177.521s-.715 1.422-5.113 1.393c-4.397-.03-6.067-.444-6.794-1.264-1.004-1.132-2.21-6.163-2.345-7.844 0 0-.191 1.674-.055 2.498.135.825.916 6.733 2.465 7.418 1.547.685 4.178 1.087 6.591.97 2.413-.118 4.745-.888 5.086-1.599.342-.712.324-1.362.165-1.572" fill="#FFFFFE"/>
        <path d="M61.717 169.59c-.394-.368-.942-.61-1.44-.697-1.465-.256-3.249.177-4.604.714-.727.29-1.477.611-2.164.985-.31.17-.103 1.323.241 1.208.984-.33 2.345-.625 3.637-.635-1.298.066-2.555.291-3.803 1.04-.188.113-.054.807.147.727 1.227-.495 2.614-.642 3.915-.774 1.517-.154 3.044-.284 4.565-.1.758.09.51-.527-.045-.658-.349-.083-.575-.122-.814-.42l.75-.336c.157-.219.072-.443-.056-.656a1.941 1.941 0 0 0-.329-.399" fill="#FFFFFE"/>
        <path d="M38.573 164.588c1.556.513 3.331.746 4.869.57.675-.077 1.43-.23 2.051-.509.548-.245.934-.825 1.457-1.04.633-.259.83.125.858.695.014.321-.182.593-.181.9.003.384.256.717.245 1.103-.016.591-1.23 1.921-1.679 2.25-1.391 1.017-3.395 1.314-5.066 1.03-1.779-.304-4.32-.606-4.604-2.765-.086-.655-1.012-2.578-.121-2.984.432-.197.643.128.999.292.371.17.763.324 1.172.458" fill="#4C7576"/>
        <path d="M60.327 165.075c-1.577.442-3.361.595-4.889.352-.672-.108-1.418-.295-2.027-.6-.536-.27-.895-.867-1.409-1.104-.62-.288-.835.087-.888.655-.029.32.156.6.14.906-.019.385-.287.706-.294 1.092-.01.591 1.144 1.974 1.577 2.322 1.345 1.08 3.333 1.466 5.015 1.256 1.792-.223 4.344-.412 4.724-2.556.116-.65 1.127-2.53.253-2.976-.421-.215-.648.1-1.01.247-.377.154-.778.29-1.192.406" fill="#4C7576"/>
        <path d="M12.228 61.547c2.883-4.058 7.455-1.953 9.644 1.475 1.64 2.568 2.26 8.046-1.377 9.295-2.271.781-5.591-.737-7.132-2.409-2.061-2.237-3.045-5.67-1.135-8.36" fill="#EEA18F"/>
        <path d="M89.804 64.676c-2.547-4.278-7.274-2.548-9.732.693-1.84 2.428-2.9 7.838.623 9.376 2.203.961 5.632-.285 7.303-1.827 2.236-2.063 3.493-5.407 1.806-8.242" fill="#EEA18F"/>
        <path d="M83.25 34.118c-3.49-7.49-13.462-8.945-20.798-9.926-11.887-1.589-23.019-2.832-34.302 2.764-13.524 6.71-7.776 27.73-8.257 39.668-.446 11.052 8.07 14.9 15.194 16.664 7.124 1.763 11.822 3.044 11.35 5.608-.473 2.563-2.679 9.691 3.031 9.921l.171.005.17.01c5.71.23 4.327-7.143 3.6-9.78-.692-2.514 4.616-3.363 11.859-4.547 6.678-1.092 14.442-4.585 16.256-11.832.967-2.855 1.255-9.97 1.255-9.97.673-8.302 3.845-19.778.826-27.744-.11-.289-.228-.568-.355-.84" fill="#F4C5B5"/>
        <path d="M52.319 69.323c-.455.22-.949.384-1.464.387-.568.002-1.049-.24-1.552-.468-.63-.285-1.459-.707-.912-1.533.325-.49.948-.35 1.423-.205.525.162 1.18.365 1.73.262.546-.103 1.077-.457 1.638-.47.721-.017.787.948.402 1.374-.321.358-.814.431-1.226.634l-.039.02" fill="#CA978A"/>
        <g transform="translate(22.34 61.481)">
            <mask id="b" fill="#fff">
                <use xlink:href="#a"/>
            </mask>
            <path fill="#EA918A" mask="url(#b)" d="M-.5 11.033h17.906V.476H-.5z"/>
        </g>
        <path d="M72.297 74.147a10.12 10.12 0 0 1-1.667-.135l-.091.001c-3.545 0-6.346-1.329-6.702-3.407-.359-2.096 1.879-4.3 5.269-5.476a10.663 10.663 0 0 1 3.353-1.157 11.204 11.204 0 0 1 1.896-.164c3.328 0 6.054 1.551 6.455 3.884.474 2.766-2.495 5.582-6.632 6.292-.641.11-1.271.162-1.881.162" fill="#EA918A"/>
        <path d="M33.67 65.22c2.744.303 3.234-4.67.701-5.323-3.402-.877-3.421 5.022-.701 5.322" fill="#0A090B"/>
        <path d="M68.159 66.623c2.751.24 3.123-4.744.577-5.337-3.423-.797-3.302 5.101-.577 5.337" fill="#0A090B"/>
        <path d="M50.815 77.11c-1.706-.074-4.386-.597-5.532-2.036-1.02-1.283-.675-2.148 1.053-2.237 2.478-.127 4.43 1.638 7.091 1.261.963-.137 2.947-.72 2.58.951-.37 1.685-3.853 2.101-5.192 2.061" fill="#E57B7D"/>
        <path d="M53.026 74.136c.104.057.21.11.312.173.44.46.871 1.235 1.301 2.103-1.235.561-2.967.724-3.824.698-1.679-.072-4.294-.586-5.468-1.973a7.084 7.084 0 0 1 3.952-1.748c1.183.395 2.366.836 3.727.747" fill="#BF565D"/>
        <path d="M55.029 75.106c-1.026.26-8.391-.126-9.183-1.022-.288-.326-.316-.739-.236-1.134.209-.055.442-.098.726-.113 2.478-.127 4.43 1.638 7.091 1.261.602-.086 1.605-.346 2.182-.119.029.484-.07.997-.58 1.127" fill="#FFFFFE"/>
        <path d="M36.21 48.437c.094-4.462-5.677-1.323-6.63 1.031.441-.205 6.649-1.927 6.63-1.03" fill="#EA8743"/>
        <path d="M65.655 50.186c-1.407-4.236 5.033-2.939 6.639-.97-.481-.067-6.921.12-6.639.97" fill="#EA8743"/>
        <path d="M22.256 43.913c.303-.675.644-1.358 1.016-2.066 5.874-11.195 20.715-11.964 32.131-11.84 6.485.071 11.636.777 17.478 3.202-6.715 4.447 2.625 10.488 7.093 10.473-.469 5.188-.151 9.925 2.078 14.785-1.704 1.511-3.784 7.59-.335 4.897.001-.162-.003-.166-.012-.012-.255.757-.08 1.588-.231 2.348 6.438-1.73 5.288-22.006 4.514-26.59-3.647-21.616-31.692-22.205-48.503-18.772-8.69 1.775-15.872 6.754-18.16 15.716-1.024 4.013-.976 8.297-.953 12.398.013 2.231-1.282 15.528 2.703 16.064 2.585.348 1.473-3.782.191-4.636 3.911-1.38.437-4.956-.088-7.44-.697-3.302-.125-5.839 1.078-8.527" fill="#EA8743"/>
        <path d="M85.068 37.556c-4.158-1.59-6.323-5.288-6.886-9.505-.209-1.568-.661-8.448 2.752-6.642 2.114 1.118 1.372 5.596 2.403 7.331 2.407-2.3 4.689.961 2.929 3.063 4.883 1.822 4.744 8.027-1.198 5.753" fill="#EA8743"/>
    </g>
</svg>
