<svg width="104" height="168" viewBox="0 0 104 168" xmlns="http://www.w3.org/2000/svg">
    <title>
        Girl
    </title>
    <g fill="none" fill-rule="evenodd">
        <path d="M52.048 167.572c-27.1 0-49.067-2.655-49.067-5.93 0-3.276 21.967-5.931 49.067-5.931s49.067 2.655 49.067 5.93c0 3.276-21.968 5.93-49.067 5.93" fill="#E7EEE8"/>
        <path d="M94.64 75.59c-1.123-4.863-2.34-9.771-3.81-14.54-1.278-4.138-.657-6.777.111-11.077 1.77-9.928 1.112-20.133-2.509-29.547-3.339-8.683-5.775-12.028-14.24-16.271C55.508-5.21 23.415 1.43 15.233 22.308c-3.65 9.315-.327 19.353.634 28.882.936 9.29.48 19.194-1.862 28.254-1.863 7.208-3.664 15.118 3.787 19.876 3.212 2.05 6.41 3.09 9.712.468 2.424 6.937 10.497 2.436 13.845-1.25 2.306 2.185 5.227 5.038 8.465 5.46 1.982.258 3.432-.526 4.741-1.31 1.142-.684 2.177-1.368 3.365-1.36 2.62.019 4.332 2.984 7.693 2.508 2.655-.376 5.781-3.484 7.786-5.045 4.008 5.22 11.13 2.26 14.22-2.291 10.73 2.378 9.75-9.093 7.02-20.91" fill="#00A395"/>
        <path d="M87.39 92.57c4.566-2.92-.165-8.408-.365-12.045-2.993 5.204-5.757 10.182-2.848 16.112-6.58-1.186-7.419-10.508-7.605-15.963-2.513 1.799-4.597 7.01-2.576 10.206-3.826-4.8-6.299-8.455-5.568-15.04.726-5.901 2.126-10.89 2.172-17.024 4.272 6.167 7.417 10.962 9.634 18.25 2.781-7.25-.35-13.863.386-21.13 2.026 2.516 3.815 6.392 4.698 9.807.023-2.953.046-6.135.521-8.858-.3 1.727 14.033 41.092 1.55 35.686" fill="#00A49D"/>
        <path d="M23.527 94.364c-6.619 1.117-6.23-8.514-5.506-12.531 1.516-8.407 6.626-15.754 6.692-24.497.41 5.91 2.182 12.059 2.363 18.196 3.406.252 4.577-4.283 6.411-6.542.637 5.913-7.475 27.21 4.565 27.528-4.385 9.056-12.218-6.908-12.872-10.548-2.059 1.802-2.317 5.89-.516 8.176-3.87 1.107-7.25-2.781-7.45-6.418l6.313 6.636" fill="#00A49D"/>
        <path d="M11.292 47.794c2.996-4.354 7.883-2.191 10.261 1.413 1.781 2.7 2.526 8.506-1.314 9.889-2.399.864-5.946-.694-7.609-2.445-2.224-2.341-3.323-5.971-1.338-8.857" fill="#F2B69C"/>
        <path d="M93.692 49.89c-2.77-4.501-7.762-2.59-10.319.889-1.916 2.607-2.956 8.367.81 9.943 2.352.985 5.973-.39 7.723-2.055 2.34-2.225 3.622-5.794 1.786-8.777" fill="#F2B69C"/>
        <path d="M86.253 17.556c-3.825-7.897-14.432-9.284-22.236-10.21-12.643-1.498-24.48-2.641-36.368 3.477-14.25 7.335-7.817 29.559-8.14 42.239-.298 11.739 8.803 15.69 16.393 17.449 7.59 1.759 12.598 3.045 12.137 5.774-.46 2.729-2.69 10.33 3.374 10.485l.181.002.181.007c6.066.154 4.481-7.65 3.668-10.44-.774-2.656 4.846-3.641 12.516-5.012 7.072-1.265 15.258-5.096 17.07-12.817.981-3.046 1.174-10.603 1.174-10.603.585-8.824 3.77-21.056.44-29.465-.122-.304-.252-.6-.39-.886" fill="#F5C7B6"/>
        <path d="M53.701 54.989c-.48.24-1 .423-1.548.434-.604.013-1.117-.237-1.655-.471-.674-.293-1.56-.728-.992-1.613.336-.527 1.001-.387 1.506-.24.561.163 1.26.369 1.842.25.577-.118 1.136-.502 1.731-.525.764-.03.85.995.45 1.453-.337.385-.859.47-1.294.692l-.04.02" fill="#D79D89"/>
        <path d="M31.593 59.116c-.87 0-1.785-.104-2.71-.326-4.335-1.041-7.284-4.232-6.588-7.13.546-2.273 3.176-3.688 6.378-3.688.876 0 1.796.106 2.728.33a11.33 11.33 0 0 1 3.471 1.46c3.51 1.48 5.727 3.973 5.2 6.168-.478 1.99-3.075 3.173-6.386 3.173-.342 0-.692-.012-1.048-.038-.34.034-.689.05-1.045.05" fill="#ED9F97"/>
        <path d="M75.09 60.222c-.553 0-1.09-.04-1.604-.118a16.91 16.91 0 0 1-.317.003c-3.66 0-6.545-1.355-6.949-3.512-.414-2.22 1.927-4.596 5.507-5.896a11.38 11.38 0 0 1 3.541-1.282 11.944 11.944 0 0 1 2.18-.205c3.456 0 6.29 1.592 6.744 4.023.547 2.928-2.56 5.965-6.94 6.785-.738.137-1.462.202-2.162.202" fill="#ED9F97"/>
        <path d="M33.087 51.308c2.865.62 3.925-4.58 1.321-5.544-3.497-1.298-4.16 4.93-1.32 5.544" fill="#0A090B"/>
        <path d="M70.684 52.296c2.918.273 3.35-5.014.65-5.662-3.627-.871-3.542 5.39-.65 5.662" fill="#0A090B"/>
        <path d="M43.138 56.063c1.767 6.477 10.046 6.299 15.083 4.223.502-.206.311-1.864-.24-1.601-3.176 1.509-5.513 2.134-8.94 1.049-2.353-.745-4.364-1.876-5.69-4.045-.179-.293-.247.25-.213.374" fill="#BB5A6C"/>
        <path d="M29.802 35.574c9.543-4.173 19.378-2.51 29.534-5.212 6.631-1.764 12.676-2.311 15.88-9.604-2.16 4.915 2.322 11.093 4.79 14.89 3.776 5.81 3.314 9.548 4.51 16.034.31-.67 1.006-1.465 1.333-2.232-.096.81-.022 1.795-.15 2.593 3.135-10.297 5.556-18.278 3.54-29.231C85.023-.078 55.244-.26 37.452 3.65 19.216 7.658 9.275 28.969 17.965 45.56c2.647-2.592 4.685-5.902 8.1-8.022a29.443 29.443 0 0 1 3.737-1.964" fill="#00A395"/>
        <path d="M47.524 75.79c5.035-.53 8.727.093 8.727.093l.883.966-.66 3.444-2.237 2.085-5.694-.152s-1.728-3.457-1.728-3.711c0-.255.71-2.724.71-2.724" fill="#F5C7B6"/>
        <path d="M49.441 123.02c-.99-2.874-3.895-5.828-6.889-3.792-3.869 2.629-3.184 12.602-3.016 16.773.131 3.268.737 6.62 1.175 9.874.344 2.559-.4 6.885 1.125 9.099 1.223 1.774 4.688 2.37 6.364.9 2.027-1.777 1.491-4.562 1.307-6.885-.353-4.432-.713-8.932-.378-13.687.288-4.091 1.741-8.131.312-12.282" fill="#F5C7B6"/>
        <path d="M54.922 135.902c-.027-2.797-.543-5.505-.84-8.324-.277-2.617.364-4.843 2.297-6.8 1.491-1.51 4.373-2.831 6.413-1.4 2.355 1.655 2.317 5.377 2.28 7.927-.048 3.176.171 6.173-.004 9.346-.218 3.968-.916 7.737-1.164 11.717-.115 1.858.525 4.819-.578 6.449-1.285 1.902-5.023 2.664-6.73 1.12-1.505-1.357-1.034-3.424-1.113-5.287-.204-4.861-.515-9.93-.56-14.748" fill="#F5C7B6"/>
        <path d="M41.392 150.708l.191.153c.67.506 1.157.659 2.011.755 1.426.16 2.92-.138 4.224-.722.665-.298 2.85-2.07 2.477-.142-.116.595-.522 1.09-.678 1.67-.169.632.016.91-.61 1.33-.93.624-2.03 1.259-3.133 1.474-1.364.266-3.83.179-4.882-.914-.64-.667-.31-1.608-.45-2.373-.094-.515-1.13-1.125-.61-1.682.382-.406 1.054.122 1.46.45" fill="#FFFFFE"/>
        <path d="M49.776 151.92c-.206 1.364-1.837 1.914-2.987 2.2-1.965.487-5.966.447-6.246-2.27-.727.753-1.223 1.764-1.749 2.656-.565.956-1.119 1.92-1.603 2.92-.546 1.132-1.1 2.155-.956 3.435.067.593-.06 1.404.293 1.926.272.4 1.091.734 1.548.872 2.336.705 4.772.779 7.192.474.821-.103 1.731-.02 2.434-.558.564-.433 1.008-.94 1.28-1.565.918-2.114 2.272-5.294 1.62-7.623-.18-.644-.158-2.113-.826-2.467" fill="#ED9A3A"/>
        <path d="M36.278 162.004s.674 1.373 5.07 1.472c4.397.097 6.077-.248 6.828-1.006 1.038-1.05 2.392-5.798 2.576-7.393 0 0 .141 1.597-.019 2.378-.16.78-1.114 6.376-2.682 6.982-1.568.608-4.209.914-6.618.733-2.408-.181-4.715-.98-5.036-1.667-.32-.686-.284-1.305-.119-1.5" fill="#FFFFFE"/>
        <path d="M63.367 150.874l-.193.149c-.676.496-1.167.64-2.022.725-1.429.139-2.918-.182-4.213-.786-.66-.308-2.818-2.112-2.474-.178.106.596.505 1.097.652 1.68.16.634-.029.909.592 1.339.921.637 2.01 1.289 3.11 1.52 1.358.286 3.827.237 4.894-.841.65-.657.335-1.603.486-2.366.101-.513 1.147-1.107.635-1.673-.376-.411-1.056.107-1.467.43" fill="#FFFFFE"/>
        <path d="M54.966 152.048c.185 1.367 1.808 1.942 2.953 2.244 1.958.518 5.96.537 6.28-2.176.716.764 1.195 1.782 1.71 2.682.55.965 1.09 1.938 1.557 2.946.53 1.138 1.07 2.17.905 3.447-.076.593.041 1.405-.322 1.92-.278.398-1.1.72-1.56.85-2.348.67-4.783.708-7.199.367-.82-.116-1.73-.046-2.425-.595-.559-.441-.994-.954-1.257-1.584-.886-2.128-2.192-5.328-1.505-7.647.19-.64.19-2.11.863-2.454" fill="#ED9A3A"/>
        <path d="M68.311 162.244s-.694 1.363-5.092 1.395c-4.397.032-6.073-.338-6.812-1.108-1.022-1.063-2.304-5.833-2.463-7.43 0 0-.167 1.595-.019 2.377.15.783 1.02 6.393 2.578 7.023 1.558.63 4.195.976 6.606.83 2.411-.144 4.73-.908 5.061-1.59.331-.681.302-1.3.141-1.497" fill="#FFFFFE"/>
        <path d="M39.782 155.59c-.33.16-.253 1.547.105 1.456 1.025-.26 2.426-.43 3.725-.273-1.312-.091-2.599.01-3.938.729-.203.11-.146.946.065.877 1.214-.4 2.345-.424 3.604-.263 1.33.17 2.527.785 3.83.957.557.072.356-1.401.257-1.634a3.135 3.135 0 0 0-.913-1.22c.521.184.96.468 1.253.895.386.562.68-1.2.363-1.628-1.689-2.29-6.263-.898-8.35.105" fill="#FFFFFE"/>
        <path d="M64.962 157.69c-1.275-.708-2.51-.848-3.769-.796 1.277-.116 2.633.073 3.621.339.347.094.384-1.294.054-1.458-2.087-1.042-6.626-2.483-8.354-.216-.32.42.014 2.187.42 1.614.282-.4.693-.67 1.18-.846-.384.31-.7.703-.919 1.199-.11.253-.238 1.688.313 1.624 1.122-.13 2.163-.654 3.293-.827 1.411-.216 2.71-.244 4.076.23.29.1.298-.744.085-.863" fill="#FFFFFE"/>
        <path d="M44.728 77.093c1.56 2.625 1.432 6.58.107 9.225-.51 1.008-1.514 2.866-2.835 2.939-2.43.135-1.536-3.62-1.166-5.642.371-2.022 2.965-8.086 3.894-6.522" fill="#F5C7B6"/>
        <path d="M59.05 77.172c-1.598 2.6-1.703 6.947-.418 9.61.495 1.016 1.467 2.972 2.791 2.983 2.411.018 1.59-3.597 1.25-5.624-.34-2.028-2.67-8.52-3.623-6.97" fill="#F5C7B6"/>
        <path d="M62.695 7.008c-8.424-2.738-18.439-1.07-26.439 2.279-3.915 1.638-7.228 3.8-10.334 6.67-1.726 1.596-3.492 3.266-4.88 5.17-1.189 1.632-1.752 4.852-3.025 6.143 3.298-3.344 9.618-6.166 14.312-6.14-5.838 3.849-13.203 7.625-15.503 14.817 2.78-2.922 7.142-5.48 11.116-6.221-2.732 2.99-5.627 5.46-7.345 9.367 4.142-3.14 8.252-5.461 13.121-7.314 10.512-4.001 24.01-1.487 32.483-10.214-5.922 1.774-11.576-1.677-17.49-.813 1.016-.148 3.928-3.251 5.215-3.885 2.096-1.033 4.398-1.61 6.505-2.602-3.543-1.232-9.219-2.592-12.773-.6 3.928-3.738 9.837-6.75 15.037-6.657" fill="#00A49D"/>
        <path d="M19.601 48.017s-12.568-22.267 7.33-35.55C46.826-.812 68.441 3.872 75.871 8.71c7.43 4.839 15.845 14.685 11.41 40.322 0 0 11.292-23.333-5.816-38.795C64.356-5.226 39.162.11 24.514 9.735c-14.648 9.625-12.843 28.86-4.913 38.282" fill="#EE9F39"/>
        <path d="M79.188 84.362l-.175-.064c-4.074-1.492-15.347-6.453-19.564-7.363 0 0-2.105 6.24.943 7.66 7.036 3.28 26.361 7.007 31.368 13.594.664.873 1.331 1.98 1.836 2.956.381.736.243 2.51 1.13 2.906 1.457.649 1.856-1.866 1.572-2.743-.195-.601-.682-1.288-.572-1.953.13-.78 1.038-.518 1.58-.548.958-.052 1.901-.107 2.876-.048.617.036 1.302.112 1.888-.134.687-.287.743-1.1.406-1.668-.427-.72-1.194-.684-1.923-.647-.965.049-2.006.147-2.966.12 1.26-.152 2.587-.49 3.855-.5.787-.005 1.622.019 1.75-.958.057-.442-.014-1.15-.467-1.377-.56-.282-1.509-.04-2.088.04-1.207.169-2.404.409-3.6.642.843-.164 1.844-.5 2.65-.806.84-.32 2.383-.621 1.984-1.88-.307-.968-1.152-.53-1.848-.227-.882.38-1.946.772-2.74 1.307.415-.586 1.045-.995 1.446-1.58 1.008-1.465-.822-1.653-1.619-.548-.869 1.206-1.78 2-2.85 3.035a36.43 36.43 0 0 0-3.08-2.9c-3.4-2.837-7.67-4.795-11.792-6.316" fill="#F5C7B6"/>
        <path d="M24.172 84.127l.176-.062c4.096-1.431 15.442-6.222 19.673-7.068 0 0 2.01 6.27-1.059 7.645-7.084 3.174-26.462 6.61-31.568 13.122-.677.862-1.36 1.96-1.88 2.928-.392.73-.28 2.506-1.173 2.888-1.467.628-1.827-1.893-1.53-2.766.203-.598.7-1.278.6-1.944-.118-.782-1.03-.534-1.57-.571-.959-.067-1.9-.136-2.877-.092-.616.028-1.303.092-1.885-.162-.682-.297-.727-1.11-.38-1.674.436-.714 1.204-.665 1.931-.618.965.063 2.004.177 2.964.165-1.257-.171-2.58-.53-3.847-.558-.786-.017-1.622-.006-1.734-.985-.05-.442.03-1.15.486-1.37.566-.273 1.51-.016 2.087.073 1.205.186 2.4.444 3.591.694-.84-.176-1.836-.525-2.637-.844-.835-.333-2.374-.657-1.957-1.91.322-.963 1.16-.512 1.852-.2.876.394 1.934.8 2.721 1.348-.407-.591-1.03-1.01-1.423-1.6-.986-1.481.846-1.641 1.627-.524.851 1.217 1.75 2.027 2.803 3.076a36.451 36.451 0 0 1 3.124-2.853c3.442-2.786 7.741-4.68 11.885-6.138" fill="#F5C7B6"/>
        <path d="M67.892 117.29a18.002 18.002 0 0 0-.57-1.934c-1.069-2.95-1.686-6.366-1.977-9.481-.38-4.09-1.095-8.12-1.549-12.217-.102-.916-.756-5.88-.695-6.435-.622.389-1.738.593-2.396-.09-2.153-2.233-1.75-7.397-1.109-10.16-.982-.336-2.304-1.248-3.345-1.09.101.867.64 1.99.22 2.843-.27.55-.807.94-1.339 1.214-1.763.904-3.539 1.15-5.486.652-2.284-.585-2.51-2.582-2.122-4.801-1.163-.105-2.579.604-3.545 1.2 2.2 2.624 1.374 8.36-1.15 10.499-.756.64-1.548.793-2.459.36.317.15-.618 9.98-.645 10.859-.123 3.998-.385 7.998-1.122 11.934-1.049 5.605-.418 11.797-2.5 17.156-.738 1.898-1.53 3.408 1.097 4.346 2.717.97 6.061-.366 8.847-.541 3.36-.212 6.72-.346 9.89.99 4.66 1.966 9.26-.8 13.626-2.505.584-.228 1.17-.453 1.754-.677-.357-2.167-1.4-4.07-2.07-6.121-.644-1.978-.877-4.01-1.355-6.001" fill="#213134"/>
        <path d="M37.89 32.302c-.973-1.26-2.622-1.901-4.167-1.364-1.405.488-2.503 1.776-2.428 3.316.012.238.266.915.504.414.605-1.272 1.042-2.135 2.544-2.443 1.21-.25 2.414.119 3.404.803.265.183.243-.595.143-.726" fill="#0A090B"/>
        <path d="M68.21 33.798c1.016-.618 2.034-.814 3.212-.672 1.521.183 2.105 1.236 2.6 2.514.174.453.485.258.528-.151.381-3.623-4.36-4.958-6.508-2.411-.116.136-.11.888.167.72" fill="#0A090B"/>
    </g>
</svg>
