<svg width="2172" height="420" viewBox="0 0 2172 420" xmlns="http://www.w3.org/2000/svg" xmlns:xlink="http://www.w3.org/1999/xlink">
    <title>
        Illustration
    </title>
    <defs>
        <path id="a" d="M0 0h2172v420H0z"/>
    </defs>
    <g fill="none" fill-rule="evenodd">
        <mask id="b" fill="#fff">
            <use xlink:href="#a"/>
        </mask>
        <path d="M146.582 259l6.418 5a237.238 237.238 0 0 0-11-3.527c1.523-.515 3.052-.978 4.582-1.473zm1973.983 83.636c-87.603-94.738-220.06-131.431-345.299-133.334-85.956-1.31-171.32 10.624-256.544 20.16-84.659 9.468-168.905 13.932-254.07 10.064-169.928-7.72-338.219-38.57-508.542-39.512-86.42-.475-171.38 11.338-257.258 19-83.228 7.426-168.121-5.06-249.398 4.313C96.77 240.936 18.85 333.998 0 420h2172c-12.57-28.151-29.982-54.163-51.435-77.364z" fill="#84B197" mask="url(#b)"/>
        <path d="M1949 420c-5.535-2.86-11.409-5.656-16.981-8.377-94.053-45.915-195.097-76.276-297.158-98.666-107.259-23.532-216.401-38.716-325.954-46.294-229.998-15.91-462.27 1.994-687.62 50.068-114.82 24.494-227.55 57.483-340.088 90.62-14.264 4.2-28.935 8.432-43.199 12.649h1711z" fill="#9BCEB2" mask="url(#b)"/>
        <path d="M137.044 545.52c62.19-26.632 124.542-53.64 189.371-73.301 64.948-19.694 132.019-30.522 199.127-39.75 135.86-18.68 272.25-35.355 409.22-43.111 132.748-7.521 266.363-6.363 398.348 10.894 132.786 17.356 260.679 56.287 390.939 85.84 68.01 15.428 137.032 28.07 206.776 31.885 54.89 3.001 122.344 7.178 166.12-32.48.744-.674-.362-1.776-1.1-1.101-46.156 42.219-120.803 35.918-178.702 32.055-66.293-4.424-131.708-16.568-196.353-31.514-126.799-29.32-251.13-67.605-380.424-85.205-262.791-35.771-529.036-7.602-790.279 27.499-70.82 9.515-141.869 19.605-210.71 39.292-69.82 19.967-136.453 49.006-202.768 78.249-.513.224-.07.962.435.748" fill="#84B197" mask="url(#b)"/>
        <path d="M1503.518 342.714c44.792 21.66 89.777 43.392 137.017 59.278 38.216 12.848 89.674 30.706 130.186 18.01 24.362-7.632 38.957-29.564 9.74-41.763-45.507-19.001-100.921-21.276-149.209-15.86-.84.092-1.305 1.205-.457 1.692 36.24 21 77.272 27.993 118.433 20.288.985-.185.568-1.685-.413-1.5-24.114 4.512-48.45 4.32-72.335-1.678-10.102-2.537-29.954-6.267-36.79-14.157-3.575-4.129-3.232-2.864 5.026-4.151 5.508-.859 11.34-.715 16.892-.863a333.62 333.62 0 0 1 73.725 6.271c12.13 2.415 24.284 5.342 36.019 9.268 4.398 1.471 10.743 2.725 14.367 5.67 21.024 17.103-1.866 29.667-13.088 33.818-39.926 14.761-93.338-3.89-131.668-16.59-47.211-15.642-92.203-37.084-137.01-58.477-.498-.24-.937.501-.435.744" fill="#84B197" mask="url(#b)"/>
        <path d="M1263.263 360.525c.096.814-.247 1.82-.287 2.658-.033.667-.033 1.327.018 1.994.122 1.515.35 2.927 1.01 4.306.295.627 1.036.94 1.685.97.376.014.66-.096.988-.27.605-.313.962-1.02.966-1.684.011-1.556-.453-3.056-1.047-4.483a16.013 16.013 0 0 0-.77-1.604c-.358-.656-1.051-1.35-1.287-2.06-.218-.65-1.364-.594-1.276.173" fill="#84B197" mask="url(#b)"/>
        <path d="M1273.612 355.378c.803 3.13.95 6.632.678 9.847-.206 2.404-1.865 5.504-.295 7.635.365.498.93.822 1.563.638 3.204-.933 3.174-5.504 3.034-8.273-.195-3.974-1.622-7.13-3.952-10.278-.361-.49-1.194-.225-1.028.431" fill="#84B197" mask="url(#b)"/>
        <path d="M1288.277 357.79c.837 2.628-.354 6.639-1.298 9.183-.903 2.436-2.363 4.534-3.336 6.927-1.442 3.535 4.1 6.698 6.477 3.771 2.3-2.831 3.234-6.474 3.075-10.098-.07-1.577-.265-3.037-.697-4.549-.634-2.212-1.898-3.469-2.805-5.626-.35-.84-1.71-.538-1.416.391" fill="#84B197" mask="url(#b)"/>
        <path d="M374.272 411.691c13.327.657 27.045-2.318 37.714-10.669.686-.534-.185-1.519-.889-1.154-11.849 6.135-23.314 10.511-36.825 10.957-.56.018-.557.837 0 .866" fill="#84B197" mask="url(#b)"/>
        <path d="M456.686 385.221c.085-1.32.336-2.19-.604-3.192-.376-.398-1.092-.398-1.468 0-.94 1.002-.689 1.873-.604 3.192.11 1.722 2.566 1.726 2.676 0" fill="#84B197" mask="url(#b)"/>
        <path d="M714.651 338.59c-7.487-9.763-22.09-16.163-32.925-6.972-7.76 6.58-9.265 19.362-2.01 26.757 19.514 19.886 105.044 17.943 99.123-22.643-.202-1.394-2.488-1.327-2.75 0-5.305 27.244-34.455 30.603-57.84 29.703-9.747-.372-25.098-.826-33.625-6.735-12.362-11.71-9.036-21.541 9.968-29.504 8.188.8 14.559 4.176 19.112 10.127.453.497 1.371-.18.947-.734" fill="#84B197" mask="url(#b)"/>
        <path d="M1425.354 325.756c-2.54 3.89-5.541 8.369-6.688 12.918-.195.77.793 1.408 1.371.8 3.226-3.4 5.405-8.317 7.33-12.542.615-1.35-1.18-2.455-2.013-1.176" fill="#84B197" mask="url(#b)"/>
        <path d="M1439.993 333.863c.314 1.486-.885 2.27-1.913 3.052-1.243.944-.608 3.355 1.161 2.758 2.614-.889 3.307-3.904 2.5-6.29-.373-1.11-1.991-.663-1.748.48" fill="#84B197" mask="url(#b)"/>
        <path d="M1793.236 311.887c-1.755-7.396-6.142-15.167-11.005-20.966-.822-.98-2.433.07-2.094 1.22 2.138 7.233 6.253 15.185 11.436 20.715.704.749 1.884-.04 1.663-.97" fill="#9BCEB2" mask="url(#b)"/>
        <path d="M1791.33 310.342c-.299-3.502-4.38-6.053-6.78-8.262-3.429-3.155-6.979-6.09-10.573-9.047-1.328-1.087-3.503.277-2.511 1.94 2.51 4.202 5.368 7.878 9.113 11.078 2.566 2.193 6.46 6.01 10.117 5.124.342-.085.667-.468.634-.833" fill="#9BCEB2" mask="url(#b)"/>
        <path d="M1791.628 310.099c-2.735-1.67-6.156-2.164-9.216-3.016-3.318-.925-6.522-1.858-9.781-3.008-1.943-.686-2.968 1.862-1.847 3.178 4.667 5.496 13.707 10.274 20.844 6.894 1.652-.782 1.394-3.197 0-4.048" fill="#9BCEB2" mask="url(#b)"/>
        <path d="M1793.107 315.374c2.886-6.949 6.706-14.057 8.46-21.378.362-1.505-1.515-2.135-2.366-1-4.657 6.194-6.426 14.647-7.285 22.216-.081.741.955.73 1.19.162" fill="#9BCEB2" mask="url(#b)"/>
        <path d="M1795.385 312.797c2.481-1.95 4.081-5.187 5.983-7.672 2.024-2.65 4.056-5.345 6.304-7.811 1.15-1.261-.324-3.407-1.887-2.441-3.204 1.98-6.028 4.21-8.277 7.274-1.976 2.69-4.269 6.389-4.04 9.854.07 1.036 1.15 1.397 1.917.796" fill="#9BCEB2" mask="url(#b)"/>
        <path d="M1794.931 315.662a19.56 19.56 0 0 1-.125-.439l-.678 1.198c7.8-1.935 15.296-4.324 21.35-9.939 1.662-1.545-.145-3.76-2.018-3.465-6.005.944-12.578 3.882-17.364 7.657-1.441 1.14-5.353 4.254-2.307 5.865.586.314 1.33-.202 1.142-.877" fill="#9BCEB2" mask="url(#b)"/>
        <path d="M1796.605 313.04c2.028-.917 3.856-2.823 5.467-4.324 1.656-1.544 3.4-2.868 4.247-5.017.336-.844-.667-1.774-1.489-1.486-2.171.752-3.587 2.492-5.183 4.074-1.57 1.556-3.521 3.285-4.52 5.275-.505 1.01.498 1.925 1.478 1.479" fill="#9BCEB2" mask="url(#b)"/>
        <path d="M1910.15 277.306c-8.328 14.212 15.635 30.212 27.675 30.514 15.506.388 22.706-20.328 17.722-32.958-.439-1.102-2.164-1.35-2.5 0-2.23 8.91 1.52 19.2-6.702 26.168-10.278 8.711-41.869-7.853-33.81-22.33.866-1.556-1.486-2.935-2.385-1.394" fill="#9BCEB2" mask="url(#b)"/>
        <path d="M1938.54 286.003c.144-.885.189-1.523-.036-2.396-.494-1.903-2.983-2.518-4.35-1.147-1.372 1.368-.756 3.856 1.146 4.35.874.225 1.512.18 2.396.037.373-.059.786-.472.845-.844" fill="#9BCEB2" mask="url(#b)"/>
        <path d="M1963.554 365.874c-2.392 6.496-1.164 13.983 3.905 18.82 1.393 1.335 4.228.026 3.465-2.016-1.965-5.25-3.02-10.507-2.278-16.115.405-3.082-4.159-3.226-5.092-.69" fill="#9BCEB2" mask="url(#b)"/>
        <path d="M1574.703 237.756c.026 1.954-.037 3.87.59 5.747a.83.83 0 0 0 1.585 0c.627-1.872.564-3.797.59-5.747.022-1.78-2.787-1.78-2.765 0" fill="#9BCEB2" mask="url(#b)"/>
        <path d="M1591.776 233.77c2.473 1.575 5.017 3.665 8.055 3.787.91.033 1.615-1.106 1.084-1.888-1.725-2.518-4.778-3.546-7.44-4.807-1.939-.925-3.55 1.725-1.7 2.909" fill="#9BCEB2" mask="url(#b)"/>
        <path d="M929.424 230.796c.704 1.946 1.272 3.926 2.521 5.596.535.711 1.77.542 1.774-.48.003-2.079-.694-3.974-1.294-5.942-.587-1.925-3.68-1.047-3.001.826" fill="#9BCEB2" mask="url(#b)"/>
        <path d="M895.901 235.898c-1.677 0-3.248-.21-4.542 1.003-.464.435-.464 1.275 0 1.71 1.294 1.213 2.865 1.003 4.542 1.003 2.389 0 2.396-3.716 0-3.716" fill="#9BCEB2" mask="url(#b)"/>
        <path d="M601.921 224.506c72.454-6.208 150.574 58.452 219.916 16.52.287-.173.033-.601-.262-.446-72.081 37.681-145.464-25.57-219.654-16.763-.431.051-.446.73 0 .69" fill="#9BCEB2" mask="url(#b)"/>
        <path d="M269.722 323.098l1.692-1.995c.469-.553-.243-1.264-.796-.796L268.624 322c-.767.65.45 1.866 1.098 1.099" fill="#9BCEB2" mask="url(#b)"/>
        <path d="M277.619 287.938c1.534 2.09 3.687 4.458 5.99 5.689.66.354 1.35-.35 1.007-1.003-1.213-2.319-3.561-4.487-5.637-6.042-.785-.586-1.935.575-1.36 1.356" fill="#9BCEB2" mask="url(#b)"/>
        <path d="M327.289 288.001c2.58 4.052 3.44 9.548 2.186 14.19-.287 1.062 1.287 1.788 1.818.767 2.93-5.692 2.142-11.613-2.172-16.369-.884-.977-2.543.295-1.832 1.412" fill="#9BCEB2" mask="url(#b)"/>
        <path d="M206.19 337.719c6.194 2.776 11.245 6.795 16.365 11.174.62.531 1.777-.184 1.22-.944-4.154-5.662-10.4-9.441-16.921-11.808-.91-.332-1.56 1.18-.664 1.578" fill="#9BCEB2" mask="url(#b)"/>
        <path d="M417.184 241.443c-.166 3.03-.756 6.573.38 9.47.354.896 1.482.896 1.836 0 1.135-2.9.545-6.444.38-9.47-.096-1.667-2.5-1.67-2.596 0" fill="#9BCEB2" mask="url(#b)"/>
        <path d="M444.756 249.196c.535 1.706 1.058 3.76 2.931 4.35.586.18 1.143-.221 1.331-.756.601-1.718-.693-3.355-1.655-4.693-.885-1.231-3.123-.553-2.607 1.099" fill="#9BCEB2" mask="url(#b)"/>
        <path d="M219.031 238.062c1.585 1.902 3.421 3.255 5.751 4.125.914.343 1.427-.896.881-1.515-1.637-1.858-3.594-3.038-5.92-3.838-.753-.258-1.143.715-.712 1.228" fill="#9BCEB2" mask="url(#b)"/>
        <path d="M266.884 254.608c1.84 2.536 3.682 4.984 5.732 7.354.255.299.756-.088.542-.416-1.707-2.632-3.539-5.088-5.463-7.565-.354-.461-1.158.15-.811.627" fill="#9BCEB2" mask="url(#b)"/>
        <path d="M269.398 248.366c.6.571.888 1.637 1.46 2.29.785.899 1.585 1.75 2.293 2.716 1.32 1.796 2.64 3.58 3.981 5.357.741.977 2.36.45 2.054-.866-.568-2.474-1.652-4.656-3.322-6.585-.863-.991-1.81-1.968-2.835-2.798-.881-.715-1.85-.693-2.743-1.268-.7-.453-1.493.583-.888 1.154" fill="#9BCEB2" mask="url(#b)"/>
        <path d="M278.143 251.05c4.556 3.355 8.047 7.864 10.425 12.988.446.958 1.718.217 1.582-.667-1.01-6.393-5.379-11.462-11.41-13.74-.889-.336-1.25.94-.597 1.419" fill="#9BCEB2" mask="url(#b)"/>
        <path d="M477.689 179.175c0 26.839 16.527 48.594 36.914 48.594 20.384 0 36.91-21.755 36.91-48.594 0-26.835-16.729-45.703-36.91-48.593-28.424-4.067-36.914 21.758-36.914 48.593" fill="#1ECAC3" mask="url(#b)"/>
        <path fill="#0A090B" mask="url(#b)" d="M495.414 194.128l17.24 9.645 1.275-30.57-3.809-8.723 3.941 5.563.542-12.918.959 30.342 17.135-4.86-17.01 8.896 2.3 72.826h-7.867l2.397-57.334-17.103-12.867"/>
        <path d="M1455.809 191.895c0 25.692 15.82 46.518 35.336 46.518 19.517 0 35.337-20.826 35.337-46.518s-16.019-43.753-35.337-46.518c-27.207-3.893-35.336 20.826-35.336 46.518" fill="#EB8F3B" mask="url(#b)"/>
        <path fill="#0A090B" mask="url(#b)" d="M1472.778 206.207l16.502 9.235 1.22-29.265-3.642-8.35 3.771 5.327.516-12.365.918 29.043 16.402-4.652-16.28 8.516 2.2 69.714h-7.527l2.293-54.886-16.373-12.317"/>
        <path d="M1859.451 159.08c0 48.213-29.688 87.295-66.311 87.295-36.623 0-66.315-39.082-66.315-87.296 0-48.21 18.156-153.703 54.484-158.344 78.142-9.984 78.142 110.134 78.142 158.344" fill="#44A15B" mask="url(#b)"/>
        <path fill="#0A090B" mask="url(#b)" d="M1827.61 158.379l-30.968 21.117-2.297-66.916 6.843-19.097-7.079 12.184-.97-28.28-1.72 66.415-30.784-10.636 30.555 19.473-4.133 159.414h14.13l-4.305-125.508 30.728-28.166"/>
        <path d="M1303.43 265.86c0 26.289 16.19 47.601 36.158 47.601 19.97 0 36.162-21.312 36.162-47.602 0-26.29-9.899-83.812-29.71-86.34-42.61-5.446-42.61 60.05-42.61 86.34" fill="#9013FE" mask="url(#b)"/>
        <path fill="#0A090B" mask="url(#b)" d="M1320.793 265.48l16.889 11.513 1.25-36.49-3.731-10.412 3.86 6.644.527-15.421.94 36.213 16.785-5.799-16.66 10.618 2.253 86.927h-7.705l2.348-68.435-16.756-15.359"/>
        <path d="M730.828 131.26c0 26.29 16.188 47.602 36.159 47.602 19.97 0 36.162-21.313 36.162-47.602 0-26.29-9.899-83.812-29.71-86.341-42.61-5.445-42.61 60.052-42.61 86.341" fill="#EA8743" mask="url(#b)"/>
        <path fill="#0A090B" mask="url(#b)" d="M748.192 130.88l16.885 11.514 1.254-36.49-3.731-10.412 3.86 6.644.527-15.422.59 22.666v.004l.35 13.544 16.785-5.799-16.66 10.618 2.253 86.927H762.6l2.348-68.435-16.756-15.359"/>
        <path d="M434.89 159.953c0 21.077-12.98 38.16-28.987 38.16-16.011 0-28.992-17.083-28.992-38.16 0-21.08 7.937-67.196 23.82-69.224 34.16-4.365 34.16 48.144 34.16 69.224" fill="#4A90E2" mask="url(#b)"/>
        <path fill="#0A090B" mask="url(#b)" d="M420.97 159.647l-13.537 9.231-1.003-29.257 2.99-8.346-3.093 5.327-.424-12.365-.472 18.171v.004l-.284 10.861-13.456-4.649 13.357 8.513-1.807 69.688h6.179l-1.88-54.868 13.43-12.31"/>
    </g>
</svg>
