<svg width="36" height="36" viewBox="0 0 36 36" xmlns="http://www.w3.org/2000/svg">
    <title>
        Group
    </title>
    <g fill="none" fill-rule="evenodd">
        <path d="M35.876 17.81c0 9.791-8.02 17.728-17.916 17.728C8.066 35.538.045 27.601.045 17.81.045 8.018 8.065.08 17.96.08s17.916 7.938 17.916 17.73" fill="#44A15B"/>
        <path d="M19.124 35.637c-1.602.172.545-3.2.214-4.674-.412-1.834-1.716-3.279-1.788-5.329-.061-1.728.656-2.688 1.225-4.194.474-1.257.492-2.402.026-3.765.355-.243.717-.297 1.168-.187 1.1 2.7-.173 7.37 3.88 8.462 1.792.484 3.488-.067 5.116 1.16 1.024.773 1.451 2.186 1.706 2.987-1.889 1.92-4.726 4.811-11.547 5.54" fill="#4DCC6B"/>
        <path d="M23.419 16.543c-1.056.466-.603 1.945-.069 2.627.849 1.082 2.346 1.422 3.67 1.403 2.745-.04 2.042-2.575 3.12-4.282.373-.592.827-1.216 1.552-1.4.476-.12.773.172 1.158.184.828.027 2.157-1.111 2.652-.834.099-1.123-2.306-6.466-3.489-7.418-.778-.626-1.26-.059-2.124.397-2.094 1.105-3.963 2.595-5.133 4.677-.47.838-.613 1.87-.937 2.78-.19.537-.227 1.08-.334 1.612a3.973 3.973 0 0 1-.066.254" fill="#4DCC6B"/>
        <path d="M25.154 1.653C20.058-1.49 7.522-.787 2.353 9.381c.347-.049.632-.26.968-.385.829-.308 1.783-.47 2.664-.513 2.56-.123 4.794 1.07 7.03 2.177.967.48 1.956.95 2.863 1.53.728.468 1.203 1.06 1.839 1.604 1.498 1.282 3.215.1 4.077-1.393.74-1.284.364-2.705.396-4.09.026-1.15.836-1.918 1.81-2.433.664-.351 1.51-.535 1.861-1.24.347-.697-.003-1.068-.327-1.638-.255-.446-.38-1.347-.37-1.293" fill="#4DCC6B"/>
        <path d="M.026 17.183c.895.106 1.387.02 2.271-.258 1.712-.537 3.772-.507 5.419.208 1.832.795 3.465 1.83 3.426 4-.028 1.548-.878 2.9-1.034 4.423-.132 1.305-.198 2.565.144 3.84.196.73.4 1.443.505 2.174.126.89-.258 1.65-.908 2.11C1.319 28.82-.232 20.636.026 17.183" fill="#4DCC6B"/>
    </g>
</svg>
