<svg width="999" height="565" viewBox="0 0 999 565" xmlns="http://www.w3.org/2000/svg">
    <title>
        Group 2
    </title>
    <g fill="none" fill-rule="evenodd">
        <path d="M26.875 537.592l3.682-5.787-.001-.002L64.886 487c-9.445 4.59-35.377 36.346-38.875 42.154-.73 1.212-.384 2.3.782 3.21.48.373.591.498.85.654l-2.123 3.58 1.355.994" fill="#9D9D9C"/>
        <path d="M29.29 535.11l-2.367-1.36a.64.64 0 0 0-.876.237l-6.862 12.123 5.041-1.981 5.281-8.127a.631.631 0 0 0-.217-.892" fill="#44A15B"/>
        <path d="M20.771 531.548l5.827-3.664.002.002 45.31-33.932c-4.609 9.38-37.171 35.097-42.977 38.647-.984.602-2.064.13-2.865-.697-.378-.389-.53-.87-.687-1.127l-3.605 2.114-1.005-1.343" fill="#C6C6C6"/>
        <path d="M2.61 529.136a6.237 6.237 0 0 0 .37 6.268 6.344 6.344 0 0 0 5.657 2.815 6.33 6.33 0 0 0 5.286-3.452 6.237 6.237 0 0 0-.37-6.268 6.344 6.344 0 0 0-5.657-2.815 6.33 6.33 0 0 0-5.286 3.452zm5.173-5.372a8.287 8.287 0 0 1 7.389 3.679 8.144 8.144 0 0 1 .483 8.186 8.269 8.269 0 0 1-6.905 4.51 8.287 8.287 0 0 1-7.388-3.679 8.144 8.144 0 0 1-.484-8.187 8.269 8.269 0 0 1 6.905-4.509z" fill="#44A15B"/>
        <path d="M23.268 529.147l1.377 2.346a.63.63 0 0 1-.238.87l-12.207 6.83 1.988-5.005 8.182-5.254a.64.64 0 0 1 .898.213" fill="#44A15B"/>
        <path d="M67.568 497.206c-9.462 11.271-34.896 31.245-39.961 34.342-.578.353-1.186.33-1.754.09.064.09.132.182.215.266.801.828 1.88 1.3 2.865.697 5.806-3.55 38.368-29.267 42.976-38.647l-4.341 3.252" fill="#EDEDED"/>
        <path d="M29.096 529.516l-1.759 1.749a1.283 1.283 0 0 0 1.588-.173 1.259 1.259 0 0 0 .171-1.576" fill="#878787"/>
        <path d="M28.741 529.154a1.284 1.284 0 0 0-1.623.148 1.258 1.258 0 0 0-.147 1.611l1.77-1.76" fill="#878787"/>
        <path d="M29.338 555.604a6.3 6.3 0 0 1-5.519.076 6.371 6.371 0 0 1-.798-.43 6.201 6.201 0 0 1-2.577-3.434 6.117 6.117 0 0 1-.269-2.175 6.26 6.26 0 0 1 3.461-5.246 6.365 6.365 0 0 1 6.318.353c1.894 1.23 2.99 3.368 2.855 5.6a6.278 6.278 0 0 1-3.47 5.256zm5.413-5.142a8.2 8.2 0 0 0-3.73-7.326 8.33 8.33 0 0 0-8.25-.458 8.183 8.183 0 0 0-4.528 6.86 8.24 8.24 0 0 0 1.307 4.921 8.217 8.217 0 0 0 2.414 2.395c.73.477 1.528.83 2.336 1.058.289.076.577.134.865.172l.048.01a8.235 8.235 0 0 0 9.538-7.63v-.002z" fill="#44A15B"/>
        <path d="M20.714 564.523c-3.058-3.053-2.26-6.744-1.164-10.064.298-.925.625-1.803.894-2.643a6.201 6.201 0 0 0 2.577 3.435c.26.162.52.305.798.43.356.81-.192.648 1.394 2.412l-.048-.009a5.325 5.325 0 0 0-.865-.172c-3.51-.467-3.74 3.33-2.125 5.18 1.365 1.545-.394 2.49-1.461 1.431" fill="#44A15B"/>
        <g>
            <path fill="#878787" d="M936.19 46.088l17.337 17.335-4.478 4.479-17.336-17.336 4.478-4.478"/>
            <path d="M956.97 24.402c9.475-8.33 19.72-15.903 30.094-23.137 3.457-3.457 14.743 7.829 11.286 11.285-7.234 10.374-14.807 20.62-23.137 30.095-6.57 7.474-13.598 14.474-21.284 20.676l-17.635-17.635c6.2-7.687 13.202-14.715 20.676-21.284" fill="#4A90E2"/>
            <path d="M956.97 24.402c9.475-8.33 19.72-15.903 30.094-23.137L998.35 12.55c-7.234 10.374-14.807 20.62-23.137 30.095-5.084 3.062-11.752 2.418-16.122-1.952l-.17-.169c-4.37-4.37-5.013-11.038-1.951-16.122" fill="#7DB4F5"/>
            <path fill="#3C3C3B" d="M937.252 45.027l17.336 17.336-4.48 4.478-17.334-17.336 4.478-4.478"/>
            <path fill="#575756" d="M957.84 57.873l1.238 1.237L944.187 74l-1.237-1.237 14.89-14.89"/>
            <path fill="#575756" d="M955.364 55.396l1.237 1.238-14.89 14.89-1.238-1.238 14.89-14.89"/>
            <path fill="#575756" d="M952.887 52.92l1.237 1.237-14.89 14.89-1.237-1.237 14.89-14.89"/>
            <path fill="#575756" d="M950.41 50.443l1.238 1.238-14.89 14.89-1.238-1.238 14.89-14.89"/>
            <path fill="#575756" d="M947.934 47.967l1.237 1.237-14.89 14.89-1.237-1.237 14.89-14.89"/>
            <path fill="#575756" d="M945.458 45.49l1.237 1.238-14.89 14.89-1.238-1.238 14.89-14.89"/>
            <path fill="#575756" d="M942.98 43.014l1.238 1.237-14.89 14.89-1.237-1.237 14.89-14.89"/>
            <path fill="#575756" d="M940.504 40.537l1.238 1.238-14.89 14.89-1.238-1.238 14.89-14.89"/>
            <path d="M946.269 40.963a1.416 1.416 0 0 1 2.004 0l10.379 10.379a1.417 1.417 0 0 1-2.003 2.003l-10.38-10.379a1.417 1.417 0 0 1 0-2.003" fill="#3C3C3B"/>
            <path d="M969.67 25.866a2.883 2.883 0 1 1 4.078 4.078l-7.811 7.811a2.884 2.884 0 0 1-4.078-4.077l7.812-7.812" fill="#9D9D9C"/>
            <path d="M969.24 30.374c.735.735.735 1.93 0 2.664l-3.905 3.906a1.886 1.886 0 0 1-2.664-.001 1.887 1.887 0 0 1 0-2.664l3.906-3.905a1.886 1.886 0 0 1 2.663 0" fill="#878787"/>
            <path d="M973.04 26.574a1.884 1.884 0 0 1 0 2.663l-3.904 3.906a1.885 1.885 0 0 1-2.664-2.664l3.905-3.906a1.886 1.886 0 0 1 2.664.001" fill="#575756"/>
        </g>
        <g>
            <path d="M14.708 2.199l.01.009a.679.679 0 0 1 .01.95L7.43 10.794c-.267.28-.292.686-.062.916.229.23.636.205.916-.062l7.68-7.341a.617.617 0 0 1 .863.01l.008.008c.237.237.241.62.01.863l-7.342 7.68c-.267.28-.291.686-.061.916.23.23.636.205.915-.062l7.681-7.34a.616.616 0 0 1 .862.008l.01.01a.615.615 0 0 1 .008.86l-7.34 7.682c-.267.28-.292.687-.063.916.23.23.637.205.917-.062l7.68-7.341a.617.617 0 0 1 .862.01l.009.008c.237.237.24.62.01.862l-7.341 7.68c-.267.28-.292.687-.063.917.23.23.637.205.917-.062l7.68-7.341a.616.616 0 0 1 .862.01l.009.008c.236.237.241.62.01.862l-7.342 7.68c-.267.28-.292.687-.062.916.23.23.637.206.916-.061l7.68-7.341a.616.616 0 0 1 .863.01l.009.008a.615.615 0 0 1 .01.862l-7.342 7.681c-.267.28-.292.686-.061.916.229.23.636.205.915-.062l7.68-7.342a.617.617 0 0 1 .863.01l.008.009c.238.237.242.62.01.862l-7.34 7.68c-.267.28-.292.688-.063.917.23.23.636.204.916-.063l7.681-7.34a.616.616 0 0 1 .862.01l.008.008c.237.237.242.62.01.862l-7.341 7.68c-.267.28-.291.687-.062.917.23.23.637.205.916-.063l7.681-7.34a.615.615 0 0 1 .861.009l.01.01c.236.236.241.619.009.861l-7.34 7.68c-.268.28-.293.687-.063.916.23.23.637.206.916-.061l7.68-7.342a.617.617 0 0 1 .863.01l.008.008c.238.238.241.62.01.862l-7.34 7.681c-.268.28-.293.687-.063.917.23.229.636.204.916-.063l7.68-7.34a.616.616 0 0 1 .863.01l.008.008c.237.236.242.62.01.862l-7.341 7.68c-.267.28-.291.687-.062.917.23.23.636.204.915-.063l7.682-7.34a.615.615 0 0 1 .861.009l.01.009c.236.236.24.62.009.862l-7.341 7.68c-.267.28-.292.687-.062.916.23.23.637.205.916-.062l7.68-7.34a.616.616 0 0 1 .862.009l.01.008c.236.238.24.62.009.862l-7.341 7.682c-.267.279-.292.686-.063.915.23.23.637.205.917-.062l7.68-7.341a.617.617 0 0 1 .863.01l.008.008c.237.237.241.62.01.862l-7.34 7.681c-.268.28-.293.686-.063.916.229.23.636.205.915-.062l7.682-7.34a.617.617 0 0 1 .862.008l.008.01c.237.236.241.62.01.862l-7.341 7.68c-.268.28-.292.686-.062.916.23.23.636.205.915-.062L45 33.343a.616.616 0 0 1 .862.008l.01.01a.615.615 0 0 1 .009.86l-7.341 7.682c-.267.28-.292.687-.063.916.23.23.637.205.917-.062l7.68-7.341a.617.617 0 0 1 .862.01l.009.008c.237.237.24.62.01.862l-7.341 7.68c-.267.28-.292.687-.063.917.23.23.637.205.917-.062l7.68-7.341a.616.616 0 0 1 .863.01l.008.008c.237.237.241.62.01.862l-7.342 7.681c-.267.279-.292.686-.061.915.229.23.636.206.915-.061l7.68-7.341a.616.616 0 0 1 .863.01l.009.008a.615.615 0 0 1 .01.862l-7.342 7.681c-.267.28-.292.686-.062.916.23.229.637.205.916-.062l7.68-7.342a.617.617 0 0 1 .863.01l.008.009c.238.237.242.62.01.862l-7.34 7.68c-.267.28-.292.687-.063.917.23.23.636.204.916-.063l7.681-7.34a.616.616 0 0 1 .862.01l.009.008c.236.237.24.62.01.862l-7.342 7.68c-.267.28-.291.687-.062.917.23.23.637.205.916-.063l7.681-7.34a.615.615 0 0 1 .862.009l.009.01c.236.236.241.619.009.861l-7.34 7.68c-.268.28-.293.687-.063.916.23.23.637.206.916-.061l7.68-7.342a.617.617 0 0 1 .863.01l.008.008c.238.238.241.62.01.863l-7.34 7.68c-.268.28-.293.687-.063.917.23.229.636.204.916-.063l7.68-7.34a.616.616 0 0 1 .863.01l.008.008c.237.236.242.62.01.862l-7.341 7.68c-.267.28-.291.687-.062.917.23.23.636.204.915-.063l7.682-7.34a.615.615 0 0 1 .861.009l.01.009c.236.237.24.62.009.862l-7.341 7.68c-.267.28-.292.687-.062.916.23.23.637.206.916-.062l7.68-7.341a.617.617 0 0 1 .862.01l.009.008c.237.238.241.62.01.862l-7.34 7.68c-.268.28-.293.688-.064.917.23.23.637.205.917-.062l7.68-7.341a.617.617 0 0 1 .863.01l.008.008c.237.237.241.62.01.862l-7.342 7.681c-.266.28-.29.686-.061.917.229.229.636.204.915-.063l7.638-7.299a.678.678 0 0 1 .948.01l.01.01c.25.25.267.65.038.919l-9.104 10.743c-1.37 1.618-3.973 1.626-5.928.038A361.56 361.56 0 0 1 3.01 17.193c-1.589-1.955-1.581-4.558.037-5.93l10.742-9.102a.68.68 0 0 1 .92.038" fill="#9013FE"/>
            <path d="M59.64 66.538c.46.461.491 1.2.07 1.698-.357.421-1.36.398-2.229-.307a360.722 360.722 0 0 1-27.548-24.836A361.935 361.935 0 0 1 5.071 15.52c-.705-.87-.728-1.873-.307-2.229a1.254 1.254 0 0 1 1.697.07L59.64 66.538" fill="#AE52FF"/>
        </g>
        <g>
            <path d="M975.63 562.267c-5.23-.783-10.857-2.918-16.164-6.494-12.498-8.39-15.92-25.677-5.212-36.402 10.726-10.708 28.011-7.285 36.402 5.212 3.577 5.306 5.712 10.932 6.494 16.163l-21.52 21.52" fill="#FFD2A1"/>
            <path fill="#FFD2A1" d="M952.294 527.21l9.798-9.797-3.603-3.603-9.797 9.798z"/>
            <path fill="#F56C40" d="M948.692 523.608l9.797-9.798-6.656-6.657-9.798 9.798z"/>
            <path fill="#FFD2A1" d="M943.963 515.023l5.943-5.943-1.417-1.418-5.944 5.943z"/>
            <path fill="#F56C40" d="M944.605 511.545l1.824-1.823-4.265-4.266-1.824 1.824z"/>
            <path fill="#FFD2A1" d="M939.58 508.04l3.344-3.344-2.816-2.815-3.344 3.344z"/>
            <path d="M927.218 516.424c.151.103 2.603-4.484 7.94-8.553 5.338-4.068 6.792-9.343 5.716-10.084-.707-.485-3.16 4.101-7.942 8.553-4.783 4.452-6.238 9.724-5.714 10.084" fill="#FFD2A1"/>
            <path d="M973.125 518.887c4.844.931 9.437 3.867 12.475 8.393 2.69 3.989 4.293 8.216 4.88 12.146l-16.17 16.17c-3.93-.587-8.159-2.19-12.147-4.878-4.525-3.04-7.462-7.631-8.394-12.474l19.356-19.357" fill="#F56C40"/>
        </g>
    </g>
</svg>
