<svg width="877" height="666" viewBox="0 0 877 666" xmlns="http://www.w3.org/2000/svg" xmlns:xlink="http://www.w3.org/1999/xlink">
    <title>
        Combined Shape
    </title>
    <defs>
        <path d="M1302.177 200.57c38.363 11.086 69.01 42.36 76.49 83.63 10.603 58.495-29.277 114.715-89.044 125.567-8.268 1.506-16.473 1.972-24.527 1.652 6.436 67.383-40.82 129.853-110.078 142.425-35.26 6.409-69.678-1.392-97.364-19.128-15.796 25.979-42.427 45.503-75.083 51.431-36.798 6.684-72.525-5.438-97.06-29.354-9.87 6.119-21.006 10.573-33.167 12.781-50.819 9.223-99.35-23.612-108.367-73.354-1.347-7.431-1.628-14.79-1.15-22.024-52.079-10.307-94.88-50.564-104.742-104.98-11.632-64.17 26.5-125.93 87.213-147.548-6.084-10.46-10.574-22.022-12.85-34.58-10.714-59.132 29.574-115.955 90-126.924 35.103-6.373 69.194 4.205 93.773 25.719 9.539-41.6 43.582-75.79 89.023-84.04 53.831-9.772 105.391 20.207 123.588 68.663 15.721-12.816 34.836-22.026 56.31-25.925 66.528-12.077 130.037 30.908 141.839 96.016 3.765 20.776 1.763 41.276-4.804 59.974zM855.513 11.16s-180.342 2.582-179.808 134.858c0 0-26.6-156.034 179.808-134.857zm511.825 421.599s111.562-141.823 8.554-224.709c0 0 137.866 77.581-8.554 224.709z" id="b"/>
        <filter x="-9.4%" y="-7.7%" width="118.8%" height="125.5%" filterUnits="objectBoundingBox" id="a">
            <feOffset dy="30" in="SourceAlpha" result="shadowOffsetOuter1"/>
            <feGaussianBlur stdDeviation="20" in="shadowOffsetOuter1" result="shadowBlurOuter1"/>
            <feColorMatrix values="0 0 0 0 0.906452009 0 0 0 0 0.952898551 0 0 0 0 0.9141931 0 0 0 1 0" in="shadowBlurOuter1"/>
        </filter>
    </defs>
    <g transform="translate(-596 9)" fill="none" fill-rule="evenodd">
        <use fill="#000" filter="url(#a)" xlink:href="#b"/>
        <use fill="#FFFFFE" xlink:href="#b"/>
    </g>
</svg>
