<svg width="1892" height="818" viewBox="0 0 1892 818" xmlns="http://www.w3.org/2000/svg">
    <title>
        Symbols
    </title>
    <g fill="none" fill-rule="evenodd">
        <g fill="#E8F4EA" fill-rule="nonzero">
            <path d="M75.942 204.311h95.188c7.699 0 13.298.873 16.797 2.62 3.5 1.746 5.833 4.481 7 8.207 1.166 3.725 1.75 8.673 1.75 14.843s-.584 11.118-1.75 14.843c-1.167 3.725-3.15 6.286-5.95 7.684-4.432 2.328-10.498 3.492-18.197 3.492H44.796c-16.331 0-25.897-4.424-28.696-13.271-1.4-3.726-2.1-9.663-2.1-17.812V30.734c0-5.355.175-9.372.525-12.05.35-2.677 1.458-5.762 3.325-9.254C21.116 3.143 30.214 0 45.146 0c16.331 0 26.013 4.307 29.046 12.922 1.167 3.958 1.75 10.012 1.75 18.161v173.228zM339.108 91.503c1.4-13.038 10.615-19.558 27.646-19.558 9.1 0 15.865.699 20.298 2.096 4.432 1.397 7.524 3.842 9.273 7.334 1.75 3.493 2.8 6.578 3.15 9.255.35 2.678.525 6.694.525 12.05v122.237c0 5.355-.175 9.371-.525 12.049-.35 2.677-1.341 5.762-2.975 9.255-3.266 6.054-11.256 9.08-23.971 9.08-12.716 0-21.231-1.571-25.547-4.714-4.316-3.144-6.824-7.742-7.524-13.796-8.632 12.34-23.039 18.51-43.22 18.51-20.18 0-38.903-9.196-56.167-27.59-17.265-18.394-25.897-39.756-25.897-64.088 0-24.33 8.69-45.635 26.072-63.912 17.38-18.278 36.453-27.416 57.217-27.416 7.933 0 15.165 1.397 21.697 4.19 6.533 2.795 11.082 5.414 13.649 7.859 2.566 2.445 4.666 4.831 6.299 7.16zm-63.692 72.644c0 7.684 3.033 14.61 9.099 20.78 6.066 6.17 13.415 9.256 22.047 9.256 8.632 0 15.806-3.143 21.522-9.43 5.716-6.286 8.574-13.213 8.574-20.78 0-7.567-2.741-14.61-8.224-21.13-5.482-6.52-12.831-9.779-22.047-9.779-9.215 0-16.681 3.26-22.397 9.78-5.716 6.518-8.574 13.62-8.574 21.303z"/>
            <path d="M1635.003 622.159h61.623c12.605.465 20.308 3.725 23.109 9.778 2.334 4.423 3.501 10.941 3.501 19.555v76.825c0 7.45-3.268 14.55-9.804 21.302C1693.825 769.873 1664.414 780 1625.2 780c-34.78 0-65.008-13.095-90.684-39.286-25.677-26.19-38.515-57.793-38.515-94.81 0-37.015 13.071-67.92 39.215-92.714 26.143-24.793 56.955-37.19 92.435-37.19 27.544 0 53.57 9.08 78.08 27.238 6.302 4.656 9.453 9.836 9.453 15.54 0 5.704-2.684 12.28-8.053 19.73-9.104 12.339-17.39 18.508-24.86 18.508-4.434 0-11.554-3.201-21.358-9.603-9.803-6.402-21.474-9.603-35.013-9.603-17.74 0-33.496 6.227-47.268 18.682-13.772 12.455-20.658 28.751-20.658 48.889s7.003 37.249 21.008 51.333c14.006 14.085 29.878 21.127 47.618 21.127 12.839 0 24.393-2.095 34.664-6.285v-38.064h-27.66c-7.237 0-12.372-.931-15.407-2.794-3.034-1.862-5.018-4.597-5.952-8.206-.934-3.608-1.4-8.497-1.4-14.667 0-6.169.525-11.116 1.575-14.84 1.05-3.726 2.976-6.287 5.777-7.683 4.202-2.096 9.804-3.143 16.807-3.143zm241.591-27.588c4.435 1.397 8.112 3.783 11.03 7.16 2.917 3.375 4.376 8.787 4.376 16.237 0 7.45-2.217 15.598-6.653 24.445-4.435 8.846-10.854 13.27-19.257 13.27-4.201 0-8.228-.932-12.08-2.794-3.85-1.863-8.928-2.794-15.23-2.794-6.303 0-12.196 2.212-17.682 6.635-5.485 4.423-8.228 9.778-8.228 16.064v73.333c0 5.355-.175 9.37-.525 12.048-.35 2.677-1.459 5.761-3.326 9.254-3.502 6.053-12.605 9.079-27.31 9.079-11.205 0-19.258-1.979-24.16-5.937-3.735-3.259-5.835-8.264-6.302-15.015V622.857c0-5.354.175-9.37.525-12.047.35-2.678 1.342-5.646 2.976-8.905 3.268-6.286 12.371-9.429 27.31-9.429 14.006 0 22.759 2.677 26.26 8.032 2.568 3.725 3.852 7.566 3.852 11.524 1.167-1.63 2.86-3.609 5.077-5.937 2.217-2.328 6.944-5.47 14.18-9.428 7.236-3.958 13.597-5.937 19.082-5.937 5.486 0 10.096.291 13.83.873 3.735.582 7.82 1.572 12.255 2.968z"/>
        </g>
        <g fill="#C8DFCC">
            <path d="M375 490a5 5 0 1 1-10 0 5 5 0 0 1 10 0"/>
            <path d="M1539.5 392l2.007 6.111H1548l-5.253 3.777 2.008 6.112-5.255-3.777-5.253 3.777 2.006-6.112-5.253-3.777h6.493L1539.5 392"/>
            <path d="M669.5 41l2.007 6.111H678l-5.253 3.777L674.755 57l-5.255-3.777L664.247 57l2.006-6.112L661 47.11h6.493L669.5 41"/>
            <path d="M1305 812.5a5.5 5.5 0 1 1-11.002-.002 5.5 5.5 0 0 1 11.002.003"/>
        </g>
        <g fill="#FFFFFE">
            <path d="M1832.349 161.06c-21.77-14.966-45.318-4.785-61.165 15.208-12.646-32.146-32.974-60.7-60.11-60.263-21.202.342-37.174 24.368-35.692 52.658-14.32-3.345-29.325-4.368-41.263 5.993-10.894 9.456-18.176 28.39-15.599 47.533 3.903 28.967 25.55 40.813 47.54 43.805.187.595.582 1.105 1.146 1.121 39.577 1.253 79.166 4.154 118.729 4.525 24.406.23 61.756 5.421 71.934-32.622 7.476-27.94-5.597-64.258-25.52-77.957"/>
            <path d="M264.898 582.799c-25.955-12.056-55.252-2.081-75.573 16.101-13.996-27.473-37.56-51.458-70.796-49.82-25.97 1.277-46.63 22.986-46.123 47.612-17.377-2.26-35.697-2.46-50.79 7.137-13.77 8.756-23.561 25.619-21.288 42.206 3.438 25.104 29.388 34.442 56.167 36.037.202.512.662.938 1.351.928 48.391-.738 96.717-.034 145.13-1.538 29.863-.928 75.346 1.878 89.563-31.797 10.441-24.736-3.885-55.829-27.641-66.866"/>
        </g>
    </g>
</svg>
